<?xml version="1.0" encoding="UTF-8"?>
<svg width="1045px" height="134px" viewBox="0 0 1045 134" version="1.1" xmlns="http://www.w3.org/2000/svg" xmlns:xlink="http://www.w3.org/1999/xlink">
    <g id="icons" stroke="none" stroke-width="1" fill="none" fill-rule="evenodd">
        <g id="main" transform="translate(-298.000000, -610.000000)">
            <g id="hero-bg" transform="translate(298.000000, 610.000000)">
                <path d="M679.39482,43.4505889 C678.968717,40.9041261 677.876197,38.8445056 676.117227,37.2716678 C674.382175,35.7202171 672.541779,34.8213376 670.595988,34.5750047 C670.588556,34.5752911 670.581087,34.5754356 670.573584,34.5754356 C670.520303,34.5754356 670.468718,34.5681472 670.419767,34.5545101 C670.412013,34.5536879 670.404258,34.552876 670.396501,34.5520745 L670.396501,34.5474885 C670.166382,34.4726289 670,34.2558074 670,34 C670,33.6821957 670.256802,33.4245644 670.573584,33.4245644 C670.59272,33.4245644 670.611638,33.4255045 670.630293,33.4273412 C672.580004,33.1587738 674.415466,32.2488972 676.136729,30.6976867 C677.891023,29.1167093 678.977111,27.0658927 679.395023,24.5451776 C679.397214,24.5027545 679.403984,24.4615467 679.414848,24.4220424 C679.416458,24.411736 679.418057,24.4014217 679.419646,24.3910997 L679.424306,24.3910997 C679.500904,24.1637054 679.71531,24 679.967828,24 C680.220346,24 680.434752,24.1637054 680.51135,24.3910997 L680.511784,24.3910997 C680.511927,24.3919609 680.51207,24.3928219 680.512213,24.3936829 C680.529811,24.4467565 680.539912,24.5032643 680.541258,24.5619429 C680.994046,27.0920477 682.091518,29.1437978 683.833705,30.7172522 C685.555311,32.2721186 687.388227,33.1771062 689.332504,33.4322395 C689.363061,33.4271905 689.394433,33.4245644 689.426416,33.4245644 C689.743198,33.4245644 690,33.6821957 690,34 C690,34.3178043 689.743198,34.5754356 689.426416,34.5754356 C689.404841,34.5754356 689.383544,34.5742406 689.362588,34.5719129 C687.365325,34.8213342 685.509381,35.7342877 683.794701,37.3107987 C682.070356,38.8961957 680.985921,40.9365441 680.541367,43.4319027 C680.53745,43.7463252 680.282168,44 679.967828,44 C679.713626,44 679.498046,43.8341036 679.422792,43.6043421 L679.419646,43.6043421 C679.418557,43.5973476 679.417463,43.5903568 679.416365,43.5833696 C679.40424,43.5409142 679.396854,43.4964495 679.39482,43.4505889 Z" id="Combined-Shape-Copy-31" fill="#FFFFFF"></path>
                <path d="M461.39482,85.4505889 C460.968717,82.9041261 459.876197,80.8445056 458.117227,79.2716678 C456.382175,77.7202171 454.541779,76.8213376 452.595988,76.5750047 C452.588556,76.5752911 452.581087,76.5754356 452.573584,76.5754356 C452.520303,76.5754356 452.468718,76.5681472 452.419767,76.5545101 C452.412013,76.5536879 452.404258,76.552876 452.396501,76.5520745 L452.396501,76.5474885 C452.166382,76.4726289 452,76.2558074 452,76 C452,75.6821957 452.256802,75.4245644 452.573584,75.4245644 C452.59272,75.4245644 452.611638,75.4255045 452.630293,75.4273412 C454.580004,75.1587738 456.415466,74.2488972 458.136729,72.6976867 C459.891023,71.1167093 460.977111,69.0658927 461.395023,66.5451776 C461.397214,66.5027545 461.403984,66.4615467 461.414848,66.4220424 C461.416458,66.411736 461.418057,66.4014217 461.419646,66.3910997 L461.424306,66.3910997 C461.500904,66.1637054 461.71531,66 461.967828,66 C462.220346,66 462.434752,66.1637054 462.51135,66.3910997 L462.511784,66.3910997 C462.511927,66.3919609 462.51207,66.3928219 462.512213,66.3936829 C462.529811,66.4467565 462.539912,66.5032643 462.541258,66.5619429 C462.994046,69.0920477 464.091518,71.1437978 465.833705,72.7172522 C467.555311,74.2721186 469.388227,75.1771062 471.332504,75.4322395 C471.363061,75.4271905 471.394433,75.4245644 471.426416,75.4245644 C471.743198,75.4245644 472,75.6821957 472,76 C472,76.3178043 471.743198,76.5754356 471.426416,76.5754356 C471.404841,76.5754356 471.383544,76.5742406 471.362588,76.5719129 C469.365325,76.8213342 467.509381,77.7342877 465.794701,79.3107987 C464.070356,80.8961957 462.985921,82.9365441 462.541367,85.4319027 C462.53745,85.7463252 462.282168,86 461.967828,86 C461.713626,86 461.498046,85.8341036 461.422792,85.6043421 L461.419646,85.6043421 C461.418557,85.5973476 461.417463,85.5903568 461.416365,85.5833696 C461.40424,85.5409142 461.396854,85.4964495 461.39482,85.4505889 Z" id="Combined-Shape-Copy-32" fill="#FFFFFF"></path>
                <path d="M148.39482,43.4505889 C147.968717,40.9041261 146.876197,38.8445056 145.117227,37.2716678 C143.382175,35.7202171 141.541779,34.8213376 139.595988,34.5750047 C139.588556,34.5752911 139.581087,34.5754356 139.573584,34.5754356 C139.520303,34.5754356 139.468718,34.5681472 139.419767,34.5545101 C139.412013,34.5536879 139.404258,34.552876 139.396501,34.5520745 L139.396501,34.5474885 C139.166382,34.4726289 139,34.2558074 139,34 C139,33.6821957 139.256802,33.4245644 139.573584,33.4245644 C139.59272,33.4245644 139.611638,33.4255045 139.630293,33.4273412 C141.580004,33.1587738 143.415466,32.2488972 145.136729,30.6976867 C146.891023,29.1167093 147.977111,27.0658927 148.395023,24.5451776 C148.397214,24.5027545 148.403984,24.4615467 148.414848,24.4220424 C148.416458,24.411736 148.418057,24.4014217 148.419646,24.3910997 L148.424306,24.3910997 C148.500904,24.1637054 148.71531,24 148.967828,24 C149.220346,24 149.434752,24.1637054 149.51135,24.3910997 L149.511784,24.3910997 C149.511927,24.3919609 149.51207,24.3928219 149.512213,24.3936829 C149.529811,24.4467565 149.539912,24.5032643 149.541258,24.5619429 C149.994046,27.0920477 151.091518,29.1437978 152.833705,30.7172522 C154.555311,32.2721186 156.388227,33.1771062 158.332504,33.4322395 C158.363061,33.4271905 158.394433,33.4245644 158.426416,33.4245644 C158.743198,33.4245644 159,33.6821957 159,34 C159,34.3178043 158.743198,34.5754356 158.426416,34.5754356 C158.404841,34.5754356 158.383544,34.5742406 158.362588,34.5719129 C156.365325,34.8213342 154.509381,35.7342877 152.794701,37.3107987 C151.070356,38.8961957 149.985921,40.9365441 149.541367,43.4319027 C149.53745,43.7463252 149.282168,44 148.967828,44 C148.713626,44 148.498046,43.8341036 148.422792,43.6043421 L148.419646,43.6043421 C148.418557,43.5973476 148.417463,43.5903568 148.416365,43.5833696 C148.40424,43.5409142 148.396854,43.4964495 148.39482,43.4505889 Z" id="Combined-Shape-Copy-33" fill="#FFFFFF"></path>
                <path d="M83.3948198,75.4505889 C82.9687174,72.9041261 81.8761967,70.8445056 80.1172266,69.2716678 C78.3821747,67.7202171 76.5417791,66.8213376 74.5959883,66.5750047 C74.5885557,66.5752911 74.5810868,66.5754356 74.5735843,66.5754356 C74.5203029,66.5754356 74.4687183,66.5681472 74.419767,66.5545101 C74.4120133,66.5536879 74.404258,66.552876 74.396501,66.5520745 L74.396501,66.5474885 C74.1663819,66.4726289 74,66.2558074 74,66 C74,65.6821957 74.2568024,65.4245644 74.5735843,65.4245644 C74.5927204,65.4245644 74.6116377,65.4255045 74.6302927,65.4273412 C76.5800037,65.1587738 78.4154655,64.2488972 80.1367291,62.6976867 C81.891023,61.1167093 82.9771106,59.0658927 83.395023,56.5451776 C83.3972136,56.5027545 83.4039841,56.4615467 83.4148478,56.4220424 C83.4164581,56.411736 83.4180573,56.4014217 83.4196455,56.3910997 L83.4243057,56.3910997 C83.5009041,56.1637054 83.7153098,56 83.9678279,56 C84.2203461,56 84.4347518,56.1637054 84.5113502,56.3910997 L84.5117841,56.3910997 C84.5119271,56.3919609 84.5120703,56.3928219 84.5122135,56.3936829 C84.5298106,56.4467565 84.5399119,56.5032643 84.5412577,56.5619429 C84.9940461,59.0920477 86.0915184,61.1437978 87.8337055,62.7172522 C89.5553113,64.2721186 91.3882269,65.1771062 93.3325037,65.4322395 C93.3630613,65.4271905 93.3944328,65.4245644 93.4264157,65.4245644 C93.7431976,65.4245644 94,65.6821957 94,66 C94,66.3178043 93.7431976,66.5754356 93.4264157,66.5754356 C93.4048407,66.5754356 93.383544,66.5742406 93.3625877,66.5719129 C91.3653254,66.8213342 89.5093806,67.7342877 87.7947005,69.3107987 C86.0703556,70.8961957 84.9859211,72.9365441 84.5413666,75.4319027 C84.5374497,75.7463252 84.282168,76 83.9678279,76 C83.7136257,76 83.4980459,75.8341036 83.4227915,75.6043421 L83.4196455,75.6043421 C83.4185569,75.5973476 83.4174633,75.5903568 83.4163648,75.5833696 C83.4042398,75.5409142 83.3968544,75.4964495 83.3948198,75.4505889 Z" id="Combined-Shape-Copy-34" fill="#FFFFFF"></path>
                <path d="M970.39482,127.450589 C969.968717,124.904126 968.876197,122.844506 967.117227,121.271668 C965.382175,119.720217 963.541779,118.821338 961.595988,118.575005 C961.588556,118.575291 961.581087,118.575436 961.573584,118.575436 C961.520303,118.575436 961.468718,118.568147 961.419767,118.55451 C961.412013,118.553688 961.404258,118.552876 961.396501,118.552074 L961.396501,118.547488 C961.166382,118.472629 961,118.255807 961,118 C961,117.682196 961.256802,117.424564 961.573584,117.424564 C961.59272,117.424564 961.611638,117.425505 961.630293,117.427341 C963.580004,117.158774 965.415466,116.248897 967.136729,114.697687 C968.891023,113.116709 969.977111,111.065893 970.395023,108.545178 C970.397214,108.502754 970.403984,108.461547 970.414848,108.422042 C970.416458,108.411736 970.418057,108.401422 970.419646,108.3911 L970.424306,108.3911 C970.500904,108.163705 970.71531,108 970.967828,108 C971.220346,108 971.434752,108.163705 971.51135,108.3911 L971.511784,108.3911 C971.511927,108.391961 971.51207,108.392822 971.512213,108.393683 C971.529811,108.446756 971.539912,108.503264 971.541258,108.561943 C971.994046,111.092048 973.091518,113.143798 974.833705,114.717252 C976.555311,116.272119 978.388227,117.177106 980.332504,117.43224 C980.363061,117.427191 980.394433,117.424564 980.426416,117.424564 C980.743198,117.424564 981,117.682196 981,118 C981,118.317804 980.743198,118.575436 980.426416,118.575436 C980.404841,118.575436 980.383544,118.574241 980.362588,118.571913 C978.365325,118.821334 976.509381,119.734288 974.794701,121.310799 C973.070356,122.896196 971.985921,124.936544 971.541367,127.431903 C971.53745,127.746325 971.282168,128 970.967828,128 C970.713626,128 970.498046,127.834104 970.422792,127.604342 L970.419646,127.604342 C970.418557,127.597348 970.417463,127.590357 970.416365,127.58337 C970.40424,127.540914 970.396854,127.49645 970.39482,127.450589 Z" id="Combined-Shape-Copy-35" fill="#FFFFFF"></path>
                <path d="M1000.39482,33.4505889 C999.968717,30.9041261 998.876197,28.8445056 997.117227,27.2716678 C995.382175,25.7202171 993.541779,24.8213376 991.595988,24.5750047 C991.588556,24.5752911 991.581087,24.5754356 991.573584,24.5754356 C991.520303,24.5754356 991.468718,24.5681472 991.419767,24.5545101 C991.412013,24.5536879 991.404258,24.552876 991.396501,24.5520745 L991.396501,24.5474885 C991.166382,24.4726289 991,24.2558074 991,24 C991,23.6821957 991.256802,23.4245644 991.573584,23.4245644 C991.59272,23.4245644 991.611638,23.4255045 991.630293,23.4273412 C993.580004,23.1587738 995.415466,22.2488972 997.136729,20.6976867 C998.891023,19.1167093 999.977111,17.0658927 1000.39502,14.5451776 C1000.39721,14.5027545 1000.40398,14.4615467 1000.41485,14.4220424 C1000.41646,14.411736 1000.41806,14.4014217 1000.41965,14.3910997 L1000.42431,14.3910997 C1000.5009,14.1637054 1000.71531,14 1000.96783,14 C1001.22035,14 1001.43475,14.1637054 1001.51135,14.3910997 L1001.51178,14.3910997 C1001.51193,14.3919609 1001.51207,14.3928219 1001.51221,14.3936829 C1001.52981,14.4467565 1001.53991,14.5032643 1001.54126,14.5619429 C1001.99405,17.0920477 1003.09152,19.1437978 1004.83371,20.7172522 C1006.55531,22.2721186 1008.38823,23.1771062 1010.3325,23.4322395 C1010.36306,23.4271905 1010.39443,23.4245644 1010.42642,23.4245644 C1010.7432,23.4245644 1011,23.6821957 1011,24 C1011,24.3178043 1010.7432,24.5754356 1010.42642,24.5754356 C1010.40484,24.5754356 1010.38354,24.5742406 1010.36259,24.5719129 C1008.36533,24.8213342 1006.50938,25.7342877 1004.7947,27.3107987 C1003.07036,28.8961957 1001.98592,30.9365441 1001.54137,33.4319027 C1001.53745,33.7463252 1001.28217,34 1000.96783,34 C1000.71363,34 1000.49805,33.8341036 1000.42279,33.6043421 L1000.41965,33.6043421 C1000.41856,33.5973476 1000.41746,33.5903568 1000.41636,33.5833696 C1000.40424,33.5409142 1000.39685,33.4964495 1000.39482,33.4505889 Z" id="Combined-Shape-Copy-36" fill="#FFFFFF"></path>
                <path d="M843.576374,92.6154122 C843.278102,90.8328883 842.513338,89.3911539 841.282059,88.2901675 C840.067522,87.204152 838.779245,86.5749363 837.417192,86.4025033 C837.411989,86.4027038 837.406761,86.4028049 837.401509,86.4028049 C837.364212,86.4028049 837.328103,86.3977031 837.293837,86.3881571 C837.288409,86.3875815 837.282981,86.3870132 837.277551,86.3864521 L837.277551,86.3832419 C837.116467,86.3308402 837,86.1790652 837,86 C837,85.777537 837.179762,85.5971951 837.401509,85.5971951 C837.414904,85.5971951 837.428146,85.5978532 837.441205,85.5991389 C838.806003,85.4111417 840.090826,84.774228 841.29571,83.6883807 C842.523716,82.5816965 843.283977,81.1461249 843.576516,79.3816243 C843.57805,79.3519281 843.582789,79.3230827 843.590393,79.2954297 C843.591521,79.2882152 843.59264,79.2809952 843.593752,79.2737698 L843.597014,79.2737698 C843.650633,79.1145938 843.800717,79 843.97748,79 C844.154242,79 844.304326,79.1145938 844.357945,79.2737698 L844.358249,79.2737698 C844.358349,79.2743726 844.358449,79.2749753 844.358549,79.275578 C844.370867,79.3127295 844.377938,79.352285 844.37888,79.39336 C844.695832,81.1644334 845.464063,82.6006584 846.683594,83.7020765 C847.888718,84.790483 849.171759,85.4239743 850.532753,85.6025677 C850.554143,85.5990334 850.576103,85.5971951 850.598491,85.5971951 C850.820238,85.5971951 851,85.777537 851,86 C851,86.222463 850.820238,86.4028049 850.598491,86.4028049 C850.583389,86.4028049 850.568481,86.4019684 850.553811,86.400339 C849.155728,86.574934 847.856566,87.2140014 846.65629,88.3175591 C845.449249,89.427337 844.690145,90.8555809 844.378957,92.6023319 C844.376215,92.8224276 844.197518,93 843.97748,93 C843.799538,93 843.648632,92.8838725 843.595954,92.7230394 L843.593752,92.7230394 C843.59299,92.7181433 843.592224,92.7132498 843.591455,92.7083587 C843.582968,92.6786399 843.577798,92.6475147 843.576374,92.6154122 Z" id="Combined-Shape-Copy-37" fill="#FFFFFF"></path>
                <path d="M587.576374,85.6154122 C587.278102,83.8328883 586.513338,82.3911539 585.282059,81.2901675 C584.067522,80.204152 582.779245,79.5749363 581.417192,79.4025033 C581.411989,79.4027038 581.406761,79.4028049 581.401509,79.4028049 C581.364212,79.4028049 581.328103,79.3977031 581.293837,79.3881571 C581.288409,79.3875815 581.282981,79.3870132 581.277551,79.3864521 L581.277551,79.3832419 C581.116467,79.3308402 581,79.1790652 581,79 C581,78.777537 581.179762,78.5971951 581.401509,78.5971951 C581.414904,78.5971951 581.428146,78.5978532 581.441205,78.5991389 C582.806003,78.4111417 584.090826,77.774228 585.29571,76.6883807 C586.523716,75.5816965 587.283977,74.1461249 587.576516,72.3816243 C587.57805,72.3519281 587.582789,72.3230827 587.590393,72.2954297 C587.591521,72.2882152 587.59264,72.2809952 587.593752,72.2737698 L587.597014,72.2737698 C587.650633,72.1145938 587.800717,72 587.97748,72 C588.154242,72 588.304326,72.1145938 588.357945,72.2737698 L588.358249,72.2737698 C588.358349,72.2743726 588.358449,72.2749753 588.358549,72.275578 C588.370867,72.3127295 588.377938,72.352285 588.37888,72.39336 C588.695832,74.1644334 589.464063,75.6006584 590.683594,76.7020765 C591.888718,77.790483 593.171759,78.4239743 594.532753,78.6025677 C594.554143,78.5990334 594.576103,78.5971951 594.598491,78.5971951 C594.820238,78.5971951 595,78.777537 595,79 C595,79.222463 594.820238,79.4028049 594.598491,79.4028049 C594.583389,79.4028049 594.568481,79.4019684 594.553811,79.400339 C593.155728,79.574934 591.856566,80.2140014 590.65629,81.3175591 C589.449249,82.427337 588.690145,83.8555809 588.378957,85.6023319 C588.376215,85.8224276 588.197518,86 587.97748,86 C587.799538,86 587.648632,85.8838725 587.595954,85.7230394 L587.593752,85.7230394 C587.59299,85.7181433 587.592224,85.7132498 587.591455,85.7083587 C587.582968,85.6786399 587.577798,85.6475147 587.576374,85.6154122 Z" id="Combined-Shape-Copy-38" fill="#FFFFFF"></path>
                <path d="M361.576374,33.6154122 C361.278102,31.8328883 360.513338,30.3911539 359.282059,29.2901675 C358.067522,28.204152 356.779245,27.5749363 355.417192,27.4025033 C355.411989,27.4027038 355.406761,27.4028049 355.401509,27.4028049 C355.364212,27.4028049 355.328103,27.3977031 355.293837,27.3881571 C355.288409,27.3875815 355.282981,27.3870132 355.277551,27.3864521 L355.277551,27.3832419 C355.116467,27.3308402 355,27.1790652 355,27 C355,26.777537 355.179762,26.5971951 355.401509,26.5971951 C355.414904,26.5971951 355.428146,26.5978532 355.441205,26.5991389 C356.806003,26.4111417 358.090826,25.774228 359.29571,24.6883807 C360.523716,23.5816965 361.283977,22.1461249 361.576516,20.3816243 C361.57805,20.3519281 361.582789,20.3230827 361.590393,20.2954297 C361.591521,20.2882152 361.59264,20.2809952 361.593752,20.2737698 L361.597014,20.2737698 C361.650633,20.1145938 361.800717,20 361.97748,20 C362.154242,20 362.304326,20.1145938 362.357945,20.2737698 L362.358249,20.2737698 C362.358349,20.2743726 362.358449,20.2749753 362.358549,20.275578 C362.370867,20.3127295 362.377938,20.352285 362.37888,20.39336 C362.695832,22.1644334 363.464063,23.6006584 364.683594,24.7020765 C365.888718,25.790483 367.171759,26.4239743 368.532753,26.6025677 C368.554143,26.5990334 368.576103,26.5971951 368.598491,26.5971951 C368.820238,26.5971951 369,26.777537 369,27 C369,27.222463 368.820238,27.4028049 368.598491,27.4028049 C368.583389,27.4028049 368.568481,27.4019684 368.553811,27.400339 C367.155728,27.574934 365.856566,28.2140014 364.65629,29.3175591 C363.449249,30.427337 362.690145,31.8555809 362.378957,33.6023319 C362.376215,33.8224276 362.197518,34 361.97748,34 C361.799538,34 361.648632,33.8838725 361.595954,33.7230394 L361.593752,33.7230394 C361.59299,33.7181433 361.592224,33.7132498 361.591455,33.7083587 C361.582968,33.6786399 361.577798,33.6475147 361.576374,33.6154122 Z" id="Combined-Shape-Copy-39" fill="#FFFFFF"></path>
                <path d="M214.576374,71.6154122 C214.278102,69.8328883 213.513338,68.3911539 212.282059,67.2901675 C211.067522,66.204152 209.779245,65.5749363 208.417192,65.4025033 C208.411989,65.4027038 208.406761,65.4028049 208.401509,65.4028049 C208.364212,65.4028049 208.328103,65.3977031 208.293837,65.3881571 C208.288409,65.3875815 208.282981,65.3870132 208.277551,65.3864521 L208.277551,65.3832419 C208.116467,65.3308402 208,65.1790652 208,65 C208,64.777537 208.179762,64.5971951 208.401509,64.5971951 C208.414904,64.5971951 208.428146,64.5978532 208.441205,64.5991389 C209.806003,64.4111417 211.090826,63.774228 212.29571,62.6883807 C213.523716,61.5816965 214.283977,60.1461249 214.576516,58.3816243 C214.57805,58.3519281 214.582789,58.3230827 214.590393,58.2954297 C214.591521,58.2882152 214.59264,58.2809952 214.593752,58.2737698 L214.597014,58.2737698 C214.650633,58.1145938 214.800717,58 214.97748,58 C215.154242,58 215.304326,58.1145938 215.357945,58.2737698 L215.358249,58.2737698 C215.358349,58.2743726 215.358449,58.2749753 215.358549,58.275578 C215.370867,58.3127295 215.377938,58.352285 215.37888,58.39336 C215.695832,60.1644334 216.464063,61.6006584 217.683594,62.7020765 C218.888718,63.790483 220.171759,64.4239743 221.532753,64.6025677 C221.554143,64.5990334 221.576103,64.5971951 221.598491,64.5971951 C221.820238,64.5971951 222,64.777537 222,65 C222,65.222463 221.820238,65.4028049 221.598491,65.4028049 C221.583389,65.4028049 221.568481,65.4019684 221.553811,65.400339 C220.155728,65.574934 218.856566,66.2140014 217.65629,67.3175591 C216.449249,68.427337 215.690145,69.8555809 215.378957,71.6023319 C215.376215,71.8224276 215.197518,72 214.97748,72 C214.799538,72 214.648632,71.8838725 214.595954,71.7230394 L214.593752,71.7230394 C214.59299,71.7181433 214.592224,71.7132498 214.591455,71.7083587 C214.582968,71.6786399 214.577798,71.6475147 214.576374,71.6154122 Z" id="Combined-Shape-Copy-40" fill="#FFFFFF"></path>
                <path d="M343.576374,112.615412 C343.278102,110.832888 342.513338,109.391154 341.282059,108.290167 C340.067522,107.204152 338.779245,106.574936 337.417192,106.402503 C337.411989,106.402704 337.406761,106.402805 337.401509,106.402805 C337.364212,106.402805 337.328103,106.397703 337.293837,106.388157 C337.288409,106.387582 337.282981,106.387013 337.277551,106.386452 L337.277551,106.383242 C337.116467,106.33084 337,106.179065 337,106 C337,105.777537 337.179762,105.597195 337.401509,105.597195 C337.414904,105.597195 337.428146,105.597853 337.441205,105.599139 C338.806003,105.411142 340.090826,104.774228 341.29571,103.688381 C342.523716,102.581697 343.283977,101.146125 343.576516,99.3816243 C343.57805,99.3519281 343.582789,99.3230827 343.590393,99.2954297 C343.591521,99.2882152 343.59264,99.2809952 343.593752,99.2737698 L343.597014,99.2737698 C343.650633,99.1145938 343.800717,99 343.97748,99 C344.154242,99 344.304326,99.1145938 344.357945,99.2737698 L344.358249,99.2737698 C344.358349,99.2743726 344.358449,99.2749753 344.358549,99.275578 C344.370867,99.3127295 344.377938,99.352285 344.37888,99.39336 C344.695832,101.164433 345.464063,102.600658 346.683594,103.702077 C347.888718,104.790483 349.171759,105.423974 350.532753,105.602568 C350.554143,105.599033 350.576103,105.597195 350.598491,105.597195 C350.820238,105.597195 351,105.777537 351,106 C351,106.222463 350.820238,106.402805 350.598491,106.402805 C350.583389,106.402805 350.568481,106.401968 350.553811,106.400339 C349.155728,106.574934 347.856566,107.214001 346.65629,108.317559 C345.449249,109.427337 344.690145,110.855581 344.378957,112.602332 C344.376215,112.822428 344.197518,113 343.97748,113 C343.799538,113 343.648632,112.883873 343.595954,112.723039 L343.593752,112.723039 C343.59299,112.718143 343.592224,112.71325 343.591455,112.708359 C343.582968,112.67864 343.577798,112.647515 343.576374,112.615412 Z" id="Combined-Shape-Copy-47" fill="#FFFFFF"></path>
                <path d="M458.69741,31.7252944 C458.484359,30.452063 457.938098,29.4222528 457.058613,28.6358339 C456.191087,27.8601086 455.27089,27.4106688 454.297994,27.2875023 C454.294278,27.2876455 454.290543,27.2877178 454.286792,27.2877178 C454.260151,27.2877178 454.234359,27.2840736 454.209884,27.277255 C454.206007,27.276844 454.202129,27.276438 454.19825,27.2760372 L454.19825,27.2737442 C454.083191,27.2363145 454,27.1279037 454,27 C454,26.8410978 454.128401,26.7122822 454.286792,26.7122822 C454.29636,26.7122822 454.305819,26.7127523 454.315146,26.7136706 C455.290002,26.5793869 456.207733,26.1244486 457.068365,25.3488434 C457.945511,24.5583547 458.488555,23.5329464 458.697511,22.2725888 C458.698607,22.2513772 458.701992,22.2307734 458.707424,22.2110212 C458.708229,22.205868 458.709029,22.2007109 458.709823,22.1955499 L458.712153,22.1955499 C458.750452,22.0818527 458.857655,22 458.983914,22 C459.110173,22 459.217376,22.0818527 459.255675,22.1955499 L459.255892,22.1955499 C459.255964,22.1959804 459.256035,22.196411 459.256107,22.1968415 C459.264905,22.2233782 459.269956,22.2516322 459.270629,22.2809714 C459.497023,23.5460239 460.045759,24.5718989 460.916853,25.3586261 C461.777656,26.1360593 462.694113,26.5885531 463.666252,26.7161198 C463.681531,26.7135953 463.697216,26.7122822 463.713208,26.7122822 C463.871599,26.7122822 464,26.8410978 464,27 C464,27.1589022 463.871599,27.2877178 463.713208,27.2877178 C463.70242,27.2877178 463.691772,27.2871203 463.681294,27.2859565 C462.682663,27.4106671 461.75469,27.8671439 460.89735,28.6553993 C460.035178,29.4480978 459.492961,30.468272 459.270683,31.7159514 C459.268725,31.8731626 459.141084,32 458.983914,32 C458.856813,32 458.749023,31.9170518 458.711396,31.802171 L458.709823,31.802171 C458.709278,31.7986738 458.708732,31.7951784 458.708182,31.7916848 C458.70212,31.7704571 458.698427,31.7482248 458.69741,31.7252944 Z" id="Combined-Shape-Copy-42" fill="#FFFFFF"></path>
                <path d="M569.69741,9.72529444 C569.484359,8.45206305 568.938098,7.42225282 568.058613,6.63583391 C567.191087,5.86010856 566.27089,5.41066881 565.297994,5.28750235 C565.294278,5.28764555 565.290543,5.2877178 565.286792,5.2877178 C565.260151,5.2877178 565.234359,5.28407362 565.209884,5.27725505 C565.206007,5.27684396 565.202129,5.27643802 565.19825,5.27603723 L565.19825,5.27374424 C565.083191,5.23631445 565,5.12790372 565,5 C565,4.84109785 565.128401,4.7122822 565.286792,4.7122822 C565.29636,4.7122822 565.305819,4.71275226 565.315146,4.71367062 C566.290002,4.57938691 567.207733,4.12444858 568.068365,3.34884337 C568.945511,2.55835465 569.488555,1.53294635 569.697511,0.272588784 C569.698607,0.251377246 569.701992,0.230773375 569.707424,0.211021212 C569.708229,0.205867977 569.709029,0.200710862 569.709823,0.195549867 L569.712153,0.195549867 C569.750452,0.0818527239 569.857655,2.84217094e-14 569.983914,2.84217094e-14 C570.110173,2.84217094e-14 570.217376,0.0818527239 570.255675,0.195549867 L570.255892,0.195549867 C570.255964,0.195980425 570.256035,0.196410956 570.256107,0.19684146 C570.264905,0.223378234 570.269956,0.251632164 570.270629,0.280971438 C570.497023,1.54602386 571.045759,2.57189888 571.916853,3.35862608 C572.777656,4.13605931 573.694113,4.58855308 574.666252,4.71611977 C574.681531,4.71359526 574.697216,4.7122822 574.713208,4.7122822 C574.871599,4.7122822 575,4.84109785 575,5 C575,5.15890215 574.871599,5.2877178 574.713208,5.2877178 C574.70242,5.2877178 574.691772,5.28712029 574.681294,5.28595645 C573.682663,5.41066712 572.75469,5.86714386 571.89735,6.65539933 C571.035178,7.44809784 570.492961,8.46827205 570.270683,9.71595135 C570.268725,9.87316258 570.141084,10 569.983914,10 C569.856813,10 569.749023,9.91705182 569.711396,9.80217103 L569.709823,9.80217103 C569.709278,9.79867381 569.708732,9.79517841 569.708182,9.79168481 C569.70212,9.77045708 569.698427,9.74822477 569.69741,9.72529444 Z" id="Combined-Shape-Copy-46" fill="#FFFFFF"></path>
                <path d="M782.69741,38.7252944 C782.484359,37.452063 781.938098,36.4222528 781.058613,35.6358339 C780.191087,34.8601086 779.27089,34.4106688 778.297994,34.2875023 C778.294278,34.2876455 778.290543,34.2877178 778.286792,34.2877178 C778.260151,34.2877178 778.234359,34.2840736 778.209884,34.277255 C778.206007,34.276844 778.202129,34.276438 778.19825,34.2760372 L778.19825,34.2737442 C778.083191,34.2363145 778,34.1279037 778,34 C778,33.8410978 778.128401,33.7122822 778.286792,33.7122822 C778.29636,33.7122822 778.305819,33.7127523 778.315146,33.7136706 C779.290002,33.5793869 780.207733,33.1244486 781.068365,32.3488434 C781.945511,31.5583547 782.488555,30.5329464 782.697511,29.2725888 C782.698607,29.2513772 782.701992,29.2307734 782.707424,29.2110212 C782.708229,29.205868 782.709029,29.2007109 782.709823,29.1955499 L782.712153,29.1955499 C782.750452,29.0818527 782.857655,29 782.983914,29 C783.110173,29 783.217376,29.0818527 783.255675,29.1955499 L783.255892,29.1955499 C783.255964,29.1959804 783.256035,29.196411 783.256107,29.1968415 C783.264905,29.2233782 783.269956,29.2516322 783.270629,29.2809714 C783.497023,30.5460239 784.045759,31.5718989 784.916853,32.3586261 C785.777656,33.1360593 786.694113,33.5885531 787.666252,33.7161198 C787.681531,33.7135953 787.697216,33.7122822 787.713208,33.7122822 C787.871599,33.7122822 788,33.8410978 788,34 C788,34.1589022 787.871599,34.2877178 787.713208,34.2877178 C787.70242,34.2877178 787.691772,34.2871203 787.681294,34.2859565 C786.682663,34.4106671 785.75469,34.8671439 784.89735,35.6553993 C784.035178,36.4480978 783.492961,37.468272 783.270683,38.7159514 C783.268725,38.8731626 783.141084,39 782.983914,39 C782.856813,39 782.749023,38.9170518 782.711396,38.802171 L782.709823,38.802171 C782.709278,38.7986738 782.708732,38.7951784 782.708182,38.7916848 C782.70212,38.7704571 782.698427,38.7482248 782.69741,38.7252944 Z" id="Combined-Shape-Copy-43" fill="#FFFFFF"></path>
                <path d="M913.69741,31.7252944 C913.484359,30.452063 912.938098,29.4222528 912.058613,28.6358339 C911.191087,27.8601086 910.27089,27.4106688 909.297994,27.2875023 C909.294278,27.2876455 909.290543,27.2877178 909.286792,27.2877178 C909.260151,27.2877178 909.234359,27.2840736 909.209884,27.277255 C909.206007,27.276844 909.202129,27.276438 909.19825,27.2760372 L909.19825,27.2737442 C909.083191,27.2363145 909,27.1279037 909,27 C909,26.8410978 909.128401,26.7122822 909.286792,26.7122822 C909.29636,26.7122822 909.305819,26.7127523 909.315146,26.7136706 C910.290002,26.5793869 911.207733,26.1244486 912.068365,25.3488434 C912.945511,24.5583547 913.488555,23.5329464 913.697511,22.2725888 C913.698607,22.2513772 913.701992,22.2307734 913.707424,22.2110212 C913.708229,22.205868 913.709029,22.2007109 913.709823,22.1955499 L913.712153,22.1955499 C913.750452,22.0818527 913.857655,22 913.983914,22 C914.110173,22 914.217376,22.0818527 914.255675,22.1955499 L914.255892,22.1955499 C914.255964,22.1959804 914.256035,22.196411 914.256107,22.1968415 C914.264905,22.2233782 914.269956,22.2516322 914.270629,22.2809714 C914.497023,23.5460239 915.045759,24.5718989 915.916853,25.3586261 C916.777656,26.1360593 917.694113,26.5885531 918.666252,26.7161198 C918.681531,26.7135953 918.697216,26.7122822 918.713208,26.7122822 C918.871599,26.7122822 919,26.8410978 919,27 C919,27.1589022 918.871599,27.2877178 918.713208,27.2877178 C918.70242,27.2877178 918.691772,27.2871203 918.681294,27.2859565 C917.682663,27.4106671 916.75469,27.8671439 915.89735,28.6553993 C915.035178,29.4480978 914.492961,30.468272 914.270683,31.7159514 C914.268725,31.8731626 914.141084,32 913.983914,32 C913.856813,32 913.749023,31.9170518 913.711396,31.802171 L913.709823,31.802171 C913.709278,31.7986738 913.708732,31.7951784 913.708182,31.7916848 C913.70212,31.7704571 913.698427,31.7482248 913.69741,31.7252944 Z" id="Combined-Shape-Copy-44" fill="#FFFFFF"></path>
                <path d="M138.69741,122.725294 C138.484359,121.452063 137.938098,120.422253 137.058613,119.635834 C136.191087,118.860109 135.27089,118.410669 134.297994,118.287502 C134.294278,118.287646 134.290543,118.287718 134.286792,118.287718 C134.260151,118.287718 134.234359,118.284074 134.209884,118.277255 C134.206007,118.276844 134.202129,118.276438 134.19825,118.276037 L134.19825,118.273744 C134.083191,118.236314 134,118.127904 134,118 C134,117.841098 134.128401,117.712282 134.286792,117.712282 C134.29636,117.712282 134.305819,117.712752 134.315146,117.713671 C135.290002,117.579387 136.207733,117.124449 137.068365,116.348843 C137.945511,115.558355 138.488555,114.532946 138.697511,113.272589 C138.698607,113.251377 138.701992,113.230773 138.707424,113.211021 C138.708229,113.205868 138.709029,113.200711 138.709823,113.19555 L138.712153,113.19555 C138.750452,113.081853 138.857655,113 138.983914,113 C139.110173,113 139.217376,113.081853 139.255675,113.19555 L139.255892,113.19555 C139.255964,113.19598 139.256035,113.196411 139.256107,113.196841 C139.264905,113.223378 139.269956,113.251632 139.270629,113.280971 C139.497023,114.546024 140.045759,115.571899 140.916853,116.358626 C141.777656,117.136059 142.694113,117.588553 143.666252,117.71612 C143.681531,117.713595 143.697216,117.712282 143.713208,117.712282 C143.871599,117.712282 144,117.841098 144,118 C144,118.158902 143.871599,118.287718 143.713208,118.287718 C143.70242,118.287718 143.691772,118.28712 143.681294,118.285956 C142.682663,118.410667 141.75469,118.867144 140.89735,119.655399 C140.035178,120.448098 139.492961,121.468272 139.270683,122.715951 C139.268725,122.873163 139.141084,123 138.983914,123 C138.856813,123 138.749023,122.917052 138.711396,122.802171 L138.709823,122.802171 C138.709278,122.798674 138.708732,122.795178 138.708182,122.791685 C138.70212,122.770457 138.698427,122.748225 138.69741,122.725294 Z" id="Combined-Shape-Copy-45" fill="#FFFFFF"></path>
                <path d="M6.57637384,23.6154122 C6.27810216,21.8328883 5.51333769,20.3911539 4.28205864,19.2901675 C3.06752227,18.204152 1.7792454,17.5749363 0.417191822,17.4025033 C0.41198899,17.4027038 0.406760777,17.4028049 0.401509014,17.4028049 C0.36421203,17.4028049 0.328102813,17.3977031 0.293836933,17.3881571 C0.288409344,17.3875815 0.282980591,17.3870132 0.277550675,17.3864521 L0.277550675,17.3832419 C0.116467298,17.3308402 0,17.1790652 0,17 C0,16.777537 0.179761709,16.5971951 0.401509014,16.5971951 C0.414904296,16.5971951 0.428146369,16.5978532 0.44120486,16.5991389 C1.80600259,16.4111417 3.09082585,15.774228 4.29571038,14.6883807 C5.52371608,13.5816965 6.28397744,12.1461249 6.57651609,10.3816243 C6.57804954,10.3519281 6.58278886,10.3230827 6.59039348,10.2954297 C6.59152067,10.2882152 6.59264014,10.2809952 6.59375188,10.2737698 L6.59701399,10.2737698 C6.65063288,10.1145938 6.80071686,10 6.97747955,10 C7.15424225,10 7.30432623,10.1145938 7.35794511,10.2737698 L7.35824886,10.2737698 C7.358349,10.2743726 7.35844919,10.2749753 7.35854943,10.275578 C7.37086743,10.3127295 7.3779383,10.352285 7.37888036,10.39336 C7.69583229,12.1644334 8.46406286,13.6006584 9.68359383,14.7020765 C10.8887179,15.790483 12.1717588,16.4239743 13.5327526,16.6025677 C13.5541429,16.5990334 13.576103,16.5971951 13.598491,16.5971951 C13.8202383,16.5971951 14,16.777537 14,17 C14,17.222463 13.8202383,17.4028049 13.598491,17.4028049 C13.5833885,17.4028049 13.5684808,17.4019684 13.5538114,17.400339 C12.1557278,17.574934 10.8565664,18.2140014 9.65629036,19.3175591 C8.4492489,20.427337 7.6901448,21.8555809 7.37895659,23.6023319 C7.37621479,23.8224276 7.19751758,24 6.97747955,24 C6.79953796,24 6.64863213,23.8838725 6.59595407,23.7230394 L6.59375188,23.7230394 C6.59298983,23.7181433 6.59222432,23.7132498 6.59145534,23.7083587 C6.58296787,23.6786399 6.5777981,23.6475147 6.57637384,23.6154122 Z" id="Combined-Shape-Copy-41" fill="#FFFFFF"></path>
                <circle id="Oval-2-Copy-27" fill="#FFFFFF" cx="307.5" cy="71.5" r="4.5"></circle>
                <circle id="Oval-2-Copy-30" fill="#FFFFFF" cx="530.5" cy="47.5" r="4.5"></circle>
                <circle id="Oval-2-Copy-33" fill="#FFFFFF" cx="741.5" cy="67.5" r="4.5"></circle>
                <circle id="Oval-2-Copy-28" fill="#FFFFFF" cx="341.5" cy="51.5" r="4.5"></circle>
                <circle id="Oval-2-Copy-31" fill="#FFFFFF" cx="560.5" cy="56.5" r="4.5"></circle>
                <circle id="Oval-2-Copy-34" fill="#FFFFFF" cx="800.5" cy="46.5" r="4.5"></circle>
                <circle id="Oval-2-Copy-29" fill="#FFFFFF" cx="385.5" cy="76.5" r="4.5"></circle>
                <circle id="Oval-2-Copy-32" fill="#FFFFFF" cx="619.5" cy="37.5" r="4.5"></circle>
                <circle id="Oval-2-Copy-35" fill="#FFFFFF" cx="822.5" cy="70.5" r="4.5"></circle>
                <circle id="Oval-2-Copy-36" fill="#FFFFFF" cx="757.5" cy="117.5" r="4.5"></circle>
                <path d="M312,69 L341.5,51.5" id="Line" stroke="#FFFFFF" stroke-width="2" stroke-linecap="square"></path>
                <path d="M531,48 L561,56" id="Line-Copy" stroke="#FFFFFF" stroke-width="2" stroke-linecap="square"></path>
                <path d="M743,67 L800,47" id="Line-Copy-3" stroke="#FFFFFF" stroke-width="2" stroke-linecap="square"></path>
                <path d="M341.5,51.5 L385,75" id="Line" stroke="#FFFFFF" stroke-width="2" stroke-linecap="square"></path>
                <path d="M561,57 L620,38" id="Line-Copy-2" stroke="#FFFFFF" stroke-width="2" stroke-linecap="square"></path>
                <path d="M802,48 L823,71" id="Line-Copy-4" stroke="#FFFFFF" stroke-width="2" stroke-linecap="square"></path>
                <path d="M742,68 L757,114" id="Line-Copy-5" stroke="#FFFFFF" stroke-width="2" stroke-linecap="square"></path>
                <circle id="Oval-2-Copy-27" fill="#FFFFFF" cx="179" cy="83" r="3"></circle>
                <circle id="Oval-2-Copy-37" fill="#FFFFFF" cx="222" cy="25" r="3"></circle>
                <circle id="Oval-2-Copy-38" fill="#FFFFFF" cx="264" cy="73" r="3"></circle>
                <circle id="Oval-2-Copy-45" fill="#FFFFFF" cx="293" cy="32" r="3"></circle>
                <circle id="Oval-2-Copy-39" fill="#FFFFFF" cx="408" cy="7" r="3"></circle>
                <circle id="Oval-2-Copy-40" fill="#FFFFFF" cx="538" cy="131" r="3"></circle>
                <circle id="Oval-2-Copy-41" fill="#FFFFFF" cx="734" cy="17" r="3"></circle>
                <circle id="Oval-2-Copy-42" fill="#FFFFFF" cx="854" cy="42" r="3"></circle>
                <circle id="Oval-2-Copy-43" fill="#FFFFFF" cx="946" cy="60" r="3"></circle>
                <circle id="Oval-2-Copy-44" fill="#FFFFFF" cx="1042" cy="56" r="3"></circle>
                <path d="M66.9364692,109.323007 C67.8522895,109.323007 65.1764594,107.342125 67.9588569,102.249389 C70.7412543,97.1566532 67.2158144,94.4834637 64.606269,94.4834637 C61.9967235,94.4834637 59.8432828,96.5346956 60.0882779,100.848999 C60.3332731,105.163301 66.0206488,109.323007 66.9364692,109.323007 Z" id="Oval-3-Copy-2" stroke="#FFFFFF" stroke-width="2" transform="translate(64.523059, 101.903235) rotate(-249.000000) translate(-64.523059, -101.903235) "></path>
                <path d="M71.8110851,101.596472 C71.8110851,101.596472 72.1096935,107.507905 68.8462048,109.171629" id="Line-Copy-8" stroke="#FFFFFF" stroke-width="2" stroke-linecap="round" transform="translate(70.332218, 105.384050) rotate(-69.000000) translate(-70.332218, -105.384050) "></path>
                <path d="M202.320377,53.6489186 C203.236197,53.6489186 200.560367,51.6680368 203.342765,46.5753008 C206.125162,41.4825648 202.599722,38.8093753 199.990177,38.8093753 C197.380631,38.8093753 195.227191,40.8606073 195.472186,45.1749102 C195.717181,49.489213 201.404557,53.6489186 202.320377,53.6489186 Z" id="Oval-3-Copy-2" stroke="#FFFFFF" stroke-width="2" transform="translate(199.906967, 46.229147) rotate(-131.000000) translate(-199.906967, -46.229147) "></path>
                <path d="M195.585222,45.936607 C195.585222,45.936607 195.883831,51.8480403 192.620342,53.5117648" id="Line-Copy-8" stroke="#FFFFFF" stroke-width="2" stroke-linecap="round" transform="translate(194.106355, 49.724186) rotate(49.000000) translate(-194.106355, -49.724186) "></path>
                <path d="M542.002314,99.5702799 C542.918134,99.5702799 540.242304,97.589398 543.024702,92.4966621 C545.807099,87.4039261 542.281659,84.7307366 539.672114,84.7307366 C537.062568,84.7307366 534.909128,86.7819686 535.154123,91.0962714 C535.399118,95.4105743 541.086494,99.5702799 542.002314,99.5702799 Z" id="Oval-3-Copy-2" stroke="#FFFFFF" stroke-width="2" transform="translate(539.588904, 92.150508) rotate(-232.000000) translate(-539.588904, -92.150508) "></path>
                <path d="M545.605405,93.390083 C545.605405,93.390083 545.904014,99.3015163 542.640525,100.965241" id="Line-Copy-8" stroke="#FFFFFF" stroke-width="2" stroke-linecap="round" transform="translate(544.126538, 97.177662) rotate(-52.000000) translate(-544.126538, -97.177662) "></path>
                <path d="M673.440565,80.6324335 C674.356385,80.6324335 671.680555,78.6515517 674.462953,73.5588157 C677.24535,68.4660798 673.71991,65.7928902 671.110365,65.7928902 C668.500819,65.7928902 666.347379,67.8441222 666.592374,72.1584251 C666.837369,76.472728 672.524745,80.6324335 673.440565,80.6324335 Z" id="Oval-3-Copy-2" stroke="#FFFFFF" stroke-width="2" transform="translate(671.027155, 73.212662) rotate(-410.000000) translate(-671.027155, -73.212662) "></path>
                <path d="M668.146597,64.2426306 C668.146597,64.2426306 668.445206,70.1540639 665.181717,71.8177883" id="Line-Copy-8" stroke="#FFFFFF" stroke-width="2" stroke-linecap="round" transform="translate(666.667730, 68.030209) rotate(-230.000000) translate(-666.667730, -68.030209) "></path>
                <path d="M902.770544,85.4683274 C903.686365,85.4683274 901.010535,83.4874456 903.792932,78.3947096 C906.57533,73.3019737 903.04989,70.6287841 900.440344,70.6287841 C897.830799,70.6287841 895.677358,72.6800161 895.922353,76.994319 C896.167348,81.3086219 901.854724,85.4683274 902.770544,85.4683274 Z" id="Oval-3-Copy-2" stroke="#FFFFFF" stroke-width="2" transform="translate(900.357134, 78.048556) rotate(-95.000000) translate(-900.357134, -78.048556) "></path>
                <path d="M895.088876,73.6790085 C895.088876,73.6790085 895.387484,79.5904418 892.123995,81.2541663" id="Line-Copy-8" stroke="#FFFFFF" stroke-width="2" stroke-linecap="round" transform="translate(893.610008, 77.466587) rotate(85.000000) translate(-893.610008, -77.466587) "></path>
            </g>
        </g>
    </g>
</svg>
