<?xml version="1.0" encoding="UTF-8"?>
<svg width="20px" height="20px" viewBox="0 0 20 20" version="1.1" xmlns="http://www.w3.org/2000/svg" xmlns:xlink="http://www.w3.org/1999/xlink">
    <g id="icons" stroke="none" stroke-width="1" fill="none" fill-rule="evenodd">
        <g id="main" transform="translate(-663.000000, -128.000000)" fill="#FFFFFF">
            <path d="M672.39482,147.450589 C671.968717,144.904126 670.876197,142.844506 669.117227,141.271668 C667.382175,139.720217 665.541779,138.821338 663.595988,138.575005 C663.588556,138.575291 663.581087,138.575436 663.573584,138.575436 C663.520303,138.575436 663.468718,138.568147 663.419767,138.55451 C663.412013,138.553688 663.404258,138.552876 663.396501,138.552074 L663.396501,138.547488 C663.166382,138.472629 663,138.255807 663,138 C663,137.682196 663.256802,137.424564 663.573584,137.424564 C663.59272,137.424564 663.611638,137.425505 663.630293,137.427341 C665.580004,137.158774 667.415466,136.248897 669.136729,134.697687 C670.891023,133.116709 671.977111,131.065893 672.395023,128.545178 C672.397214,128.502754 672.403984,128.461547 672.414848,128.422042 C672.416458,128.411736 672.418057,128.401422 672.419646,128.3911 L672.424306,128.3911 C672.500904,128.163705 672.71531,128 672.967828,128 C673.220346,128 673.434752,128.163705 673.51135,128.3911 L673.511784,128.3911 C673.511927,128.391961 673.51207,128.392822 673.512213,128.393683 C673.529811,128.446756 673.539912,128.503264 673.541258,128.561943 C673.994046,131.092048 675.091518,133.143798 676.833705,134.717252 C678.555311,136.272119 680.388227,137.177106 682.332504,137.43224 C682.363061,137.427191 682.394433,137.424564 682.426416,137.424564 C682.743198,137.424564 683,137.682196 683,138 C683,138.317804 682.743198,138.575436 682.426416,138.575436 C682.404841,138.575436 682.383544,138.574241 682.362588,138.571913 C680.365325,138.821334 678.509381,139.734288 676.794701,141.310799 C675.070356,142.896196 673.985921,144.936544 673.541367,147.431903 C673.53745,147.746325 673.282168,148 672.967828,148 C672.713626,148 672.498046,147.834104 672.422792,147.604342 L672.419646,147.604342 C672.418557,147.597348 672.417463,147.590357 672.416365,147.58337 C672.40424,147.540914 672.396854,147.49645 672.39482,147.450589 Z" id="Combined-Shape-Copy-23"></path>
        </g>
    </g>
</svg>
