<?xml version="1.0" encoding="UTF-8"?>
<svg width="427px" height="93px" viewBox="0 0 427 93" version="1.1" xmlns="http://www.w3.org/2000/svg" xmlns:xlink="http://www.w3.org/1999/xlink">
    <g id="work" stroke="none" stroke-width="1" fill="none" fill-rule="evenodd">
        <g id="Desktop-HD-Copy-3" transform="translate(-507.000000, -174.000000)" fill-rule="nonzero" fill="#FFFFFF">
            <g id="work-tt" transform="translate(507.000000, 174.000000)">
                <path d="M64.9493851,0.772806306 C64.6555644,0.290393791 64.2205217,0 63.7542011,0 C63.4888149,0 63.2139517,0.0936451929 62.9485655,0.299851982 L62.4206366,0.772804878 C61.8699613,1.28359342 61.3088601,1.28643103 60.6046406,1.28643103 L12.136662,1.28643103 C11.4324425,1.28643103 10.8713413,1.28359342 10.3206659,0.772804878 L9.79273706,0.299851982 C9.52735096,0.0936451929 9.25248766,0 8.98710156,0 C8.52078095,0 8.08573814,0.290393791 7.79191756,0.772806306 L0.238847633,14.6199211 C0.0786681114,14.9112603 0,15.1874646 0,15.4438057 C0,15.9091912 0.260646776,16.3102557 0.774357706,16.6167297 L4.74377163,18.7421802 C5.0413828,18.9143358 5.32193414,18.9994667 5.58163365,18.9994667 C6.04226763,18.9994667 6.43845003,18.7327205 6.74459112,18.2077426 L7.04978493,17.6846567 C10.6258583,11.5523493 16.3534521,8.95394601 24.0458496,8.95394601 L28.6711454,8.95394601 L28.6711454,57.5602611 C28.6711454,62.5395089 27.1006295,66.310835 22.2753463,66.5425815 L21.7076099,66.5425815 C20.7834985,66.5425815 20.2859001,67.0391822 20.2859001,67.9614402 L20.2859001,70.810508 C20.2859001,71.732766 20.7834985,72.2293668 21.7076099,72.2293668 L50.8507626,72.2293668 C51.7748738,72.2293668 52.2724721,71.732766 52.2724721,70.810508 L52.2724721,67.9614402 C52.2724721,67.0391822 51.7748738,66.5425815 50.8507626,66.5425815 L50.212889,66.5425815 C45.3876061,66.310835 43.81709,62.5395089 43.81709,57.5602611 L43.81709,8.95394601 L48.6954502,8.95394601 C56.3878476,8.95394601 62.1154414,11.5523493 65.6915148,17.6846567 L65.9967085,18.2077426 C66.3028496,18.7327205 66.6990321,18.9994667 67.1596661,18.9994667 C67.4193655,18.9994667 67.699917,18.9143358 67.9975281,18.7421802 L71.9669419,16.6167297 C72.4929748,16.312148 72.7621515,15.91676 72.7621515,15.4561044 C72.7621515,15.1959803 72.6768496,14.9159915 72.5024536,14.6199225 L64.9493851,0.772806306 Z M94.504834,24.8990791 C93.5807228,24.8990791 93.0831244,25.3956798 93.0831244,26.3179378 L93.0831244,29.1556552 C93.0831244,30.0779134 93.5807228,30.5745139 94.504834,30.5745139 L96.1834001,30.5745139 C97.7387508,30.5745139 98.3434516,31.3359684 98.3434516,32.5788885 C98.3434516,34.2020633 97.3103433,36.6472301 96.0203785,39.284416 L89.1411992,53.3434143 L82.7946865,39.4735971 C81.6715351,37.018972 80.6990863,34.6892055 80.6990863,33.0291407 C80.6990863,31.5279885 81.495243,30.5745154 83.6969971,30.5745154 L83.8865584,30.5745154 C84.7926612,30.5641102 85.2807809,30.0684552 85.2807809,29.1556567 L85.2807809,26.3179393 C85.2807809,25.4051408 84.7926612,24.9094855 83.8865584,24.8990806 L61.9865426,24.8990806 C61.0624312,24.8990806 60.5648329,25.3956811 60.5648329,26.3179393 L60.5648329,29.1556567 C60.5648329,30.0779149 61.0624312,30.5745154 61.9865426,30.5745154 L62.2178075,30.5745154 C64.5977495,30.5745154 65.4640446,31.9063509 67.6999197,36.5384517 L81.6099268,65.3545254 L71.0162937,88.0259949 C70.6201112,88.8773099 70.8836015,89.5394441 71.7100888,89.9178065 L76.5657009,92.3771615 C77.3931355,92.7555239 78.0556527,92.4717521 78.4395145,91.7150273 L105.928745,36.4864264 C108.10017,31.7739232 109.46122,30.5745154 111.476256,30.5745154 L112.828777,30.5745154 C113.752888,30.5745154 114.250486,30.0779149 114.250486,29.1556567 L114.250486,26.3179393 C114.250486,25.3956811 113.752888,24.8990806 112.828777,24.8990806 L94.504834,24.8990791 Z M138.287806,23.8812837 C138.311501,23.6930478 138.279276,23.5975119 138.157957,23.5975119 L137.935222,23.5975119 C137.658462,23.5975119 137.300192,23.6921024 137.133378,23.786693 C132.885309,25.6359392 129.04385,27.4132954 119.74113,27.4132954 C118.784794,27.4132954 118.342168,27.8663838 118.342168,28.660944 L118.342168,31.8675641 C118.313733,32.5164555 118.519407,32.9865708 119.454892,33.0887287 C124.685836,33.6591099 125.061168,38.9041571 125.058325,43.9742128 L125.058325,74.6887203 L125.040316,76.4859414 C125.132254,81.5938325 122.797806,85.4720463 118.16398,85.4720463 C117.172574,85.4720463 116.674975,85.9449993 116.674975,86.890905 L116.674975,89.7286224 C116.674975,90.674528 117.172574,91.1474811 118.096685,91.1474811 L145.235228,91.1474811 C146.159339,91.1474811 146.656937,90.674528 146.656937,89.7286224 L146.656937,86.890905 C146.656937,85.9449993 146.159339,85.4720463 145.235228,85.4720463 C140.601402,85.4720463 138.266954,81.5938325 138.266954,76.4859414 L138.266954,68.9413972 C141.608919,71.8320852 145.790641,73.3644522 150.57422,73.3644522 C162.031305,73.3644522 172.705501,66.0724649 172.705501,48.5523976 C172.705501,30.2538505 160.250376,23.5975119 151.703058,23.5975119 C141.956764,23.5975119 138.255579,29.7808975 137.225314,32.312141 L138.287806,23.8812837 Z M138.270745,38.1767569 C138.278327,38.1767569 140.379614,31.945129 147.409494,31.945129 C155.173925,31.945129 160.512919,39.489673 160.512919,51.6114552 C160.512919,59.4397709 158.02398,67.2141708 148.855848,67.2141708 C142.553882,67.2141708 138.97307,61.3069895 138.270745,55.4300764 L138.270745,38.1767569 Z M219.641826,43.3196476 C220.255057,43.0519561 220.420922,42.6669717 220.420922,42.1306434 C220.420922,34.996622 213.457388,23.8604735 200.920752,23.8604735 C189.755591,23.8604735 178.377175,30.6000523 178.377175,48.1456593 C178.377175,61.8385909 188.079869,73.3644537 203.803977,73.3644537 C213.402413,73.3644537 219.263649,68.931939 222.806549,62.3285709 C223.082362,61.813998 223.407459,61.1821335 223.407459,60.6703983 C223.407459,60.3733839 223.296566,60.1170428 223.003694,59.9458341 C219.980191,58.1779359 219.816222,58.0994254 219.24185,58.0994254 C219.015325,58.0994254 218.633359,58.2138808 218.426737,58.5127874 C215.112259,63.300962 210.377017,65.5020852 206.371588,65.5020852 C198.99481,65.5020852 194.291795,60.5512147 192.1289,55.31941 L219.641826,43.3196476 Z M190.988689,49.4074988 C190.223808,47.1732697 190.103436,44.052726 190.103436,42.1902372 C190.103436,36.047525 193.396116,31.3520486 198.607156,31.3520486 C202.964222,31.3520486 206.220885,35.7344303 206.220885,41.7456618 L190.988689,49.4074988 Z" id="Type-Copy"></path>
                <path d="M291.001227,4.2159028 C290.707406,3.73349026 290.272363,3.44309649 289.806041,3.44309649 C289.540657,3.44309649 289.265792,3.53674168 289.000405,3.74294845 L288.472476,4.21590135 C287.921801,4.72668991 287.3607,4.7295275 286.65648,4.7295275 L238.188502,4.7295275 C237.484283,4.7295275 236.923182,4.72668991 236.372506,4.21590135 L235.844577,3.74294845 C235.579192,3.53674168 235.304328,3.44309649 235.038941,3.44309649 C234.572622,3.44309649 234.137579,3.73349026 233.843758,4.2159028 L226.290688,18.0630176 C226.130509,18.3543568 226.051841,18.6305611 226.051841,18.8869022 C226.051841,19.3522877 226.312487,19.7533522 226.826199,20.0598262 L230.795611,22.1852766 C231.093224,22.3574322 231.373775,22.4425632 231.633475,22.4425632 C232.094109,22.4425632 232.49029,22.1758169 232.796432,21.650839 L233.101626,21.1277531 C236.6777,14.9954458 242.405293,12.3970425 250.09769,12.3970425 L254.722985,12.3970425 L254.722985,61.0033575 C254.722985,65.9826054 253.152471,69.7539315 248.327188,69.9856781 L247.75945,69.9856781 C246.835339,69.9856781 246.337742,70.4822786 246.337742,71.4045366 L246.337742,74.2536045 C246.337742,75.1758627 246.835339,75.6724632 247.75945,75.6724632 L276.902604,75.6724632 C277.826714,75.6724632 278.324312,75.1758627 278.324312,74.2536045 L278.324312,71.4045366 C278.324312,70.4822786 277.826714,69.9856781 276.902604,69.9856781 L276.26473,69.9856781 C271.439447,69.7539315 269.86893,65.9826054 269.86893,61.0033575 L269.86893,12.3970425 L274.747291,12.3970425 C282.439688,12.3970425 288.167283,14.9954458 291.743355,21.1277531 L292.04855,21.650839 C292.354691,22.1758169 292.750872,22.4425632 293.211506,22.4425632 C293.471205,22.4425632 293.751757,22.3574322 294.049369,22.1852766 L298.018782,20.0598262 C298.544815,19.7552444 298.813992,19.3598565 298.813992,18.8992008 C298.813992,18.6390768 298.728689,18.359088 298.554295,18.063019 L291.001227,4.2159028 Z M305.922544,29.2540288 C296.981884,33.2258877 291.754732,42.1003764 291.754732,51.497951 C291.754732,54.948615 292.458952,58.4692765 293.943219,61.8442676 C298.120203,71.2068428 307.205874,76.8132267 316.622332,76.8132267 C319.84677,76.8132267 323.10912,76.1558225 326.227403,74.7672334 C335.160479,70.7972668 340.429334,61.9341298 340.429334,52.5450696 C340.429334,49.0868381 339.715635,45.5586094 338.206728,42.1760506 C334.028798,32.8125289 324.941228,27.2137122 315.522876,27.2137122 C312.300334,27.2137122 309.038931,27.8692242 305.922544,29.2540302 L305.922544,29.2540288 Z M308.764067,35.6247064 C310.053085,35.0524329 311.319355,34.7894713 312.551501,34.7894713 C318.38999,34.7894713 323.456016,40.6862477 326.451086,47.4012333 C328.065198,51.0202685 329.101151,54.9259128 329.101151,58.4352239 C329.101151,62.8128756 327.490828,66.5747435 323.385878,68.3984498 C322.094966,68.974506 320.825854,69.2393598 319.591809,69.2393598 C313.756164,69.2393598 308.692982,63.3331238 305.698861,56.6219226 C304.084747,53.0028875 303.048796,49.0972433 303.048796,45.587932 C303.048796,41.2102803 304.659119,37.4484124 308.764069,35.6247064 L308.764067,35.6247064 Z M360.326635,29.2540288 C351.385975,33.2258877 346.158825,42.1003764 346.158825,51.497951 C346.158825,54.948615 346.863044,58.4692765 348.347309,61.8442676 C352.524293,71.2068428 361.609965,76.8132267 371.026423,76.8132267 C374.250861,76.8132267 377.513211,76.1558225 380.631494,74.7672334 C389.56457,70.7972668 394.833425,61.9341298 394.833425,52.5450696 C394.833425,49.0868381 394.119728,45.5586094 392.610819,42.1760506 C388.432888,32.8125289 379.345319,27.2137122 369.926967,27.2137122 C366.704425,27.2137122 363.443024,27.8692242 360.326635,29.2540302 L360.326635,29.2540288 Z M363.168157,35.6247064 C364.457175,35.0524329 365.723445,34.7894713 366.955594,34.7894713 C372.794082,34.7894713 377.860107,40.6862477 380.855176,47.4012333 C382.469291,51.0202685 383.505242,54.9259128 383.505242,58.4352239 C383.505242,62.8128756 381.894919,66.5747435 377.789969,68.3984498 C376.499057,68.974506 375.229945,69.2393598 373.9959,69.2393598 C368.160254,69.2393598 363.097073,63.3331238 360.102952,56.6219226 C358.488837,53.0028875 357.452887,49.0972433 357.452887,45.587932 C357.452887,41.2102803 359.063209,37.4484124 363.168159,35.6247064 L363.168157,35.6247064 Z M418.37125,0.153236276 C418.280259,0.011350407 418.271731,0 418.150412,0 L417.927676,0.000945386225 C417.780766,0.00189077245 417.651865,0.120128995 417.504953,0.226069984 C414.958197,2.05639826 409.690289,5.6716503 399.703253,8.97948296 C398.813263,9.27365974 398.333673,9.44203084 398.333673,10.2271329 L398.333673,13.433753 C398.30524,14.0826444 398.510913,14.5527597 399.446398,14.6549177 C404.677343,15.2252988 405.049829,20.4703461 405.049829,25.5394549 L405.049829,61.0033545 C405.141766,66.1434063 402.807318,69.9970271 398.173492,69.9970271 C397.249381,69.9970271 396.751784,70.4936276 396.751784,71.4158856 L396.751784,74.253603 C396.751784,75.1758612 397.249381,75.6724617 398.173492,75.6724617 L425.339521,75.6724617 C426.263632,75.6724617 426.76123,75.1758612 426.76123,74.253603 L426.76123,71.4158856 C426.76123,70.4936276 426.263632,69.9970271 425.339521,69.9970271 C420.705695,69.9970271 418.371247,66.1434063 418.371247,61.0033545 L418.37125,0.153236276 Z" id="Tool"></path>
            </g>
        </g>
    </g>
</svg>
