<?xml version="1.0" encoding="UTF-8"?>
<svg width="130px" height="73px" viewBox="0 0 130 73" version="1.1" xmlns="http://www.w3.org/2000/svg" xmlns:xlink="http://www.w3.org/1999/xlink">
    <g id="work-icons" stroke="none" stroke-width="1" fill="none" fill-rule="evenodd">
        <g id="fold">
            <polygon id="Fill-1" fill="#949494" points="11.2394245 2.82945736e-05 22.4418972 24.2835632 48.5320722 24.2835632 37.3293151 2.82945736e-05"></polygon>
            <path d="M51.1284328,14.550035 L51.1284328,8.12708076 L30.4353468,8.12708076 L30.4353468,33.7094155 L38.9473964,33.7094155 L38.9473964,25.3887703 L50.3579455,25.3887703 L50.3579455,18.965816 L38.9473964,18.965816 L38.9473964,14.550035 L51.1284328,14.550035 Z M66.4494428,7.87162235 C58.2676021,7.87162235 52.3238434,13.309237 52.3238434,20.9000011 C52.3238434,28.5272593 58.2676021,34.0743561 66.4494428,34.0743561 C74.6312835,34.0743561 80.5750423,28.4907652 80.5750423,20.9000011 C80.5750423,13.3457311 74.6312835,7.87162235 66.4494428,7.87162235 Z M66.5595124,14.9149756 C69.4947019,14.9149756 71.8428535,17.4330656 71.8428535,20.9364952 C71.8428535,24.4399247 69.4947019,27.0310029 66.5595124,27.0310029 C63.6243229,27.0310029 61.0560321,24.4399247 61.0560321,20.9364952 C61.0560321,17.4330656 63.5876331,14.9149756 66.5595124,14.9149756 Z M91.4932681,26.6660623 L91.4932681,8.12708076 L82.9812185,8.12708076 L82.9812185,33.7094155 L102.20671,33.7094155 L102.20671,26.6660623 L91.4932681,26.6660623 Z M104.429437,8.12708076 L104.429437,33.7094155 L115.583157,33.7094155 C124.278656,33.7094155 129.892206,28.6732355 129.892206,20.9000011 C129.892206,13.1267667 124.388725,8.12708076 115.913366,8.12708076 L104.429437,8.12708076 Z M112.941486,14.6960112 L115.729916,14.6960112 C119.032004,14.6960112 121.196707,17.1776072 121.196707,20.9729892 C121.196707,24.7318772 119.215454,27.140485 116.133505,27.140485 L112.941486,27.140485 L112.941486,14.6960112 Z" id="FOLD" fill="#7B7B7B"></path>
            <polygon id="Fill-4" fill="#949494" points="0 24.2835632 11.2024726 48.567381 37.2923632 48.567381 26.0896061 24.2835632"></polygon>
            <polygon id="Fill-5" fill="#7B7B7B" points="11.202558 2.82945736e-05 8.53391685e-05 24.2835632 26.0896915 24.2835632 37.2921641 2.82945736e-05"></polygon>
            <polygon id="Fill-6" fill="#7B7B7B" points="11.202558 48.5673527 8.53391685e-05 72.8508876 26.0896915 72.8508876 37.2921641 48.5673527"></polygon>
        </g>
    </g>
</svg>
