<?xml version="1.0" encoding="UTF-8"?>
<svg width="194px" height="177px" viewBox="0 0 194 177" version="1.1" xmlns="http://www.w3.org/2000/svg" xmlns:xlink="http://www.w3.org/1999/xlink">
    <g id="work" stroke="none" stroke-width="1" fill="none" fill-rule="evenodd">
        <g id="Desktop-HD-Copy-6" transform="translate(-622.000000, -118.000000)">
            <g id="work-sb" transform="translate(624.000000, 119.000000)">
                <g id="main-site">
                    <g id="Desktop-HD-Copy-2">
                        <g id="work">
                            <g id="Group-2">
                                <g id="cold-cup">
                                    <path d="M38.7226899,53.6635517 C64.4958731,53.6650592 77.4453782,59.146311 77.4453782,59.146311 L68.5468694,141.936377 L65.9623998,146.427397 L62.6087356,168.4029 C62.6087356,168.4029 55.3166072,173.919034 38.7226904,173.921391 C22.1287709,173.919034 14.8366425,168.4029 14.8366425,168.4029 L11.4829784,146.427397 L8.8985088,141.936377 L0,59.146311 C0,59.146311 12.949505,53.6650592 38.7226883,53.6635517 L38.7226899,53.6635517 Z" id="Combined-Shape" stroke="#FFFFFF" stroke-width="3"></path>
                                    <path d="M3.62354216,91.5637429 C6.97261534,88.3973516 11.4928114,86.4556502 16.4667496,86.4556502 C26.7904064,86.4556502 35.1593837,94.8203192 35.1593837,105.138661 C35.1593837,115.457003 26.7904064,123.821672 16.4667496,123.821672 C12.8989072,123.821672 9.56452875,122.822609 6.72838213,121.089114 L3.62354216,91.5637429 Z" id="Combined-Shape-Copy" fill="#FFFFFF" fill-rule="nonzero" transform="translate(19.391463, 105.138661) rotate(-1.000000) translate(-19.391463, -105.138661) "></path>
                                    <path d="M75.7976041,58.1306002 C75.7976041,38.5994671 59.2030577,22.7663551 38.7326471,22.7663551 C18.2622367,22.7663551 1.66769014,38.5994671 1.66769014,58.1306002" id="Oval-5" stroke="#FFFFFF" stroke-width="3"></path>
                                    <path d="M38.7226891,31.7102804 L38.7226891,0.813084112" id="Line" stroke="#FFFFFF" stroke-width="3" stroke-linecap="round"></path>
                                    <path d="M3.41502772,57.6702139 C3.41502772,57.6702139 8.00433577,58.2776449 10.9885124,50.2460572 C13.9726891,42.2144696 21.8338102,43.5508178 25.540497,38.1855742 C29.247184,32.8203308 37.0362953,37.4749197 38.612462,31.4037858 C40.1886286,25.3326519 52.466476,34.8649515 55.3098516,40.4159974 C58.1532272,45.9670434 61.7730198,46.3362661 65.2327015,47.5146028 C68.6923834,48.6929396 71.4078312,56.9166818 71.4078312,56.9166818" id="Path-2" stroke="#FFFFFF" stroke-width="3"></path>
                                    <path d="M14.5684785,45.3564361 C14.5684785,45.3564361 30.3462363,48.8604794 38.3167799,44.2721917" id="Path-4" stroke="#FFFFFF" stroke-width="3" stroke-linecap="round"></path>
                                    <path d="M9.88664401,143.102804 C9.88664401,143.102804 19.9848918,147.396904 36.5101019,147.396904" id="Path-5" stroke="#FFFFFF" stroke-width="3" stroke-linecap="round"></path>
                                    <path d="M47.7854469,143.102804 C47.7854469,143.102804 55.3836993,147.396904 67.8178087,147.396904" id="Path-5-Copy" stroke="#FFFFFF" stroke-width="3" stroke-linecap="round" transform="translate(57.801628, 145.249854) scale(-1, 1) translate(-57.801628, -145.249854) "></path>
                                </g>
                                <path d="M96.4453109,69.2777778 L96.4453109,41.8244444 L114.916034,41.8244444 L114.916034,46.5031111 L101.789042,46.5031111 L101.789042,53.5791111 L112.70884,53.5791111 L112.70884,57.9097778 L101.789042,57.9097778 L101.789042,69.2777778 L96.4453109,69.2777778 Z M118.168739,69.2777778 L118.168739,49.0164444 L123.35758,49.0164444 L123.35758,69.2777778 L118.168739,69.2777778 Z M118.168739,46.1937778 L118.168739,41.0511111 L123.35758,41.0511111 L123.35758,46.1937778 L118.168739,46.1937778 Z M146.900975,69.2777778 L141.712134,69.2777778 L141.712134,57.9097778 C141.712134,56.2857697 141.428171,55.1000037 140.860235,54.3524444 C140.2923,53.6048852 139.504946,53.2311111 138.498151,53.2311111 C137.981846,53.2311111 137.452641,53.3342213 136.910521,53.5404444 C136.368401,53.7466676 135.858557,54.0366647 135.380975,54.4104444 C134.903393,54.7842242 134.470994,55.2288863 134.083765,55.7444444 C133.696536,56.2600026 133.412572,56.8271081 133.231866,57.4457778 L133.231866,69.2777778 L128.043025,69.2777778 L128.043025,49.0164444 L132.728471,49.0164444 L132.728471,52.7671111 C133.477113,51.4782158 134.561337,50.4728924 135.981176,49.7511111 C137.401016,49.0293298 139.001537,48.6684444 140.78279,48.6684444 C142.047737,48.6684444 143.080332,48.9004422 143.880605,49.3644444 C144.680878,49.8284467 145.300435,50.4342185 145.739294,51.1817778 C146.178154,51.929337 146.481478,52.7799952 146.649277,53.7337778 C146.817076,54.6875604 146.900975,55.6542174 146.900975,56.6337778 L146.900975,69.2777778 Z M159.834353,69.6644444 C158.440329,69.6644444 157.149586,69.3937805 155.962084,68.8524444 C154.774582,68.3111084 153.754895,67.5635604 152.902992,66.6097778 C152.051088,65.6559952 151.386355,64.5411176 150.908773,63.2651111 C150.431191,61.9891047 150.192403,60.6164519 150.192403,59.1471111 C150.192403,57.6777704 150.418283,56.3115618 150.87005,55.0484444 C151.321817,53.7853271 151.947828,52.6768937 152.748101,51.7231111 C153.548374,50.7693285 154.503524,50.0217805 155.61358,49.4804444 C156.723636,48.9391084 157.936935,48.6684444 159.253513,48.6684444 C160.750797,48.6684444 162.099624,49.0293298 163.300034,49.7511111 C164.500443,50.4728924 165.436232,51.413772 166.107429,52.5737778 L166.107429,41.0511111 L171.296269,41.0511111 L171.296269,63.3231111 C171.296269,63.8644472 171.38662,64.25111 171.567328,64.4831111 C171.748035,64.7151122 172.057814,64.8439998 172.496672,64.8697778 L172.496672,69.2777778 C171.593138,69.4582232 170.857415,69.5484444 170.289479,69.5484444 C169.36013,69.5484444 168.598591,69.3164467 168.00484,68.8524444 C167.411089,68.3884422 167.075496,67.7826704 166.99805,67.0351111 L166.881882,65.7591111 C166.13324,67.0480064 165.120006,68.0211079 163.842151,68.6784444 C162.564296,69.335781 161.228377,69.6644444 159.834353,69.6644444 Z M161.189647,65.2564444 C161.680138,65.2564444 162.183526,65.1726675 162.699832,65.0051111 C163.216138,64.8375547 163.693713,64.5991127 164.132571,64.2897778 C164.57143,63.9804428 164.965108,63.6195576 165.313613,63.2071111 C165.662119,62.7946646 165.926721,62.343558 166.107429,61.8537778 L166.107429,57.0204444 C165.900906,56.4533304 165.610489,55.9313357 165.236168,55.4544444 C164.861847,54.9775531 164.435901,54.5651129 163.958319,54.2171111 C163.480738,53.8691093 162.977348,53.592001 162.448134,53.3857778 C161.918921,53.1795546 161.396171,53.0764444 160.879866,53.0764444 C160.105408,53.0764444 159.389045,53.2439984 158.730756,53.5791111 C158.072467,53.9142238 157.510994,54.3717749 157.046319,54.9517778 C156.581645,55.5317807 156.220237,56.1955518 155.962084,56.9431111 C155.703931,57.6906704 155.574857,58.463996 155.574857,59.2631111 C155.574857,60.113782 155.716839,60.8999965 156.000807,61.6217778 C156.284775,62.3435591 156.671998,62.9751084 157.162487,63.5164444 C157.652977,64.0577805 158.240266,64.4831095 158.92437,64.7924444 C159.608474,65.1017794 160.363559,65.2564444 161.189647,65.2564444 Z M99.5431261,88.5466667 L106.319597,101.770667 L113.212235,88.5466667 L118.981916,88.5466667 L108.991462,106.410667 L108.991462,116 L103.686454,116 L103.686454,106.333333 L93.7347227,88.5466667 L99.5431261,88.5466667 Z M127.268571,116.386667 C125.616395,116.386667 124.13204,116.103114 122.815462,115.536 C121.498884,114.968886 120.382391,114.202005 119.46595,113.235333 C118.549508,112.268662 117.846053,111.153784 117.355563,109.890667 C116.865073,108.627549 116.619832,107.300007 116.619832,105.908 C116.619832,104.490215 116.865073,103.149784 117.355563,101.886667 C117.846053,100.623549 118.549508,99.5086715 119.46595,98.542 C120.382391,97.5753285 121.498884,96.8084473 122.815462,96.2413333 C124.13204,95.6742193 125.616395,95.3906667 127.268571,95.3906667 C128.920748,95.3906667 130.398649,95.6742193 131.702319,96.2413333 C133.00599,96.8084473 134.116029,97.5753285 135.032471,98.542 C135.948912,99.5086715 136.652367,100.623549 137.142857,101.886667 C137.633347,103.149784 137.878588,104.490215 137.878588,105.908 C137.878588,107.300007 137.633347,108.627549 137.142857,109.890667 C136.652367,111.153784 135.955366,112.268662 135.051832,113.235333 C134.148298,114.202005 133.038259,114.968886 131.721681,115.536 C130.405103,116.103114 128.920748,116.386667 127.268571,116.386667 Z M121.963563,105.908 C121.963563,106.810227 122.099091,107.628663 122.370151,108.363333 C122.641211,109.098004 123.015527,109.735997 123.493109,110.277333 C123.970691,110.818669 124.532165,111.237554 125.177546,111.534 C125.822928,111.830446 126.519929,111.978667 127.268571,111.978667 C128.017214,111.978667 128.714215,111.830446 129.359597,111.534 C130.004978,111.237554 130.566451,110.818669 131.044034,110.277333 C131.521616,109.735997 131.895931,109.091559 132.166992,108.344 C132.438052,107.596441 132.57358,106.77156 132.57358,105.869333 C132.57358,104.992885 132.438052,104.180893 132.166992,103.433333 C131.895931,102.685774 131.521616,102.041336 131.044034,101.5 C130.566451,100.958664 130.004978,100.539779 129.359597,100.243333 C128.714215,99.9468874 128.017214,99.7986667 127.268571,99.7986667 C126.519929,99.7986667 125.822928,99.9533317 125.177546,100.262667 C124.532165,100.572002 123.970691,100.997331 123.493109,101.538667 C123.015527,102.080003 122.641211,102.724441 122.370151,103.472 C122.099091,104.219559 121.963563,105.031551 121.963563,105.908 Z M147.559261,116.386667 C145.468225,116.386667 143.880611,115.716451 142.79637,114.376 C141.712129,113.035549 141.170017,111.05068 141.170017,108.421333 L141.170017,95.7386667 L146.358857,95.7386667 L146.358857,107.3 C146.358857,110.419127 147.481804,111.978667 149.727731,111.978667 C150.734526,111.978667 151.709037,111.675781 152.651294,111.07 C153.593551,110.464219 154.361543,109.542673 154.955294,108.305333 L154.955294,95.7386667 L160.144134,95.7386667 L160.144134,110.045333 C160.144134,110.586669 160.24094,110.973332 160.434555,111.205333 C160.628169,111.437334 160.944401,111.566222 161.383261,111.592 L161.383261,116 C160.866955,116.103112 160.434556,116.167555 160.08605,116.193333 C159.737544,116.219111 159.421312,116.232 159.137345,116.232 C158.207995,116.232 157.45291,116.019335 156.872067,115.594 C156.291224,115.168665 155.949177,114.582226 155.845916,113.834667 L155.729748,112.210667 C154.826214,113.602674 153.664545,114.646663 152.244706,115.342667 C150.824867,116.03867 149.263067,116.386667 147.559261,116.386667 Z M177.375731,100.224 C175.801,100.249778 174.39409,100.552664 173.154958,101.132667 C171.915825,101.71267 171.025213,102.582661 170.483092,103.742667 L170.483092,116 L165.294252,116 L165.294252,95.7386667 L170.057143,95.7386667 L170.057143,100.069333 C170.418556,99.3733298 170.844501,98.748225 171.334992,98.194 C171.825482,97.639775 172.354686,97.1564465 172.922622,96.744 C173.490558,96.3315535 174.064938,96.0157789 174.645782,95.7966667 C175.226625,95.5775544 175.788098,95.468 176.330218,95.468 L176.969143,95.468 C177.111126,95.468 177.246655,95.4808887 177.375731,95.5066667 L177.375731,100.224 Z M96.4453109,162.722222 L96.4453109,135.268889 L106.435765,135.268889 C108.681692,135.268889 110.650076,135.629774 112.340975,136.351556 C114.031874,137.073337 115.445238,138.052883 116.581109,139.290222 C117.71698,140.527562 118.568871,141.977547 119.136807,143.640222 C119.704742,145.302897 119.988706,147.075102 119.988706,148.956889 C119.988706,151.044899 119.672474,152.933103 119.04,154.621556 C118.407526,156.310008 117.497552,157.75355 116.31005,158.952222 C115.122549,160.150895 113.696277,161.078886 112.031193,161.736222 C110.366109,162.393559 108.500985,162.722222 106.435765,162.722222 L96.4453109,162.722222 Z M114.606252,148.956889 C114.606252,147.642216 114.425548,146.430672 114.064134,145.322222 C113.702721,144.213772 113.173516,143.260004 112.476504,142.460889 C111.779492,141.661774 110.921148,141.043113 109.901445,140.604889 C108.881743,140.166664 107.726527,139.947556 106.435765,139.947556 L101.789042,139.947556 L101.789042,158.043556 L106.435765,158.043556 C107.752343,158.043556 108.920465,157.811558 109.940168,157.347556 C110.959871,156.883553 111.811761,156.24556 112.495866,155.433556 C113.17997,154.621552 113.702721,153.661339 114.064134,152.552889 C114.425548,151.444439 114.606252,150.245784 114.606252,148.956889 Z M135.74884,146.946222 C134.17411,146.972 132.767199,147.274886 131.528067,147.854889 C130.288935,148.434892 129.398322,149.304883 128.856202,150.464889 L128.856202,162.722222 L123.667361,162.722222 L123.667361,142.460889 L128.430252,142.460889 L128.430252,146.791556 C128.791666,146.095552 129.217611,145.470447 129.708101,144.916222 C130.198591,144.361997 130.727795,143.878669 131.295731,143.466222 C131.863667,143.053776 132.438048,142.738001 133.018891,142.518889 C133.599734,142.299777 134.161207,142.190222 134.703328,142.190222 L135.342252,142.190222 C135.484236,142.190222 135.619764,142.203111 135.74884,142.228889 L135.74884,146.946222 Z M138.653042,162.722222 L138.653042,142.460889 L143.841882,142.460889 L143.841882,162.722222 L138.653042,162.722222 Z M138.653042,139.638222 L138.653042,134.495556 L143.841882,134.495556 L143.841882,139.638222 L138.653042,139.638222 Z M167.385277,162.722222 L162.196437,162.722222 L162.196437,151.354222 C162.196437,149.730214 161.912474,148.544448 161.344538,147.796889 C160.776602,147.04933 159.989249,146.675556 158.982454,146.675556 C158.466149,146.675556 157.936944,146.778666 157.394824,146.984889 C156.852703,147.191112 156.34286,147.481109 155.865277,147.854889 C155.387695,148.228669 154.955296,148.673331 154.568067,149.188889 C154.180838,149.704447 153.896875,150.271552 153.716168,150.890222 L153.716168,162.722222 L148.527328,162.722222 L148.527328,142.460889 L153.212773,142.460889 L153.212773,146.211556 C153.961415,144.92266 155.04564,143.917337 156.465479,143.195556 C157.885318,142.473774 159.48584,142.112889 161.267092,142.112889 C162.53204,142.112889 163.564635,142.344887 164.364908,142.808889 C165.16518,143.272891 165.784738,143.878663 166.223597,144.626222 C166.662455,145.373781 166.96578,146.22444 167.13358,147.178222 C167.30138,148.132005 167.385277,149.098662 167.385277,150.078222 L167.385277,162.722222 Z M185.778555,162.722222 L179.892706,153.944889 L177.104672,156.690222 L177.104672,162.722222 L171.915832,162.722222 L171.915832,134.495556 L177.104672,134.495556 L177.104672,151.624889 L185.236437,142.499556 L190.773782,142.499556 L183.222857,151.083556 L191.315899,162.722222 L185.778555,162.722222 Z" id="Find-Your-Drink" fill="#FFFFFF" fill-rule="nonzero"></path>
                            </g>
                        </g>
                    </g>
                </g>
            </g>
        </g>
    </g>
</svg>
