<?xml version="1.0" encoding="UTF-8"?>
<svg width="418px" height="168px" viewBox="0 0 418 168" version="1.1" xmlns="http://www.w3.org/2000/svg" xmlns:xlink="http://www.w3.org/1999/xlink">
    <g id="work" stroke="none" stroke-width="1" fill="none" fill-rule="evenodd">
        <g id="Desktop-HD-Copy-4" transform="translate(-511.000000, -122.000000)" fill-rule="nonzero">
            <g id="work-kc" transform="translate(511.000000, 122.000000)">
                <g id="main-site">
                    <g id="kind-c">
                        <path d="M279.809673,41.0940205 C278.469231,45.5399269 277.501792,49.7375906 277.655729,52.7791533 C277.655729,52.7791533 277.664018,52.9765651 277.705463,53.3181942 C276.844596,55.9732078 274.772358,60.1602325 269.943452,60.419114 C263.241242,60.7784747 268.283293,45.7089682 268.283293,45.7089682 C268.283293,45.7089682 272.102132,32.8393639 273.386919,31.0662025 C273.88544,30.379398 275.718483,28.6736169 277.516001,28.5223071 C280.024001,28.3107099 282.219389,30.0224015 282.92395,30.6394616 C281.498251,35.4317256 280.295168,39.4828079 279.809673,41.0940205 M320.526188,29.917194 C316.972596,23.7867845 312.225395,25.715984 310.15671,26.3294976 C309.56701,26.5056317 309.384653,27.399305 309.860675,27.7882184 C313.633333,30.872337 320.792619,41.538493 315.242574,51.2116787 C305.583576,68.0460717 288.995015,61.4428192 288.995015,61.4428192 C282.169656,59.0313198 284.652789,51.5154802 284.965401,50.2281653 C286.580562,43.5539862 291.331316,29.0956293 292.071401,26.7136826 C292.811486,24.3305539 296.620851,12.4621945 296.916885,10.0506952 C297.211735,7.63801379 297.662891,4.22763362 293.989701,1.80785956 C291.765894,0.342046246 290.375718,0.241567109 289.67471,0.182461733 C289.466302,0.164730121 289.349072,0.410608482 289.489984,0.565464566 C290.027582,1.15888254 291.165537,3.47108482 289.849962,7.62855693 C288.682404,11.3155502 285.696013,21.3209083 283.243667,29.566108 C282.214653,28.1558539 280.241882,26.739689 276.417123,26.3732357 C273.517174,26.0942584 270.726166,27.2385384 269.313491,28.0932021 C267.113367,29.4242553 265.285061,31.7778312 264.279729,34.5380523 C263.0802,37.8290396 259.264913,49.027144 259.294517,54.0239124 C259.305174,55.8077126 259.808432,57.1943248 260.53786,58.2865921 C259.038743,60.8505833 256.321152,63.6569065 252.68467,62.9429137 C252.611253,62.9275461 252.542574,62.9050862 252.470341,62.8873546 C250.007338,61.8920201 250.930964,58.8386364 251.231735,57.7735575 C252.56152,53.0687696 258.110381,43.4440502 255.267271,37.2214362 C253.338313,32.9977661 247.666302,32.081633 245.176064,32.3972555 C243.155928,32.6537729 239.152364,33.6171905 236.084268,37.5630653 C234.811322,32.5296515 228.754466,32.3286934 226.298568,34.0805766 C226.196732,34.1526852 226.231072,34.3087235 226.354222,34.3276371 C227.142857,34.4458478 229.113259,34.931694 229.293248,36.8360693 C229.519418,39.2227442 223.972925,48.5022882 222.7805,55.0026974 C222.387367,57.1482227 222.034494,59.4533322 222.176591,61.5444804 C220.033304,65.873358 216.717724,67.5188517 216.717724,67.5188517 C210.579163,69.6123641 210.061695,63.6190791 209.971701,62.2667482 C209.863945,60.6378039 212.675083,51.3263431 213.744358,47.8592217 C214.07118,46.7965072 214.290245,45.7030578 214.33169,44.5918765 C214.411027,42.5019105 213.977633,40.1294209 211.222149,38.3148858 C208.998341,36.8502546 207.606981,36.7497754 206.907157,36.6894878 C206.698749,36.6717564 206.58152,36.9176347 206.722432,37.0724907 C207.26003,37.6659087 208.397984,39.9792932 207.082409,44.1355832 C205.17003,50.1737884 206.029712,47.3296377 204.45718,51.829921 C202.924908,56.2143577 202.148115,60.474673 202.303236,63.5150536 C202.303236,63.5150536 202.162324,72.7283996 213.429378,71.5675699 C217.807129,71.1160049 220.877593,67.2741556 222.388551,63.0493033 C222.959304,65.7315052 224.668013,67.8439314 228.717758,68.4113428 C228.988925,68.4491705 229.206806,68.1879246 229.109707,67.9325894 C228.808936,67.1441237 228.554347,65.5600996 229.10497,63.1864278 C231.196154,54.1823148 236.913163,44.9973394 236.278466,38.6718823 C236.26544,38.5406684 236.233469,38.4283681 236.215707,38.3042468 C236.881191,37.6919151 237.685219,37.1044077 238.606477,36.7249511 C240.435967,35.9707665 243.429463,34.7862948 246.279678,37.0488486 C248.004964,38.4189112 248.390993,41.8541155 245.597616,48.4810103 C243.5088,53.4340408 243.086064,56.2994694 244.617152,60.429753 C244.617152,60.429753 247.697089,65.8792686 252.575729,65.4667131 C257.802505,65.024605 260.150647,61.9936813 261.208081,59.1507126 C261.637922,59.6211915 262.104472,60.0278364 262.587599,60.3635549 C264.780619,61.8884736 269.234154,62.2017322 271.841622,61.6154068 C274.173185,61.0929153 276.804336,59.3209361 278.357922,56.0630478 C279.604817,59.6519264 283.053021,64.9654996 292.564001,65.4891732 C321.660591,67.0897468 327.317208,41.6330615 320.526188,29.917194" id="Fill-1" fill="#C65170"></path>
                        <path d="M217.015298,27.0788361 C217.131344,29.3673961 215.36698,31.3178735 213.074493,31.4337201 C210.780822,31.5495667 208.828182,29.7882266 208.712137,27.4996664 C208.594907,25.2111061 210.359269,23.2606289 212.652942,23.1447823 C214.945429,23.0289358 216.899253,24.7902759 217.015298,27.0788361" id="Fill-4" fill="#C65170"></path>
                        <path d="M158.362556,81.1451235 C158.364925,80.9027915 158.055865,80.8082231 157.91969,81.0079992 C156.962908,82.4111607 153.412868,85.8404547 141.444806,86.283745 C130.949809,86.6714763 120.888205,80.5091498 120.026154,69.5131857 C118.68216,52.3903586 128.69995,43.2101117 144.058194,43.0989935 C144.422908,43.095447 144.662103,42.7148085 144.485667,42.3968217 C143.746766,41.0669507 141.502828,38.3291897 135.608199,38.4887741 C127.837899,38.6980072 116.699916,42.6805274 113.061066,56.7263288 C110.183616,67.8310467 115.405656,78.1082895 122.125627,82.928924 C128.845599,87.7507404 139.029168,91.6245066 150.053474,87.7507404 C157.363146,85.1820207 158.351899,82.4253461 158.362556,81.1451235" id="Fill-8" fill="#C65170"></path>
                        <path d="M336.070815,62.9738853 C349.794953,55.6850102 358.966086,49.5971566 362.301797,43.36745 C366.45693,35.6069143 364.433241,27.016539 360.159693,25.7032176 C356.729253,24.6487776 355.238424,25.8107893 354.262697,26.6465393 C354.094549,26.7907564 354.144282,27.0496379 354.345587,27.1406603 C357.998646,28.7766971 361.378169,39.8317666 350.532668,49.9718847 C350.532668,49.9718847 342.607246,56.1235721 337.227718,60.1640158 C331.848187,64.2032771 336.070815,62.9738853 336.070815,62.9738853" id="Fill-10" fill="#328EAB"></path>
                        <path d="M205.62391,17.0572832 C205.435632,17.3835449 205.002239,17.9994229 204.748833,18.3682405 C202.355695,21.8460009 190.792607,27.6666982 183.924618,32.0168538 C175.196352,37.5443885 171.860641,42.6581856 168.455066,48.6077328 C171.60842,37.702791 174.716777,27.5614905 175.260295,25.939639 C178.844675,15.2309271 179.777774,10.8193019 180.979672,9.28965482 C181.279258,8.90901618 179.983814,9.17144406 179.6937,9.27192319 C179.115842,9.47051726 178.56285,9.72112405 178.031173,10.0071941 L178.032358,10.0024656 C178.009859,10.0166509 177.990913,10.028472 177.968414,10.0426573 C177.465156,10.3180883 176.982029,10.6278005 176.517848,10.9682475 C160.118749,21.3731578 157.440233,21.0102508 150.508301,28.8452594 C144.057128,36.1388627 146.600652,40.5788584 147.732686,41.9465569 C147.90557,42.1557899 148.230023,42.0789529 148.297519,41.8177071 C150.233581,34.3810689 160.318867,29.4032141 167.864182,24.3863498 C167.661695,24.9833141 167.557491,25.3462212 167.548018,25.3722274 C167.548018,25.3722274 162.271508,39.4724058 156.109264,66.7329871 C154.798426,72.5324066 150.110431,78.7762983 143.482822,80.5612807 C142.409995,80.850897 140.035802,81.4395866 143.890165,81.7351134 C144.917995,81.8143147 146.366193,81.5116952 147.72795,81.1771588 C154.552125,79.5032946 160.846992,77.0114119 163.154873,67.8713565 C164.376901,63.02708 166.050086,56.9876927 167.764714,51.0062287 C169.20936,49.6255271 171.94353,47.6041233 176.439695,46.3877348 C183.762391,44.4088869 188.466964,49.0947609 188.596035,52.7994859 C188.894437,61.3650368 183.501881,69.4128247 184.097502,78.0942225 C184.485899,83.7647921 185.745819,89.6623265 191.518482,92.2925156 C192.225411,92.614049 192.638675,92.1920366 191.935298,91.8054873 C188.103434,89.6989717 188.411309,81.696104 190.255009,75.5786975 C192.986811,66.513115 196.077406,58.1047844 196.077406,58.1047844 C196.077406,58.1047844 199.080374,48.2625574 193.924646,44.289494 C189.799117,41.1096246 184.131842,41.1592733 180.875468,41.5883783 C187.790822,38.6567518 198.234901,33.6091526 202.946579,27.1004687 C205.414318,23.6912705 206.790284,20.5208583 206.874358,18.077442 C206.975009,15.2061029 206.746471,15.1091701 205.62391,17.0572832" id="Fill-12" fill="#C65170"></path>
                        <path d="M121.705851,94.5285903 C133.20618,94.8985899 139.573279,94.7141811 143.097267,94.3914658 C143.778146,94.328814 143.753279,93.3275691 143.070032,93.3003805 C133.158814,92.9031923 108.599834,90.3959423 91.5032788,75.7780009 C70.4943382,57.8146952 75.8620266,36.9776861 82.5216074,33.6323219 C82.8886896,33.447913 82.9573693,32.9608849 82.6341002,32.7079138 C80.7513241,31.2326437 77.8809785,29.1958724 71.5896641,31.4395124 C63.7494998,34.2340147 60.6991655,50.3780568 69.0686386,64.4675962 C75.7886102,75.7780009 95.6678849,93.6904759 121.705851,94.5285903" id="Fill-17" fill="#C65170"></path>
                        <path d="M342.265978,80.7984115 C342.382023,83.0869717 340.617662,85.0374491 338.325175,85.1532955 C336.031502,85.2691421 334.078863,83.507802 333.962818,81.2192417 C333.845588,78.9306817 335.609951,76.9802043 337.903622,76.8643577 C340.196109,76.7485111 342.149933,78.5098515 342.265978,80.7984115" id="Fill-6" fill="#408EAD"></path>
                        <path d="M373.711065,107.877185 C373.076368,109.431656 372.202476,110.870281 371.100045,112.1375 C368.779137,114.806699 364.277054,118.851871 359.190004,117.478262 C351.783234,115.476954 354.409647,107.396067 354.409647,107.396067 C354.409647,107.396067 356.938963,97.1897507 362.159819,91.6764013 C364.687948,96.8067479 370.939002,97.9321141 370.939002,97.9321141 C370.939002,97.9321141 373.197149,98.4167783 376.188277,97.9001973 C375.904085,101.869714 374.626401,105.634727 373.711065,107.877185 M370.944923,87.5331145 C373.612781,87.4952869 375.932503,89.63963 376.181173,92.2910971 C376.249853,93.0204575 376.288929,93.9448656 376.287744,95.048954 C375.919478,95.1045129 375.618708,95.1352477 375.423325,95.1458868 C374.329185,95.2014459 369.277659,95.2239058 367.939586,91.9861134 C367.490799,90.9009388 367.345149,89.3878411 367.342781,88.2861169 C368.734142,87.7636253 369.93367,87.5472996 370.944923,87.5331145 M222.627155,109.145586 C221.426442,108.549804 217.634837,106.998879 217.015535,105.581532 C215.496288,102.103772 219.600503,100.674604 221.625376,102.504506 C221.625376,102.504506 223.775767,104.775334 222.627155,109.145586 M168.293076,119.17104 C167.093546,118.575258 163.301943,117.024333 162.68264,115.606986 C161.162209,112.129225 165.266424,110.700057 167.291297,112.52996 C167.291297,112.52996 169.442872,114.800788 168.293076,119.17104 M112.600793,146.782707 C106.369869,161.379371 96.7357388,158.119118 96.7357388,158.119118 C89.3289682,156.118992 91.9541977,148.036923 91.9541977,148.036923 C91.9541977,148.036923 94.7759937,136.668595 100.604311,131.447226 C101.280453,137.780958 108.876685,139.018625 108.876685,139.018625 C108.876685,139.018625 111.295875,139.535206 114.439756,138.925238 C114.341472,141.127505 113.866634,143.816799 112.600793,146.782707 M108.196991,128.592437 C110.17805,128.592437 112.816305,130.200103 113.725722,132.933135 C113.725722,132.933135 114.167405,134.105786 114.365155,136.097637 C113.892685,136.181567 113.530339,136.224123 113.359824,136.232397 C112.266866,136.287956 107.215342,136.310417 105.876084,133.072624 C105.357433,131.817226 105.242572,129.984959 105.286385,128.886781 C106.38171,128.61135 107.307705,128.593619 108.196991,128.592437 M106.746424,106.508304 C111.949518,110.54993 110.247914,118.030306 93.9021014,119.823563 C83.5681467,120.958386 75.8002147,116.830467 71.4816709,113.638777 C86.2064018,101.666392 103.549257,104.025878 106.746424,106.508304 M417.178329,105.577986 C416.405088,108.157344 413.14516,113.728617 408.187185,112.75456 C408.113767,112.740375 408.045088,112.717915 407.972855,112.700183 C406.916607,112.315998 406.1706,110.496735 406.47137,109.431656 C407.79997,104.725686 414.452447,91.5794683 411.609336,85.3568545 C409.679196,81.1331844 404.008368,80.2170511 401.51813,80.5326738 C399.406815,80.8010122 395.134453,81.8530879 392.022544,86.2611666 C390.193054,82.3318413 384.898781,82.2810107 382.640634,83.8934053 C382.538799,83.9655138 382.573137,84.1215522 382.696288,84.1404658 C383.423347,84.2492198 385.136792,84.6854173 385.544135,86.242253 C385.457693,87.5685776 384.670243,90.5545812 382.950878,92.256816 C381.535835,93.6587955 379.220848,94.4366222 377.480169,94.8243535 C377.476618,94.5619257 377.470697,94.4082517 377.470697,94.4082517 C377.470697,94.4082517 377.04204,90.8311943 376.419185,89.8725051 C376.419185,89.8725051 373.815268,83.8591242 363.1166,86.5318694 C352.417932,89.2046144 348.187013,106.072107 348.187013,106.072107 C348.187013,106.072107 347.039586,110.507374 347.714544,114.610469 C345.598492,118.17807 342.807485,119.561135 342.807485,119.561135 C336.670108,121.654648 336.151456,115.662545 336.062645,114.309032 C335.954889,112.680087 338.766027,103.368627 339.835302,99.9015053 C340.162124,98.8387905 340.380004,97.7453411 340.422634,96.6353422 C340.50197,94.544194 340.067392,92.1717042 337.311909,90.3571692 C335.089286,88.892538 333.697925,88.7920589 332.998101,88.7329536 C332.78851,88.7152219 332.672465,88.9599183 332.813376,89.1159564 C333.34979,89.7081923 334.487744,92.0215765 333.172169,96.1778665 C331.260975,102.216072 332.119474,99.371921 330.546941,103.873386 C329.014668,108.256641 328.239058,112.516957 328.392997,115.558519 C328.392997,115.558519 328.391812,116.289062 328.621535,117.300946 C328.589564,117.382511 328.55404,117.475897 328.517331,117.58938 C327.940656,119.380273 326.76481,120.717236 325.793819,121.575447 C324.79204,122.460845 323.542776,123.058991 322.20707,123.118097 C317.967864,123.308416 316.970821,117.889635 317.133047,116.57395 C318.509013,105.36166 322.329036,98.0042226 324.323121,92.6173589 C327.121234,85.0577813 328.857178,80.0350066 329.96316,75.8751702 C341.590191,70.8145679 356.227297,63.5611561 363.329744,60.9486986 C369.201875,58.7889882 380.548266,58.6128543 385.576108,60.9486986 C388.439347,62.2797516 389.630589,64.5186634 390.124374,66.1972559 C390.316203,66.8474152 391.231541,66.8485971 391.422187,66.1984381 C391.981099,64.2928809 392.270027,61.3577078 390.473693,58.193206 C387.380731,52.7425083 374.676135,47.3804687 356.470045,54.9790557 C342.481846,60.8163026 340.038975,63.3448305 331.555823,67.3226223 C331.604374,66.8521436 331.648187,66.3769363 331.687264,65.8922722 C331.88383,63.470134 332.434453,60.0692107 328.761264,57.6494366 C326.537456,56.1848054 323.466991,56.0843261 322.767167,56.0240388 C322.557575,56.0063072 322.437977,56.2545496 322.581257,56.4070417 C324.062611,57.9839729 324.215365,58.236944 324.272203,62.5953743 C324.300623,64.7952765 323.895647,67.6583408 323.219507,70.8736733 C321.08451,71.7129696 318.671241,72.6231923 315.873126,73.6327122 C298.036487,80.0621949 289.067841,73.6362585 285.822124,70.234153 C285.387546,69.7790417 284.617857,70.1927793 284.774164,70.8015647 C287.680033,82.1474325 302.610803,83.3342686 315.873126,81.0090631 C317.194623,80.7773699 318.96609,80.2406931 321.048986,79.490055 C317.945365,90.4032715 313.515512,102.324826 312.061392,106.997697 C310.712663,111.330121 309.753512,115.642449 309.907449,118.682829 C309.907449,118.682829 309.905081,118.75612 309.907449,118.882606 C307.320112,124.049598 303.201688,128.437581 295.8186,127.929274 C288.714968,127.439882 293.953586,113.14702 293.953586,113.14702 C293.953586,113.14702 297.511914,101.237287 299.316537,98.9936467 C299.847031,98.3328485 301.648101,96.6022433 303.444435,96.4497514 C305.150776,96.3067163 308.106379,96.3173554 308.105196,102.003292 C308.105196,102.395752 308.471092,102.738563 308.706735,101.586008 C310.321898,93.7025335 302.486469,93.3585403 302.486469,93.3585403 C298.085036,93.4188276 296.759988,94.39052 295.34613,95.2451837 C293.146004,96.5762369 291.514266,98.4936153 289.950022,101.976104 C288.513665,105.17134 284.935207,116.465196 284.96481,121.461964 C284.970731,122.307171 285.072566,123.073177 285.243081,123.77062 C284.80732,125.783749 283.756991,127.322853 282.8606,128.158603 C281.977234,128.983714 280.900855,129.588953 279.722641,129.866748 C274.738611,131.04531 274.723218,127.165633 274.641512,125.939787 C274.533756,124.309661 276.880713,115.222801 277.948803,111.755679 C278.27681,110.692965 278.601264,109.710633 278.887823,108.152616 C279.265564,106.094566 279.414765,103.717348 276.660465,101.902813 C274.436656,100.437 272.276792,100.421633 271.576968,100.362527 C271.368559,100.344796 271.251331,100.590674 271.392243,100.74553 C271.929841,101.338948 273.067796,103.65115 271.752221,107.808622 C269.839841,113.846828 270.699523,111.002677 269.125808,115.50296 C267.59472,119.887397 266.817925,124.147712 266.973047,127.188093 C266.973047,127.188093 266.982521,128.067581 267.336577,129.195311 C266.497024,130.165822 265.418277,131.14106 264.145331,131.693105 C262.331234,132.48157 259.248929,132.479206 257.311681,131.326651 C255.373252,130.174096 254.884203,126.043813 256.327665,120.690048 C257.727313,115.499414 261.930997,107.387792 260.531347,104.469169 C259.237088,101.770417 256.380952,101.507989 254.686453,101.197095 C254.371474,101.139172 254.103857,101.428788 254.20451,101.73259 C254.42239,102.387477 254.922097,103.941949 254.167801,106.617058 C253.187336,110.092454 249.669268,117.371872 248.824979,124.206818 C248.821426,124.229278 248.814322,124.244645 248.810769,124.269469 C248.526577,126.113557 248.631966,127.106528 246.42,130.409336 C244.337103,133.519461 238.388004,137.746677 234.398652,135.341088 C230.408112,132.936682 240.277887,114.372865 240.383275,112.800662 C240.487478,111.228459 239.227557,111.5429 239.227557,111.5429 C233.453711,114.478073 228.071812,111.375041 228.071812,111.375041 L228.667433,109.386736 C229.538957,106.46693 228.39153,103.419457 225.229887,101.337766 L223.47618,100.492559 C223.47618,100.492559 218.204408,98.6815702 214.937376,102.61326 C212.532397,105.507059 212.747909,108.249548 213.884679,110.828907 C214.800015,112.90587 217.861009,114.844526 220.30388,115.505324 C218.482679,121.612092 217.645496,123.112186 215.136311,129.568857 C215.136311,129.568857 214.824882,130.375055 214.267155,131.6009 C214.378465,131.24154 214.353598,131.250996 214.178345,131.794766 C213.97941,132.226235 213.754424,132.702624 213.502203,133.213295 C212.171234,135.594059 209.448907,139.373257 208.666192,140.06479 C207.664413,140.949006 205.110232,142.343893 203.774526,142.404181 C199.53532,142.5945 198.98588,138.036294 199.144555,136.720608 C199.473744,133.982847 201.067591,129.681158 206.895909,111.729673 C207.28549,110.531016 208.33345,106.756547 209.454826,101.591919 C219.772203,98.062146 231.233456,91.6586697 241.958176,88.0650628 C257.286815,82.9288057 268.441376,80.5444948 274.820318,81.2525773 C279.964203,81.8223531 282.62851,84.8509126 283.805541,86.7292812 C284.054209,87.1241053 284.666408,86.9586102 284.673512,86.4928598 C284.707853,83.9974308 284.029343,79.6543679 277.639744,77.0596418 C269.568674,73.7828399 249.936882,77.1991306 235.098476,82.6498282 C226.858074,85.6760236 218.665036,89.6029848 211.206164,92.4057615 C211.675081,89.5557004 212.097819,86.5578758 212.415167,83.5009458 C212.667388,81.0835358 212.270702,76.9816228 209.489167,75.2581099 C207.225099,73.8561306 205.034447,73.6929997 204.334623,73.6327122 C204.125031,73.6149805 204.008985,73.860859 204.149898,74.015715 C204.686311,74.609133 205.843212,77.4249132 205.280747,81.7478802 C204.754991,85.7753204 204.274232,89.4954129 203.011943,95.0016697 C200.171201,95.688474 197.498606,96.0561095 195.06047,95.9260778 C186.854407,95.4886979 183.779206,89.332282 182.828345,86.6642654 C182.676776,86.2387068 182.076419,86.2162467 181.901167,86.6311663 C180.932543,88.9398223 180.875705,90.8075523 181.024906,92.8868792 C181.182396,95.1104235 184.106028,104.101533 196.946798,104.101533 C198.172379,104.101533 199.444141,103.975048 200.737218,103.790639 C199.132713,109.455298 196.880487,116.655515 193.628849,126.283781 C192.143943,130.683585 191.320968,134.927351 191.474906,137.968913 C191.474906,137.968913 191.459512,138.389744 191.542402,139.037539 C190.88639,140.065972 189.982895,141.190156 188.719421,142.066098 C189.034402,140.323672 188.884016,138.97134 188.884016,138.97134 C187.57081,128.575887 173.738917,121.400495 173.738917,121.400495 L174.334538,119.41219 C175.206062,116.492384 174.05745,113.444911 170.896991,111.36322 L169.142101,110.518013 C169.142101,110.518013 163.870328,108.707024 160.603297,112.638714 C158.199501,115.532513 158.171081,118.395577 159.5506,120.854361 C160.362917,122.30126 164.149784,124.684389 165.568379,125.54851 C164.227937,131.667098 163.311416,133.13764 160.802232,139.594311 C160.802232,139.594311 159.672566,142.524756 157.845444,145.737724 C157.767291,145.703443 157.66664,145.721174 157.634668,145.826382 C157.56954,146.045072 157.471257,146.299225 157.359949,146.565199 C155.452305,149.747432 152.91115,152.982861 150.143824,153.763052 C150.136719,153.764234 150.130798,153.765416 150.123693,153.766598 C149.946073,153.816247 149.766084,153.856438 149.58728,153.884809 C149.008237,153.966374 148.412617,153.960464 147.803971,153.841071 C147.730555,153.826886 147.661875,153.804426 147.589642,153.786694 C146.534577,153.403691 145.788572,151.583245 146.088158,150.518167 C147.417943,145.813379 154.069235,132.665979 151.227308,126.443365 C149.297167,122.219695 143.625155,121.303562 141.134917,121.619184 C139.114781,121.875702 135.111218,122.840302 132.043121,126.784994 C130.770175,121.75158 124.71332,121.550622 122.257421,123.302505 C122.15677,123.374614 122.189926,123.530652 122.313076,123.549566 C123.10171,123.667777 125.072113,124.153623 125.252101,126.057998 C125.305388,126.611224 125.038957,127.545089 124.597274,128.71774 C122.631609,133.028886 118.707382,134.916712 116.025314,135.703995 C115.6606,131.24745 113.963733,129.675247 113.963733,129.675247 C113.963733,129.675247 110.926424,124.540172 100.66115,127.172725 C89.9802431,129.912851 85.7315632,146.714145 85.7315632,146.714145 C85.7315632,146.714145 85.3526397,148.189415 85.1572573,150.214365 L85.0400278,150.429509 C81.3467077,161.316719 68.5805377,164.425661 59.926872,161.757645 C51.2732063,159.088446 50.0298634,139.970221 63.888991,121.562443 C65.1477275,119.890943 66.4621185,118.38612 67.808481,117.007783 C74.0311156,121.304744 81.5740618,123.92193 93.1300447,122.547139 C116.377002,119.779825 113.719801,108.71057 111.949518,105.969263 C108.809189,101.102527 97.7979088,95.587995 79.8487756,100.957127 C74.3887246,102.5908 69.6723111,105.020031 65.6071722,107.910284 C45.2435858,84.636951 35.1215914,82.9595405 26.6171269,82.0906915 C12.9332516,80.6934404 -4.16448781,89.4256685 0.915455524,106.826291 C3.19018074,114.617562 12.3376312,117.727686 18.7852516,117.583469 C19.5952006,117.565738 19.3086397,116.559764 18.5318465,116.329253 C6.98296826,112.90587 6.14341587,102.21489 12.8633875,95.0879634 C25.5608776,81.6190306 44.2050986,96.2878027 49.0292686,100.207671 C53.5124074,103.852109 57.2507246,107.871274 61.1323223,111.505073 C54.3815632,117.588198 49.8806623,124.897169 47.14294,131.265182 C41.3738296,144.68092 41.3383054,166.391506 60.5674896,167.305275 C76.3508379,168.055914 82.2158634,159.796528 85.0483167,152.93203 C85.1039711,155.408545 85.6273591,158.094294 87.3052799,159.907647 C90.1472063,162.981126 95.9222375,162.593395 98.9571779,161.992884 C98.9571779,161.992884 111.188119,160.42541 114.863677,146.079353 C115.633365,143.075618 115.976764,140.586099 116.067943,138.516229 C116.817501,138.284536 117.587189,137.989009 118.361614,137.596549 C119.797971,136.870736 121.015263,135.857669 122.025331,134.750035 C120.66239,137.890894 119.269846,141.332009 118.739354,144.224626 C117.711523,149.834909 116.931178,156.546915 124.676611,157.633272 C124.947779,157.672281 125.16566,157.409853 125.06856,157.1557 C124.76779,156.366053 124.513201,154.782028 125.065008,152.409539 C127.155008,143.404244 132.872016,134.219268 132.23732,127.893811 C132.224294,127.763779 132.193507,127.650297 132.17456,127.526176 C132.840045,126.913844 133.644073,126.326337 134.565331,125.94688 C136.394821,125.192695 139.388317,124.008224 142.238532,126.270777 C143.963818,127.64084 143.541081,131.246268 140.747705,137.873163 C138.660073,142.826193 137.524487,147.217723 139.055574,151.348006 C139.055574,151.348006 141.272277,156.691132 147.695031,156.366053 C149.908181,156.253752 151.670175,155.552763 153.075744,154.553882 L153.086402,154.556246 C159.969784,151.345642 165.49141,139.970221 165.49141,139.970221 C167.417999,136.086998 168.979875,131.982721 170.629376,128.691734 C178.933722,133.53601 184.236283,136.613036 183.706974,141.638175 C183.161087,146.813442 176.75728,146.781525 173.607478,141.547153 C172.267036,139.320062 172.347558,136.174474 172.820028,134.707479 C173.292498,133.239301 169.879818,134.393038 170.015994,139.476101 C170.153354,144.559163 173.711682,150.708486 181.016617,149.534653 C183.638294,149.113823 185.382526,148.020374 186.560742,146.696413 C186.622317,146.749608 186.663761,146.781525 186.663761,146.781525 C186.663761,146.781525 189.92724,144.186799 191.946192,140.79415 C192.830742,143.420793 195.363609,146.816988 202.601048,146.020248 C202.859189,145.991877 203.112594,145.948139 203.362447,145.889034 C210.065841,144.66437 215.064079,138.019744 217.599313,134.078597 C218.232826,133.09272 220.05758,129.483746 220.569126,128.429306 C222.288492,124.885347 224.099036,120.84845 225.473819,116.854109 L230.198521,117.867175 C228.414027,122.862761 228.414027,122.862761 227.143449,129.39627 C225.874056,135.93096 228.9386,142.113382 237.863433,140.156994 C244.946934,138.603705 247.633738,133.55256 248.905501,129.935311 C248.978918,130.331317 249.052334,130.729687 249.161275,131.111508 C250.436589,135.576328 254.180826,136.722972 258.32767,136.274953 C260.467404,136.04326 264.07902,135.929778 267.574589,129.854927 C268.564526,132.247513 271.180282,135.157862 278.099189,133.563199 C283.170844,132.394094 284.913891,129.030999 285.81502,125.366465 C286.365643,126.493014 287.138882,127.35477 288.013959,127.963555 C290.208164,129.488474 291.723857,130.934192 297.604277,130.132723 C302.405948,129.479017 306.032957,127.991926 310.064941,120.311773 C310.563462,122.920685 312.619121,127.660936 321.033591,126.735346 C326.513774,126.132471 328.494832,120.675863 328.876124,118.199347 C329.758304,120.823626 332.279331,124.355763 339.519137,123.609853 C343.530991,123.197298 346.446334,119.937045 348.0686,116.143662 C348.419103,117.305674 348.949598,118.390849 349.760731,119.26679 C353.668379,123.494007 363.454079,120.621486 363.454079,120.621486 C363.454079,120.621486 369.261081,118.605992 373.587914,111.668203 C376.397869,107.160827 377.191241,101.240833 377.405568,97.6354052 C378.376559,97.3859806 379.396101,97.0301661 380.425115,96.5100387 C381.21967,96.1081223 381.895812,95.6482825 382.486697,95.15889 C381.098889,98.349398 379.663715,101.866168 379.122566,104.814344 C378.093553,110.424626 377.313207,117.136633 385.058641,118.224172 C385.329808,118.261999 385.548871,118.000753 385.451774,117.745418 C385.149819,116.956952 384.896413,115.372928 385.447036,112.999256 C387.538221,103.993962 393.25523,94.8101683 392.620532,88.4835288 C392.555404,87.8416444 392.410941,87.2777793 392.222663,86.7588339 C392.944986,86.0365663 393.866243,85.3048418 394.948544,84.8591873 C396.776848,84.1061846 399.770345,82.9217131 402.620559,85.1842667 C404.347031,86.5543293 403.924293,90.1597573 401.130918,96.7866519 C399.042101,101.739682 397.907699,106.131212 399.438787,110.260313 C399.438787,110.260313 401.655489,115.604621 408.078243,115.27836 C415.550142,114.900085 417.142803,108.748398 417.482652,105.643001 C417.502781,105.453864 417.232799,105.395941 417.178329,105.577986" id="Fill-14" fill="#408EAD"></path>
                    </g>
                </g>
            </g>
        </g>
    </g>
</svg>
