<?xml version="1.0" encoding="UTF-8"?>
<svg width="229px" height="130px" viewBox="0 0 229 130" version="1.1" xmlns="http://www.w3.org/2000/svg" xmlns:xlink="http://www.w3.org/1999/xlink">
    <g id="work" stroke="none" stroke-width="1" fill="none" fill-rule="evenodd">
        <g id="Desktop-HD-Copy-7" transform="translate(-605.000000, -176.000000)">
            <g id="Fold" transform="translate(605.000000, 176.000000)">
                <polygon id="Fill-1" fill="#84E0FF" points="19.75545 0.520496283 39.44595 43.5920204 85.30445 43.5920204 65.61345 0.520496283"></polygon>
                <path d="M89.868053,26.211961 L89.868053,14.861809 L53.495975,14.861809 L53.495975,60.0689485 L68.457539,60.0689485 L68.457539,45.3653425 L88.5137735,45.3653425 L88.5137735,34.0151905 L68.457539,34.0151905 L68.457539,26.211961 L89.868053,26.211961 Z M116.797675,14.4103825 C131.178833,14.4103825 141.626132,24.0838075 141.626132,37.433134 C141.626132,50.84695 131.178833,60.7138435 116.797675,60.7138435 C102.416516,60.7138435 91.969217,50.9114395 91.969217,37.433134 C91.969217,24.019318 102.416516,14.4103825 116.797675,14.4103825 Z M116.991143,26.856856 C111.767494,26.856856 107.317718,31.3066315 107.317718,37.4976235 C107.317718,43.6886155 111.831983,48.26737 116.991143,48.26737 C122.150303,48.26737 126.277631,43.6886155 126.277631,37.4976235 C126.277631,31.3066315 122.150303,26.856856 116.991143,26.856856 Z M160.817014,47.622475 L160.817014,14.861809 L145.85545,14.861809 L145.85545,60.0689485 L179.647948,60.0689485 L179.647948,47.622475 L160.817014,47.622475 Z M183.554818,14.861809 L203.740031,14.861809 C218.637106,14.861809 228.310531,23.6968705 228.310531,37.433134 C228.310531,51.1693975 218.443637,60.0689485 203.159626,60.0689485 L183.554818,60.0689485 L183.554818,14.861809 Z M198.516382,26.469919 L198.516382,48.4608385 L204.126968,48.4608385 C209.544086,48.4608385 213.026519,44.2045315 213.026519,37.562113 C213.026519,30.855205 209.221639,26.469919 203.417584,26.469919 L198.516382,26.469919 Z" id="FOLD" fill="#FFFFFF"></path>
                <polygon id="Fill-4" fill="#84E0FF" points="0 43.5920204 19.6905 86.6640465 65.5485 86.6640465 45.8575 43.5920204"></polygon>
                <polygon id="Fill-5" fill="#66D7FB" points="19.69065 0.520496283 0.00015 43.5920204 45.85765 43.5920204 65.54815 0.520496283"></polygon>
                <polygon id="Fill-6" fill="#66D7FB" points="19.69065 86.6639963 0.00015 129.73552 45.85765 129.73552 65.54815 86.6639963"></polygon>
            </g>
        </g>
    </g>
</svg>
