<?xml version="1.0" encoding="UTF-8"?>
<svg width="200px" height="81px" viewBox="0 0 200 81" version="1.1" xmlns="http://www.w3.org/2000/svg" xmlns:xlink="http://www.w3.org/1999/xlink">
    <defs>
        <polygon id="path-1" points="58.2829474 0.329745042 0.469211828 0.329745042 0.469211828 34.5925615 58.2829474 34.5925615 58.2829474 0.329745042"></polygon>
    </defs>
    <g id="main-site" stroke="none" stroke-width="1" fill="none" fill-rule="evenodd">
        <g id="kind-c">
            <g id="Group-3" transform="translate(96.317280, 0.236827)">
                <mask id="mask-2" fill="white">
                    <use xlink:href="#path-1"></use>
                </mask>
                <g id="Clip-2"></g>
                <path d="M37.5629462,19.9384136 C36.9215864,22.0692918 36.4586969,24.0811898 36.5323513,25.5389802 C36.5323513,25.5389802 36.5363173,25.6335977 36.5561473,25.7973371 C36.1442493,27.0698584 35.1527479,29.0766572 32.8422663,29.2007365 C29.6354674,29.3729745 32.047932,22.1503116 32.047932,22.1503116 C32.047932,22.1503116 33.8751275,15.9820397 34.4898584,15.1321813 C34.7283853,14.8030028 35.6054391,13.9854391 36.4654958,13.9129178 C37.6654958,13.8115014 38.7159207,14.631898 39.0530312,14.9276487 C38.3708782,17.2245326 37.7952408,19.1661756 37.5629462,19.9384136 M57.0445326,14.5814731 C55.3442493,11.6432295 53.0728612,12.5678754 52.0830595,12.8619263 C51.8009065,12.9463456 51.7136544,13.3746742 51.9414164,13.5610765 C53.7465156,15.0392635 57.1720113,20.1514448 54.5164873,24.7877054 C49.8949575,32.8562606 41.957847,29.6913881 41.957847,29.6913881 C38.6921246,28.5355807 39.8802266,24.9333144 40.0298017,24.3163173 C40.8026062,21.1174504 43.0756941,14.1877054 43.4298017,13.0460623 C43.7839093,11.9038527 45.6065722,6.21546742 45.7482153,5.05966006 C45.8892918,3.90328612 46.1051558,2.26872521 44.3476487,1.10895184 C43.2836261,0.406402266 42.6184703,0.358243626 42.2830595,0.329915014 C42.1833428,0.321416431 42.1272521,0.439263456 42.1946742,0.513484419 C42.451898,0.797903683 42.9963739,1.90611898 42.3669122,3.89875354 C41.808272,5.66589235 40.3793768,10.4613598 39.2060057,14.4132011 C38.7136544,13.7372805 37.769745,13.0585269 35.9397167,12.8828895 C34.5521813,12.7491785 33.2167705,13.2976204 32.5408499,13.7072521 C31.4881586,14.3452125 30.6133711,15.4732578 30.1323513,16.796204 C29.5584136,18.3735411 27.7329178,23.7406799 27.7470822,26.1355807 C27.7521813,26.9905382 27.9929745,27.6551275 28.341983,28.1786402 C27.6247025,29.4075354 26.3244193,30.7525779 24.5844759,30.4103683 C24.5493484,30.4030028 24.5164873,30.392238 24.4819263,30.3837394 C23.3034561,29.9066856 23.7453824,28.4432295 23.8892918,27.9327479 C24.5255524,25.6777904 27.1805099,21.0647592 25.82017,18.0823229 C24.8972238,16.0579603 22.1833428,15.6188669 20.9918414,15.7701416 C20.0252691,15.8930878 18.1096884,16.3548442 16.6416997,18.2460623 C16.0326346,15.8335977 13.1346176,15.7372805 11.9595467,16.5769405 C11.9108215,16.6115014 11.9272521,16.686289 11.9861756,16.6953541 C12.3635127,16.7520113 13.306289,16.9848725 13.3924079,17.8976204 C13.5006232,19.0415297 10.8467989,23.4891218 10.2762606,26.6047025 C10.0881586,27.6330312 9.91932011,28.737847 9.98730878,29.7401133 C8.96181303,31.8149008 7.37541076,32.6035694 7.37541076,32.6035694 C4.43830028,33.6069688 4.19070822,30.7344476 4.14764873,30.086289 C4.09609065,29.3055524 5.44113314,24.8426629 5.95274788,23.1809065 C6.10912181,22.6715581 6.21393768,22.1474788 6.23376771,21.6149008 C6.27172805,20.6132011 6.06436261,19.4760907 4.74594901,18.6064023 C3.68192635,17.9044193 3.01620397,17.8562606 2.68135977,17.8273654 C2.58164306,17.8188669 2.52555241,17.9367139 2.5929745,18.0109348 C2.8501983,18.2953541 3.39467422,19.404136 2.76521246,21.396204 C1.8501983,24.290255 2.26152975,22.9270822 1.50912181,25.0840227 C0.775977337,27.1854391 0.404305949,29.2273654 0.478526912,30.6845892 C0.478526912,30.6845892 0.411104816,35.1004533 5.80203966,34.5440793 C7.89665722,34.3276487 9.36577904,32.486289 10.0887252,30.4613598 C10.361813,31.7469122 11.1793768,32.7593768 13.1170538,33.0313314 C13.2467989,33.0494618 13.3510482,32.9242493 13.3045892,32.8018697 C13.1606799,32.423966 13.0388669,31.6647592 13.3023229,30.5270822 C14.3028895,26.2115014 17.0383003,21.8092351 16.7346176,18.7775071 C16.7283853,18.7146176 16.7130878,18.6607932 16.7045892,18.6013031 C17.0230028,18.3078187 17.4077054,18.0262323 17.8484986,17.8443626 C18.7238527,17.4828895 20.1561473,16.9151841 21.5198867,17.9996034 C22.3453824,18.6562606 22.530085,20.3027195 21.1935411,23.4789235 C20.1941076,25.8528612 19.9918414,27.2262323 20.7244193,29.2058357 C20.7244193,29.2058357 22.1980737,31.8177337 24.5323513,31.62 C27.0332011,31.408102 28.1567139,29.9554108 28.6626629,28.5928045 C28.8683286,28.8183003 29.0915581,29.0132011 29.3227195,29.1741076 C30.3720113,29.9049858 32.5028895,30.0551275 33.7504816,29.7741076 C34.8660623,29.5236827 36.1249858,28.6743909 36.8683286,27.1129178 C37.4649292,28.8330312 39.1147875,31.3797734 43.6654958,31.6307649 C57.5873088,32.3979037 60.2938244,20.1967705 57.0445326,14.5814731" id="Fill-1" fill="#7D7D7D" mask="url(#mask-2)"></path>
            </g>
            <path d="M103.835071,13.4579037 C103.890595,14.5547875 103.046402,15.4896317 101.949518,15.5451558 C100.852068,15.6006799 99.9177904,14.7564873 99.8622663,13.6596034 C99.8061756,12.5627195 100.650368,11.6278754 101.747819,11.5723513 C102.844703,11.5168272 103.779547,12.3610198 103.835071,13.4579037" id="Fill-4" fill="#7D7D7D"></path>
            <path d="M163.763626,39.2051558 C163.81915,40.3020397 162.974958,41.2368839 161.878074,41.2924079 C160.780623,41.347932 159.846346,40.5037394 159.790822,39.4068555 C159.734731,38.3099717 160.578924,37.3751275 161.676374,37.3196034 C162.773258,37.2640793 163.708102,38.108272 163.763626,39.2051558" id="Fill-6" fill="#7D7D7D"></path>
            <path d="M75.7715581,39.3713314 C75.7726912,39.2551841 75.6248159,39.2098584 75.5596601,39.3056091 C75.1018697,39.9781303 73.4032861,41.6217564 67.6769405,41.834221 C62.6554108,42.0200567 57.8412465,39.0665156 57.4287819,33.7962606 C56.7857224,25.5894618 61.5789235,21.1894618 68.9273654,21.136204 C69.1018697,21.1345042 69.2163173,20.952068 69.131898,20.7996601 C68.7783569,20.1622663 67.7047025,18.850085 64.8843059,18.9265722 C61.1664589,19.0268555 55.8372805,20.9356374 54.096204,27.6676487 C52.7194334,32.9900283 55.218017,37.9158074 58.4333144,40.226289 C61.6486119,42.5373371 66.5211331,44.3939943 71.7959207,42.5373371 C75.2933711,41.3061756 75.7664589,39.9849292 75.7715581,39.3713314" id="Fill-8" fill="#7D7D7D"></path>
            <path d="M160.799433,30.6620397 C167.366006,27.1685552 171.754108,24.2507082 173.350142,21.2648725 C175.338244,17.5453258 174.369972,13.4280453 172.325212,12.7985836 C170.683853,12.2932011 169.970538,12.8501416 169.503683,13.2507082 C169.423229,13.31983 169.447025,13.4439093 169.543343,13.4875354 C171.291218,14.2716714 172.908215,19.570255 167.71898,24.4303116 C167.71898,24.4303116 163.926912,27.3787535 161.352975,29.3152975 C158.779037,31.2512748 160.799433,30.6620397 160.799433,30.6620397" id="Fill-10" fill="#7D7D7D"></path>
            <path d="M98.3846459,8.65467422 C98.2945609,8.81104816 98.0871955,9.10623229 97.965949,9.28300283 C96.8209065,10.9498584 91.2883286,13.7396601 88.0022096,15.8246459 C83.8260057,18.4739377 82.2299717,20.9249292 80.6005099,23.7764873 C82.1092918,18.5498584 83.5965439,13.6892351 83.8566006,12.911898 C85.5716147,7.77932011 86.0180737,5.66487252 86.5931445,4.93172805 C86.7364873,4.74929178 86.1166572,4.87507082 85.977847,4.92322946 C85.7013598,5.0184136 85.4367705,5.13852691 85.1823796,5.27563739 L85.1829462,5.2733711 C85.1721813,5.28016997 85.1631161,5.28583569 85.1523513,5.29263456 C84.9115581,5.42464589 84.6803966,5.57308782 84.4583003,5.73626062 C76.6118414,10.7232295 75.330255,10.5492918 72.0135411,14.3045326 C68.9268555,17.8002833 70.1438527,19.9283286 70.6854958,20.5838527 C70.7682153,20.684136 70.9234561,20.6473088 70.9557507,20.5220963 C71.8820963,16.9577904 76.7075921,14.5719547 80.3177904,12.1674221 C80.2209065,12.4535411 80.1710482,12.6274788 80.1665156,12.6399433 C80.1665156,12.6399433 77.6418697,19.398017 74.6934278,32.4637394 C74.0662323,35.2433428 71.8231728,38.2359773 68.652068,39.0915014 C68.1387535,39.2303116 67.0027762,39.5124646 68.8469688,39.6541076 C69.3387535,39.692068 70.0316714,39.5470255 70.6832295,39.3866856 C73.9483853,38.5844193 76.9602833,37.390085 78.0645326,33.0093484 C78.6492351,30.6875354 79.4498017,27.7929178 80.2701983,24.9260623 C80.9614164,24.2643059 82.2696317,23.2954674 84.4209065,22.7124646 C87.9245892,21.7640227 90.1755807,24.009915 90.2373371,25.7855524 C90.3801133,29.8909348 87.7999433,33.7481586 88.0849292,37.9090652 C88.2707649,40.6269122 88.8735977,43.4535411 91.6356374,44.7141643 C91.973881,44.868272 92.1716147,44.6660057 91.8350708,44.4807365 C90.0016431,43.4711048 90.1489518,39.6354108 91.0311048,36.7033994 C92.338187,32.3583569 93.8169405,28.3283286 93.8169405,28.3283286 C93.8169405,28.3283286 95.2537677,23.6110482 92.7869122,21.7067989 C90.8129745,20.1827195 88.1013598,20.2065156 86.5432861,20.4121813 C89.852068,19.0070822 94.8492351,16.5878187 97.1036261,13.468272 C98.2843626,11.8342776 98.9427195,10.3147309 98.9829462,9.14362606 C99.0311048,7.7674221 98.9217564,7.72096317 98.3846459,8.65467422" id="Fill-12" fill="#7D7D7D"></path>
            <path d="M178.809122,52.1837394 C178.505439,52.9287819 178.087309,53.6183003 177.55983,54.2256657 C176.449348,55.5049858 174.295241,57.443796 171.861246,56.7854391 C168.317337,55.8262323 169.573994,51.9531445 169.573994,51.9531445 C169.573994,51.9531445 170.784193,47.0613598 173.28221,44.4188669 C174.491841,46.8777904 177.482776,47.4171671 177.482776,47.4171671 C177.482776,47.4171671 178.563229,47.6494618 179.994391,47.4018697 C179.858414,49.3044193 179.247082,51.1089518 178.809122,52.1837394 M177.485609,42.4330312 C178.762096,42.4149008 179.872011,43.4426629 179.990992,44.7134844 C180.023853,45.0630595 180.04255,45.506119 180.041983,46.0352975 C179.865779,46.0619263 179.72187,46.0766572 179.628385,46.0817564 C179.104873,46.1083853 176.687875,46.1191501 176.047649,44.5673088 C175.832918,44.0471955 175.763229,43.321983 175.762096,42.7939377 C176.427819,42.5435127 177.001756,42.43983 177.485609,42.4330312 M106.52017,52.7916714 C105.945666,52.506119 104.131501,51.7627762 103.835184,51.0834561 C103.108272,49.4166006 105.072011,48.7316147 106.04085,49.6086686 C106.04085,49.6086686 107.069745,50.6970538 106.52017,52.7916714 M80.5230028,57.5967705 C79.9490652,57.3112181 78.1349008,56.5678754 77.8385836,55.8885552 C77.1111048,54.2216997 79.0748442,53.5367139 80.0436827,54.4137677 C80.0436827,54.4137677 81.0731445,55.502153 80.5230028,57.5967705 M53.8759773,70.8307649 C50.8946742,77.8267989 46.2850425,76.2641926 46.2850425,76.2641926 C42.7411331,75.3055524 43.9972238,71.431898 43.9972238,71.431898 C43.9972238,71.431898 45.3473654,65.9831728 48.136034,63.4806232 C48.4595467,66.5163173 52.0941076,67.1095184 52.0941076,67.1095184 C52.0941076,67.1095184 53.2516147,67.3571105 54.755864,67.0647592 C54.7088385,68.1202833 54.4816431,69.4092351 53.8759773,70.8307649 M51.7688952,62.1123513 C52.7167705,62.1123513 53.9790935,62.8828895 54.414221,64.1928045 C54.414221,64.1928045 54.6255524,64.7548442 54.72017,65.7095184 C54.4941076,65.749745 54.3207365,65.7701416 54.2391501,65.7741076 C53.716204,65.8007365 51.2992068,65.8115014 50.6584136,64.2596601 C50.410255,63.6579603 50.3552975,62.7797734 50.3762606,62.2534278 C50.9003399,62.1214164 51.3433994,62.1129178 51.7688952,62.1123513 M51.0748442,51.5276487 C53.5643626,53.4647592 52.7501983,57.0500283 44.9292351,57.9095184 C39.9847592,58.4534278 36.2680453,56.4749575 34.2017564,54.9452125 C41.2470822,49.2069688 49.5450992,50.337847 51.0748442,51.5276487 M199.606856,51.0817564 C199.236884,52.318017 197.67711,54.988272 195.304873,54.5214164 C195.269745,54.5146176 195.236884,54.5038527 195.202323,54.4953541 C194.696941,54.3112181 194.34,53.4392635 194.483909,52.9287819 C195.119603,50.6732578 198.302606,44.3724079 196.942266,41.3899717 C196.018754,39.3656091 193.305439,38.9265156 192.113938,39.0777904 C191.103739,39.2064023 189.059547,39.7106516 187.570595,41.8233994 C186.695241,39.9401133 184.162096,39.9157507 183.081643,40.6885552 C183.032918,40.7231161 183.049348,40.7979037 183.108272,40.8069688 C183.456147,40.8590935 184.275977,41.0681586 184.470878,41.8143343 C184.429518,42.4500283 184.052748,43.8811898 183.230085,44.6970538 C182.553031,45.3690085 181.445382,45.741813 180.612521,45.9276487 C180.610822,45.8018697 180.607989,45.7282153 180.607989,45.7282153 C180.607989,45.7282153 180.40289,44.0137677 180.104873,43.5542776 C180.104873,43.5542776 178.85898,40.6721246 173.74,41.9531445 C168.62102,43.2341643 166.596657,51.3185836 166.596657,51.3185836 C166.596657,51.3185836 166.047649,53.4443626 166.370595,55.4109348 C165.35813,57.1208499 164.02272,57.7837394 164.02272,57.7837394 C161.086176,58.7871388 160.838017,55.9151841 160.795524,55.2664589 C160.743966,54.4857224 162.089008,50.0228329 162.600623,48.3610765 C162.756997,47.851728 162.861246,47.3276487 162.881643,46.7956374 C162.919603,45.7933711 162.711671,44.6562606 161.393258,43.7865722 C160.329802,43.0845892 159.664079,43.0364306 159.329235,43.008102 C159.228952,42.9996034 159.173428,43.1168839 159.24085,43.1916714 C159.497507,43.4755241 160.041983,44.5843059 159.412521,46.5763739 C158.498074,49.4704249 158.908839,48.1072521 158.156431,50.2647592 C157.423286,52.3656091 157.052181,54.4075354 157.125836,55.8653258 C157.125836,55.8653258 157.125269,56.2154674 157.235184,56.7004533 C157.219887,56.7395467 157.20289,56.7843059 157.185326,56.8386969 C156.909405,57.6970538 156.346799,58.337847 155.88221,58.7491785 C155.40289,59.1735411 154.805156,59.4602266 154.166062,59.4885552 C152.137734,59.5797734 151.66068,56.9826062 151.7383,56.3520113 C152.396657,50.9780737 154.224419,47.451728 155.178527,44.8698584 C156.517337,41.2466289 157.347932,38.8392635 157.87711,36.8454958 C163.440283,34.42 170.443683,30.9435127 173.841983,29.6913881 C176.651615,28.6562606 182.08051,28.5718414 184.486176,29.6913881 C185.856147,30.3293484 186.426119,31.4024363 186.66238,32.2069688 C186.754164,32.5185836 187.192125,32.5191501 187.283343,32.2075354 C187.550765,31.294221 187.689008,29.8874221 186.829518,28.3707082 C185.349632,25.7582436 179.270878,23.188272 170.55983,26.8301983 C163.866912,29.627932 162.698074,30.83983 158.63915,32.7463456 C158.66238,32.5208499 158.683343,32.2930878 158.70204,32.0607932 C158.796091,30.8998867 159.059547,29.2698584 157.30204,28.110085 C156.238017,27.408102 154.768895,27.3599433 154.434051,27.3310482 C154.333768,27.3225496 154.276544,27.4415297 154.345099,27.5146176 C155.053881,28.2704249 155.126969,28.3916714 155.154164,30.4806232 C155.167762,31.5350142 154.973994,32.9072521 154.650482,34.4483286 C153.628952,34.8505949 152.474278,35.2868555 151.135467,35.7707082 C142.60119,38.8522946 138.309972,35.7724079 136.756997,34.141813 C136.549065,33.9236827 136.180793,34.121983 136.255581,34.4137677 C137.645949,39.851728 144.789858,40.4205666 151.135467,39.306119 C151.767762,39.1950708 152.615354,38.937847 153.611955,38.5780737 C152.126969,43.8086686 150.007422,49.5225496 149.311671,51.7622096 C148.666346,53.8386969 148.207422,55.9055524 148.281076,57.3627762 C148.281076,57.3627762 148.279943,57.3979037 148.281076,57.4585269 C147.043116,59.9350142 145.072578,62.0381303 141.54,61.7945042 C138.141133,61.5599433 140.647649,54.7095184 140.647649,54.7095184 C140.647649,54.7095184 142.350198,49.0013031 143.213654,47.925949 C143.467479,47.6092351 144.329235,46.7797734 145.188725,46.7066856 C146.005156,46.6381303 147.41932,46.6432295 147.418754,49.3684419 C147.418754,49.5565439 147.593824,49.7208499 147.706572,49.1684419 C148.479377,45.3899717 144.730368,45.2250992 144.730368,45.2250992 C142.624419,45.2539943 141.990425,45.7197167 141.313938,46.1293484 C140.261246,46.7673088 139.48051,47.686289 138.732068,49.3554108 C138.044816,50.8868555 136.332635,56.2998867 136.346799,58.6947875 C136.349632,59.0998867 136.398357,59.4670255 136.479943,59.8013031 C136.271445,60.7661756 135.768895,61.5038527 135.34,61.9044193 C134.917337,62.2998867 134.402323,62.5899717 133.838584,62.7231161 C131.453881,63.2879887 131.446516,61.4284986 131.407422,60.8409632 C131.355864,60.0596601 132.47881,55.7044193 132.989858,54.0426629 C133.146799,53.5333144 133.30204,53.0624929 133.43915,52.3157507 C133.619887,51.3293484 133.691275,50.1899717 132.373428,49.3202833 C131.309405,48.6177337 130.275977,48.6103683 129.941133,48.5820397 C129.841416,48.5735411 129.785326,48.6913881 129.852748,48.7656091 C130.109972,49.0500283 130.654448,50.1582436 130.024986,52.1508782 C129.109972,55.0449292 129.521303,53.6817564 128.768329,55.8386969 C128.035751,57.9401133 127.664079,59.9820397 127.7383,61.4392635 C127.7383,61.4392635 127.742833,61.8607932 127.912238,62.4013031 C127.510538,62.8664589 126.994391,63.333881 126.385326,63.5984703 C125.517337,63.9763739 124.04255,63.9752408 123.115637,63.4228329 C122.188159,62.8704249 121.954164,60.8908215 122.644816,58.3248159 C123.314504,55.8369972 125.325836,51.9491785 124.656147,50.5503116 C124.036884,49.2568272 122.670312,49.1310482 121.859547,48.9820397 C121.708839,48.9542776 121.580793,49.0930878 121.628952,49.2386969 C121.733201,49.5525779 121.972295,50.2976204 121.611388,51.5797734 C121.142266,53.2454958 119.45898,56.7344476 119.055014,60.0103683 C119.053314,60.0211331 119.049915,60.0284986 119.048215,60.0403966 C118.912238,60.9242493 118.962663,61.40017 117.904306,62.9831728 C116.907705,64.4738244 114.061246,66.4998867 112.152465,65.3469122 C110.243116,64.1945042 114.965496,55.2970538 115.015921,54.5435127 C115.065779,53.7899717 114.462946,53.9406799 114.462946,53.9406799 C111.70034,55.3474788 109.125269,53.8602266 109.125269,53.8602266 L109.410255,52.9072521 C109.827252,51.5078187 109.278244,50.0471955 107.765496,49.0494618 L106.926402,48.6443626 C106.926402,48.6443626 104.404023,47.7763739 102.84085,49.6607932 C101.690142,51.047762 101.793258,52.3622096 102.337167,53.5984703 C102.775127,54.5939377 104.239717,55.5231161 105.408555,55.83983 C104.537167,58.7667422 104.136601,59.4857224 102.936034,62.5803399 C102.936034,62.5803399 102.787025,62.9667422 102.52017,63.5542776 C102.573428,63.3820397 102.56153,63.3865722 102.477677,63.6471955 C102.382493,63.8539943 102.274844,64.0823229 102.154164,64.3270822 C101.517337,65.4681586 100.214788,67.2794901 99.8402833,67.6109348 C99.3609632,68.0347309 98.1388669,68.7032861 97.4997734,68.7321813 C95.4714448,68.8233994 95.2085552,66.6386969 95.2844759,66.008102 C95.441983,64.6959207 96.2045892,62.6341643 98.9932578,54.0301983 C99.1796601,53.4556941 99.6810765,51.6466289 100.21762,49.1712748 C105.154164,47.4794901 110.638017,44.4103683 115.769462,42.6879887 C123.103739,40.2262323 128.44085,39.0834561 131.492975,39.4228329 C133.954164,39.6959207 135.228952,41.1474788 135.792125,42.047762 C135.911105,42.2369972 136.204023,42.1576771 136.207422,41.9344476 C136.223853,40.7384136 135.899207,38.6568272 132.841983,37.4132011 C128.980227,35.8426629 119.587025,37.4800567 112.487309,40.0925212 C108.544533,41.5429462 104.624419,43.4250992 101.055581,44.7684419 C101.279943,43.4024363 101.48221,41.9656091 101.634051,40.5004533 C101.754731,39.341813 101.564929,37.3758074 100.234051,36.549745 C99.1507649,35.8777904 98.1026062,35.7996034 97.767762,35.7707082 C97.6674788,35.7622096 97.6119547,35.8800567 97.6793768,35.9542776 C97.936034,36.2386969 98.4895751,37.588272 98.2204533,39.6602266 C97.9688952,41.5905382 97.7388669,43.3735411 97.1349008,46.0126346 C95.7756941,46.341813 94.4969405,46.518017 93.3303683,46.4556941 C89.4040227,46.2460623 87.9326346,43.2953541 87.4776771,42.0166006 C87.4051558,41.8126346 87.1179037,41.8018697 87.034051,42.0007365 C86.5705949,43.1072521 86.5433994,44.0024363 86.6147875,44.9990368 C86.6901416,46.0647592 88.0890085,50.3741076 94.2329178,50.3741076 C94.8193201,50.3741076 95.4278187,50.3134844 96.0465156,50.2250992 C95.2788102,52.9401133 94.2011898,56.3911048 92.6453824,61.0058357 C91.9349008,63.1146176 91.5411331,65.1486119 91.6147875,66.6064023 C91.6147875,66.6064023 91.6074221,66.808102 91.6470822,67.1185836 C91.3332011,67.6115014 90.9009065,68.1503116 90.2963739,68.5701416 C90.4470822,67.7350142 90.3751275,67.0868555 90.3751275,67.0868555 C89.7467989,62.1044193 83.1286686,58.6653258 83.1286686,58.6653258 L83.4136544,57.7123513 C83.8306516,56.3129178 83.2810765,54.8522946 81.7688952,53.8545609 L80.9292351,53.4494618 C80.9292351,53.4494618 78.4068555,52.5814731 76.8436827,54.4658924 C75.6935411,55.8528612 75.6799433,57.2250992 76.34,58.4035694 C76.7286686,59.0970538 78.5405666,60.2392635 79.2193201,60.6534278 C78.5779603,63.5860057 78.1394334,64.2908215 76.9388669,67.3854391 C76.9388669,67.3854391 76.3983569,68.7899717 75.524136,70.329915 C75.4867422,70.3134844 75.4385836,70.321983 75.4232861,70.3724079 C75.3921246,70.4772238 75.3450992,70.5990368 75.2918414,70.7265156 C74.3790935,72.251728 73.1632295,73.8024363 71.8391501,74.1763739 C71.8357507,74.1769405 71.8329178,74.1775071 71.8295184,74.1780737 C71.7445326,74.2018697 71.6584136,74.2211331 71.5728612,74.2347309 C71.2958074,74.2738244 71.0108215,74.2709915 70.7196034,74.2137677 C70.6844759,74.2069688 70.6516147,74.196204 70.6170538,74.1877054 C70.112238,74.004136 69.7552975,73.1316147 69.8986402,72.6211331 C70.5349008,70.3661756 73.7173371,64.0647592 72.3575637,61.0823229 C71.434051,59.0579603 68.72017,58.6188669 67.5286686,58.7701416 C66.5620963,58.8930878 64.6465156,59.3554108 63.1785269,61.2460623 C62.5694618,58.8335977 59.6714448,58.7372805 58.4963739,59.5769405 C58.4482153,59.6115014 58.4640793,59.686289 58.5230028,59.6953541 C58.9003399,59.7520113 59.8431161,59.9848725 59.9292351,60.8976204 C59.9547309,61.1627762 59.8272521,61.6103683 59.6159207,62.1724079 C58.6754108,64.2386969 56.7977904,65.1435127 55.5145042,65.5208499 C55.34,63.3848725 54.528102,62.6313314 54.528102,62.6313314 C54.528102,62.6313314 53.0748442,60.1701416 48.1632295,61.431898 C43.0527479,62.7452125 41.0198867,70.7979037 41.0198867,70.7979037 C41.0198867,70.7979037 40.8385836,71.5049858 40.7450992,72.4755241 L40.6890085,72.5786402 C38.9218697,77.7967705 32.8136544,79.2868555 28.6731445,78.008102 C24.5326346,76.7287819 23.9377337,67.5656091 30.5688952,58.7429462 C31.1711615,57.941813 31.8000567,57.2205666 32.4442493,56.5599433 C35.4215864,58.6194334 39.0306516,59.8738244 44.55983,59.2149008 C55.6827762,57.8885552 54.4113881,52.5831728 53.5643626,51.2692918 C52.061813,48.9367139 46.7932578,46.2936544 38.2051558,48.8670255 C35.5926912,49.6500283 33.336034,50.8143343 31.3909915,52.1996034 C21.6476487,41.0449292 16.8045892,40.2409632 12.7354674,39.8245326 C6.18815864,39.1548442 -1.9925779,43.3401133 0.438016997,51.6800567 C1.52640227,55.4143343 5.9031728,56.9049858 8.98815864,56.835864 C9.37569405,56.8273654 9.23858357,56.3452125 8.86691218,56.2347309 C3.34113314,54.5939377 2.93943343,49.4698584 6.15473088,46.0539943 C12.230085,39.5984703 21.1507649,46.6290652 23.4589802,48.5078187 C25.6040227,50.2545609 27.3926912,52.1809065 29.249915,53.9225496 C26.0198867,56.8381303 23.8663456,60.3412465 22.5564306,63.3933711 C19.7960907,69.8233994 19.7790935,80.2290652 28.9796601,80.6670255 C36.5315014,81.0267989 39.3377337,77.0681586 40.6929745,73.7780737 C40.7196034,74.9650425 40.9700283,76.2522946 41.7728612,77.1214164 C43.1326346,78.5945042 45.8958074,78.4086686 47.347932,78.1208499 C47.347932,78.1208499 53.2000567,77.3695751 54.9586969,70.4936544 C55.3269688,69.0539943 55.4912748,67.8607932 55.5349008,66.8687252 C55.8935411,66.7576771 56.261813,66.616034 56.6323513,66.427932 C57.3196034,66.0800567 57.9020397,65.5945042 58.3853258,65.0636261 C57.7332011,66.5690085 57.0669122,68.2183003 56.8130878,69.6047025 C56.3213031,72.2936544 55.947932,75.5106516 59.653881,76.0313314 C59.7836261,76.0500283 59.8878754,75.9242493 59.8414164,75.8024363 C59.6975071,75.423966 59.5756941,74.6647592 59.8397167,73.5276487 C60.8397167,69.2115014 63.5751275,64.8092351 63.2714448,61.7775071 C63.2652125,61.7151841 63.2504816,61.6607932 63.2414164,61.6013031 C63.55983,61.3078187 63.9445326,61.0262323 64.3853258,60.8443626 C65.2606799,60.4828895 66.6929745,59.9151841 68.0567139,60.9996034 C68.8822096,61.6562606 68.6799433,63.3843059 67.3433994,66.5605099 C66.3445326,68.9344476 65.8011898,71.0392635 66.5337677,73.0188669 C66.5337677,73.0188669 67.5943909,75.5797734 70.6674788,75.423966 C71.7264023,75.3701416 72.5694618,75.0341643 73.241983,74.5554108 L73.2470822,74.5565439 C76.5405666,73.0177337 79.1824929,67.5656091 79.1824929,67.5656091 C80.1043059,65.7044193 80.8516147,63.7372805 81.6408499,62.1599433 C85.614221,64.4817564 88.1513314,65.9565439 87.8980737,68.3650425 C87.6368839,70.8454958 84.5728612,70.8301983 83.065779,68.3214164 C82.4244193,67.2539943 82.4629462,65.7463456 82.6890085,65.0432295 C82.9150708,64.3395467 81.2822096,64.8925212 81.3473654,67.3287819 C81.4130878,69.7650425 83.1156374,72.7123513 86.6108215,72.149745 C87.8652125,71.9480453 88.6997734,71.423966 89.2635127,70.7894051 C89.2929745,70.8149008 89.3128045,70.8301983 89.3128045,70.8301983 C89.3128045,70.8301983 90.8742776,69.5865722 91.8402833,67.9605099 C92.2635127,69.2194334 93.4754108,70.8471955 96.9383003,70.4653258 C97.061813,70.451728 97.1830595,70.4307649 97.3026062,70.4024363 C100.509972,69.8154674 102.901473,66.6307649 104.114504,64.741813 C104.41762,64.2692918 105.290708,62.5395467 105.535467,62.0341643 C106.35813,60.3355807 107.224419,58.4007365 107.88221,56.486289 L110.142833,56.9718414 C109.289008,59.3661756 109.289008,59.3661756 108.681076,62.4976204 C108.073711,65.6296317 109.54,68.5928045 113.810255,67.6551275 C117.19949,66.9106516 118.485042,64.4896884 119.093541,62.7559773 C119.128669,62.945779 119.163796,63.1367139 119.215921,63.3197167 C119.826119,65.4596601 121.61762,66.0092351 123.601756,65.7945042 C124.625552,65.6834561 126.353598,65.6290652 128.026119,62.7174504 C128.499773,63.8641926 129.751331,65.2590935 133.061813,64.4947875 C135.488442,63.9344476 136.322436,62.3225496 136.753598,60.5661756 C137.017054,61.106119 137.387025,61.5191501 137.805722,61.8109348 C138.855581,62.541813 139.580793,63.2347309 142.394391,62.8505949 C144.691841,62.5372805 146.427252,61.8245326 148.356431,58.1435127 C148.594958,59.3939377 149.578527,61.6658924 153.604589,61.2222663 C156.226686,60.9333144 157.174561,58.318017 157.356997,57.1310482 C157.779093,58.3888385 158.985326,60.0817564 162.449348,59.7242493 C164.368895,59.5265156 165.763796,57.9639093 166.54,56.145779 C166.707705,56.7027195 166.96153,57.2228329 167.349632,57.6426629 C169.21932,59.6687252 173.901473,58.2919547 173.901473,58.2919547 C173.901473,58.2919547 176.679943,57.325949 178.750198,54.0007365 C180.094674,51.8403966 180.474278,49.0030028 180.576827,47.2749575 C181.041416,47.1554108 181.529235,46.9848725 182.021586,46.7355807 C182.401756,46.5429462 182.725269,46.3225496 183.007989,46.0879887 C182.343966,47.6171671 181.65728,49.3027195 181.398357,50.7157507 C180.906006,53.4047025 180.532635,56.6216997 184.238584,57.1429462 C184.368329,57.1610765 184.473144,57.035864 184.426686,56.9134844 C184.28221,56.5355807 184.160963,55.7763739 184.424419,54.6386969 C185.424986,50.3225496 188.160397,45.9208499 187.856714,42.8885552 C187.825552,42.5809065 187.756431,42.3106516 187.666346,42.0619263 C188.011955,41.7157507 188.452748,41.3650425 188.970595,41.1514448 C189.845382,40.7905382 191.277677,40.2228329 192.641416,41.3072521 C193.467479,41.9639093 193.265212,43.6919547 191.928669,46.8681586 C190.929235,49.2420963 190.386459,51.3469122 191.119037,53.325949 C191.119037,53.325949 192.17966,55.8874221 195.252748,55.7310482 C198.827819,55.549745 199.589858,52.6013031 199.752465,51.1129178 C199.762096,51.0222663 199.632918,50.9945042 199.606856,51.0817564" id="Fill-14" fill="#7D7D7D"></path>
            <path d="M58.2324646,45.7858924 C63.7350142,45.9632295 66.7814731,45.8748442 68.4675921,45.72017 C68.7933711,45.6901416 68.7814731,45.210255 68.4545609,45.1972238 C63.7123513,45.0068555 51.9616431,43.8051558 43.7814731,36.7989235 C33.7293484,28.1892918 36.2976204,18.2023229 39.4840227,16.5989235 C39.6596601,16.5105382 39.6925212,16.2771105 39.537847,16.155864 C38.6369972,15.4487819 37.2636261,14.4725779 34.2534278,15.547932 C30.502153,16.8873088 29.0426629,24.6249858 33.0471955,31.3779603 C36.2624929,36.7989235 45.7741076,45.3841926 58.2324646,45.7858924" id="Fill-17" fill="#7D7D7D"></path>
        </g>
    </g>
</svg>
