<?xml version="1.0" encoding="UTF-8"?>
<svg width="125px" height="58px" viewBox="0 0 125 58" version="1.1" xmlns="http://www.w3.org/2000/svg" xmlns:xlink="http://www.w3.org/1999/xlink">
    <g id="main-site" stroke="none" stroke-width="1" fill="none" fill-rule="evenodd">
        <g id="Desktop-HD-Copy-2" transform="translate(-477.000000, -1233.000000)" fill="#7D7D7D">
            <g id="work" transform="translate(0.000000, 400.000000)">
                <g id="Group-3" transform="translate(477.000000, 833.000000)">
                    <path d="M0.628,27 L0.628,1.512 L6.82,1.512 L6.82,21.636 L16.684,21.636 L16.684,27 L0.628,27 Z M45.052,14.148 C45.052,16.1640101 44.7040035,18.0059917 44.008,19.674 C43.3119965,21.3420083 42.3460062,22.7699941 41.11,23.958 C39.8739938,25.1460059 38.4040085,26.0639968 36.7,26.712 C34.9959915,27.3600032 33.14801,27.684 31.156,27.684 C29.16399,27.684 27.3220085,27.3600032 25.63,26.712 C23.9379915,26.0639968 22.4740062,25.1460059 21.238,23.958 C20.0019938,22.7699941 19.0360035,21.3420083 18.34,19.674 C17.6439965,18.0059917 17.296,16.1640101 17.296,14.148 C17.296,12.1079898 17.6439965,10.2660082 18.34,8.622 C19.0360035,6.97799178 20.0019938,5.58000576 21.238,4.428 C22.4740062,3.27599424 23.9379915,2.38800312 25.63,1.764 C27.3220085,1.13999688 29.16399,0.828 31.156,0.828 C33.14801,0.828 34.9959915,1.13999688 36.7,1.764 C38.4040085,2.38800312 39.8739938,3.27599424 41.11,4.428 C42.3460062,5.58000576 43.3119965,6.97799178 44.008,8.622 C44.7040035,10.2660082 45.052,12.1079898 45.052,14.148 Z M38.464,14.148 C38.464,13.0439945 38.2840018,12.0120048 37.924,11.052 C37.5639982,10.0919952 37.0660032,9.27000342 36.43,8.586 C35.7939968,7.90199658 35.0260045,7.36200198 34.126,6.966 C33.2259955,6.56999802 32.2360054,6.372 31.156,6.372 C30.0759946,6.372 29.0920044,6.56999802 28.204,6.966 C27.3159956,7.36200198 26.5480032,7.90199658 25.9,8.586 C25.2519968,9.27000342 24.7540017,10.0919952 24.406,11.052 C24.0579983,12.0120048 23.884,13.0439945 23.884,14.148 C23.884,15.3000058 24.0639982,16.3619951 24.424,17.334 C24.7840018,18.3060049 25.2819968,19.1399965 25.918,19.836 C26.5540032,20.5320035 27.3159956,21.077998 28.204,21.474 C29.0920044,21.870002 30.0759946,22.068 31.156,22.068 C32.2360054,22.068 33.2199956,21.870002 34.108,21.474 C34.9960044,21.077998 35.7639968,20.5320035 36.412,19.836 C37.0600032,19.1399965 37.5639982,18.3060049 37.924,17.334 C38.2840018,16.3619951 38.464,15.3000058 38.464,14.148 Z M71.764,25.452 C70.5159938,26.1000032 69.0580083,26.627998 67.39,27.036 C65.7219917,27.444002 63.9040098,27.648 61.936,27.648 C59.8959898,27.648 58.0180086,27.3240032 56.302,26.676 C54.5859914,26.0279968 53.1100062,25.1160059 51.874,23.94 C50.6379938,22.7639941 49.6720035,21.3540082 48.976,19.71 C48.2799965,18.0659918 47.932,16.2360101 47.932,14.22 C47.932,12.1799898 48.2859965,10.3320083 48.994,8.676 C49.7020035,7.01999172 50.6799938,5.61000582 51.928,4.446 C53.1760062,3.28199418 54.6399916,2.38800312 56.32,1.764 C58.0000084,1.13999688 59.8119903,0.828 61.756,0.828 C63.7720101,0.828 65.6439914,1.13399694 67.372,1.746 C69.1000086,2.35800306 70.5039946,3.17999484 71.584,4.212 L67.696,8.64 C67.095997,7.94399652 66.3040049,7.37400222 65.32,6.93 C64.3359951,6.48599778 63.2200062,6.264 61.972,6.264 C60.8919946,6.264 59.8960046,6.46199802 58.984,6.858 C58.0719954,7.25400198 57.2800034,7.80599646 56.608,8.514 C55.9359966,9.22200354 55.4140019,10.0619951 55.042,11.034 C54.6699981,12.0060049 54.484,13.0679942 54.484,14.22 C54.484,15.3960059 54.6519983,16.4759951 54.988,17.46 C55.3240017,18.4440049 55.8219967,19.2899965 56.482,19.998 C57.1420033,20.7060035 57.9579951,21.257998 58.93,21.654 C59.9020049,22.050002 61.0119938,22.248 62.26,22.248 C62.9800036,22.248 63.6639968,22.1940005 64.312,22.086 C64.9600032,21.9779995 65.5599972,21.8040012 66.112,21.564 L66.112,16.92 L61.252,16.92 L61.252,11.952 L71.764,11.952 L71.764,25.452 Z M103.372,14.148 C103.372,16.1640101 103.024003,18.0059917 102.328,19.674 C101.631997,21.3420083 100.666006,22.7699941 99.43,23.958 C98.1939938,25.1460059 96.7240085,26.0639968 95.02,26.712 C93.3159915,27.3600032 91.46801,27.684 89.476,27.684 C87.48399,27.684 85.6420085,27.3600032 83.95,26.712 C82.2579915,26.0639968 80.7940062,25.1460059 79.558,23.958 C78.3219938,22.7699941 77.3560035,21.3420083 76.66,19.674 C75.9639965,18.0059917 75.616,16.1640101 75.616,14.148 C75.616,12.1079898 75.9639965,10.2660082 76.66,8.622 C77.3560035,6.97799178 78.3219938,5.58000576 79.558,4.428 C80.7940062,3.27599424 82.2579915,2.38800312 83.95,1.764 C85.6420085,1.13999688 87.48399,0.828 89.476,0.828 C91.46801,0.828 93.3159915,1.13999688 95.02,1.764 C96.7240085,2.38800312 98.1939938,3.27599424 99.43,4.428 C100.666006,5.58000576 101.631997,6.97799178 102.328,8.622 C103.024003,10.2660082 103.372,12.1079898 103.372,14.148 Z M96.784,14.148 C96.784,13.0439945 96.6040018,12.0120048 96.244,11.052 C95.8839982,10.0919952 95.3860032,9.27000342 94.75,8.586 C94.1139968,7.90199658 93.3460045,7.36200198 92.446,6.966 C91.5459955,6.56999802 90.5560054,6.372 89.476,6.372 C88.3959946,6.372 87.4120044,6.56999802 86.524,6.966 C85.6359956,7.36200198 84.8680032,7.90199658 84.22,8.586 C83.5719968,9.27000342 83.0740017,10.0919952 82.726,11.052 C82.3779983,12.0120048 82.204,13.0439945 82.204,14.148 C82.204,15.3000058 82.3839982,16.3619951 82.744,17.334 C83.1040018,18.3060049 83.6019968,19.1399965 84.238,19.836 C84.8740032,20.5320035 85.6359956,21.077998 86.524,21.474 C87.4120044,21.870002 88.3959946,22.068 89.476,22.068 C90.5560054,22.068 91.5399956,21.870002 92.428,21.474 C93.3160044,21.077998 94.0839968,20.5320035 94.732,19.836 C95.3800032,19.1399965 95.8839982,18.3060049 96.244,17.334 C96.6040018,16.3619951 96.784,15.3000058 96.784,14.148 Z M120.904,8.136 C120.375997,7.46399664 119.686004,6.93000198 118.834,6.534 C117.981996,6.13799802 117.160004,5.94 116.368,5.94 C115.959998,5.94 115.546002,5.97599964 115.126,6.048 C114.705998,6.12000036 114.328002,6.25799898 113.992,6.462 C113.655998,6.66600102 113.374001,6.92999838 113.146,7.254 C112.917999,7.57800162 112.804,7.99199748 112.804,8.496 C112.804,8.92800216 112.893999,9.28799856 113.074,9.576 C113.254001,9.86400144 113.517998,10.1159989 113.866,10.332 C114.214002,10.5480011 114.627998,10.7459991 115.108,10.926 C115.588002,11.1060009 116.127997,11.291999 116.728,11.484 C117.592004,11.7720014 118.491995,12.0899983 119.428,12.438 C120.364005,12.7860017 121.215996,13.2479971 121.984,13.824 C122.752004,14.4000029 123.387997,15.1139957 123.892,15.966 C124.396003,16.8180043 124.648,17.8799936 124.648,19.152 C124.648,20.6160073 124.378003,21.8819947 123.838,22.95 C123.297997,24.0180053 122.572005,24.8999965 121.66,25.596 C120.747995,26.2920035 119.704006,26.8079983 118.528,27.144 C117.351994,27.4800017 116.140006,27.648 114.892,27.648 C113.067991,27.648 111.304009,27.3300032 109.6,26.694 C107.895991,26.0579968 106.480006,25.1520059 105.352,23.976 L109.384,19.872 C110.008003,20.6400038 110.829995,21.2819974 111.85,21.798 C112.870005,22.3140026 113.883995,22.572 114.892,22.572 C115.348002,22.572 115.791998,22.5240005 116.224,22.428 C116.656002,22.3319995 117.033998,22.1760011 117.358,21.96 C117.682002,21.7439989 117.939999,21.4560018 118.132,21.096 C118.324001,20.7359982 118.42,20.3040025 118.42,19.8 C118.42,19.3199976 118.300001,18.9120017 118.06,18.576 C117.819999,18.2399983 117.478002,17.9340014 117.034,17.658 C116.589998,17.3819986 116.038003,17.1300011 115.378,16.902 C114.717997,16.6739989 113.968004,16.4280013 113.128,16.164 C112.311996,15.8999987 111.514004,15.5880018 110.734,15.228 C109.953996,14.8679982 109.258003,14.4060028 108.646,13.842 C108.033997,13.2779972 107.542002,12.594004 107.17,11.79 C106.797998,10.985996 106.612,10.0080058 106.612,8.856 C106.612,7.43999292 106.899997,6.22800504 107.476,5.22 C108.052003,4.21199496 108.807995,3.38400324 109.744,2.736 C110.680005,2.08799676 111.735994,1.6140015 112.912,1.314 C114.088006,1.0139985 115.275994,0.864 116.476,0.864 C117.916007,0.864 119.385993,1.12799736 120.886,1.656 C122.386008,2.18400264 123.699994,2.96399484 124.828,3.996 L120.904,8.136 Z" id="LOGOS"></path>
                    <path d="M18.82,48.7 C18.8,48.5 18.78,48.3 18.78,48.12 C18.78,46.64 19.58,45.46 21.28,45.46 C22.92,45.46 23.72,46.56 23.72,47.74 C23.72,48.74 23.16,49.66 21.94,50.44 L19.78,51.84 C17.58,53.26 16.74,54.88 16.7,57 L25.78,57 L25.78,55.18 L19.12,55.18 C19.3,54.38 19.96,53.84 20.7,53.36 L23.26,51.72 C24.74,50.78 25.7,49.42 25.7,47.72 C25.7,45.56 24.1,43.74 21.32,43.74 C18.48,43.74 16.84,45.72 16.84,47.94 C16.84,48.1 16.84,48.28 16.86,48.46 L18.82,48.7 Z M29.52,50.52 C29.52,48.54 29.88,47.14 30.66,46.32 C31.16,45.8 31.8,45.48 32.72,45.48 C33.64,45.48 34.28,45.8 34.78,46.32 C35.56,47.14 35.92,48.54 35.92,50.52 C35.92,52.5 35.56,53.9 34.78,54.72 C34.28,55.24 33.64,55.56 32.72,55.56 C31.8,55.56 31.16,55.24 30.66,54.72 C29.88,53.9 29.52,52.5 29.52,50.52 Z M27.58,50.52 C27.58,52.3 27.88,53.94 28.74,55.22 C29.58,56.48 30.88,57.3 32.72,57.3 C34.56,57.3 35.86,56.48 36.7,55.22 C37.56,53.94 37.86,52.3 37.86,50.52 C37.86,48.74 37.56,47.1 36.7,45.82 C35.86,44.56 34.56,43.74 32.72,43.74 C30.88,43.74 29.58,44.56 28.74,45.82 C27.88,47.1 27.58,48.74 27.58,50.52 Z M44.32,57 L44.32,44.04 L42.6,44.04 C42.3,45.44 41.06,46.44 39.26,46.48 L39.26,47.86 L42.4,47.86 L42.4,57 L44.32,57 Z M46.52,53.48 C46.7,55.52 48.56,57.32 51.32,57.32 C54.2,57.32 56.08,55.34 56.08,52.9 C56.08,50.22 54.22,48.6 51.68,48.6 C50.66,48.6 49.62,48.92 49.04,49.56 L50,45.84 L55.54,45.84 L55.54,44.04 L48.7,44.04 L47.02,50.48 C47.68,50.72 48.26,50.98 48.94,51.24 C49.5,50.66 50.38,50.3 51.3,50.3 C52.8,50.3 54.1,51.2 54.1,52.98 C54.1,54.58 52.86,55.6 51.32,55.6 C49.7,55.6 48.52,54.52 48.4,52.92 L46.52,53.48 Z M63.1,52.08 L63.1,50.44 L57.68,50.44 L57.68,52.08 L63.1,52.08 Z M66.82,48.7 C66.8,48.5 66.78,48.3 66.78,48.12 C66.78,46.64 67.58,45.46 69.28,45.46 C70.92,45.46 71.72,46.56 71.72,47.74 C71.72,48.74 71.16,49.66 69.94,50.44 L67.78,51.84 C65.58,53.26 64.74,54.88 64.7,57 L73.78,57 L73.78,55.18 L67.12,55.18 C67.3,54.38 67.96,53.84 68.7,53.36 L71.26,51.72 C72.74,50.78 73.7,49.42 73.7,47.72 C73.7,45.56 72.1,43.74 69.32,43.74 C66.48,43.74 64.84,45.72 64.84,47.94 C64.84,48.1 64.84,48.28 64.86,48.46 L66.82,48.7 Z M77.52,50.52 C77.52,48.54 77.88,47.14 78.66,46.32 C79.16,45.8 79.8,45.48 80.72,45.48 C81.64,45.48 82.28,45.8 82.78,46.32 C83.56,47.14 83.92,48.54 83.92,50.52 C83.92,52.5 83.56,53.9 82.78,54.72 C82.28,55.24 81.64,55.56 80.72,55.56 C79.8,55.56 79.16,55.24 78.66,54.72 C77.88,53.9 77.52,52.5 77.52,50.52 Z M75.58,50.52 C75.58,52.3 75.88,53.94 76.74,55.22 C77.58,56.48 78.88,57.3 80.72,57.3 C82.56,57.3 83.86,56.48 84.7,55.22 C85.56,53.94 85.86,52.3 85.86,50.52 C85.86,48.74 85.56,47.1 84.7,45.82 C83.86,44.56 82.56,43.74 80.72,43.74 C78.88,43.74 77.58,44.56 76.74,45.82 C75.88,47.1 75.58,48.74 75.58,50.52 Z M92.32,57 L92.32,44.04 L90.6,44.04 C90.3,45.44 89.06,46.44 87.26,46.48 L87.26,47.86 L90.4,47.86 L90.4,57 L92.32,57 Z M104.42,44.46 C103.82,44.04 102.8,43.74 101.62,43.74 C97.84,43.74 94.94,46.48 94.94,51.3 C94.94,55.58 97.52,57.3 100,57.3 C102.54,57.3 104.8,55.66 104.8,52.88 C104.8,50.06 102.92,48.46 100.36,48.46 C98.64,48.46 97.46,49.28 96.94,50.14 C97.1,47.48 98.8,45.5 101.5,45.5 C102.48,45.5 103.34,45.78 103.82,46.06 L104.42,44.46 Z M97.22,52.88 C97.22,51.14 98.52,50.14 100.02,50.14 C101.52,50.14 102.82,51.14 102.82,52.88 C102.82,54.6 101.54,55.6 100.02,55.6 C98.6,55.6 97.22,54.58 97.22,52.88 Z" id="2015-2016"></path>
                </g>
            </g>
        </g>
    </g>
</svg>
