<?xml version="1.0" encoding="UTF-8"?>
<svg width="340px" height="153px" viewBox="0 0 340 153" version="1.1" xmlns="http://www.w3.org/2000/svg" xmlns:xlink="http://www.w3.org/1999/xlink">
    <g id="work" stroke="none" stroke-width="1" fill="none" fill-rule="evenodd">
        <g id="Desktop-HD-Copy-5" transform="translate(-550.000000, -129.000000)" fill-rule="nonzero" fill="#FFFFFF">
            <g id="work-sg" transform="translate(549.000000, 129.000000)">
                <path d="M20.6355981,118.547322 C19.8787135,117.8253 18.9902714,117.215019 17.9685628,116.719918 C16.9468543,116.226536 15.8687638,115.978985 14.7325829,115.978985 C13.8629347,115.978985 13.0582111,116.149176 12.3218292,116.491277 C11.5837387,116.835097 11.2146935,117.424749 11.2146935,118.261951 C11.2146935,119.061333 11.6213266,119.632075 12.4363015,119.975895 C13.2478593,120.317996 14.5634372,120.699637 16.3796181,121.117378 C17.4389146,121.346019 18.5067539,121.66921 19.5865527,122.08867 C20.6646432,122.508131 21.6385126,123.058244 22.5081608,123.744165 C23.3795176,124.430086 24.0783116,125.267289 24.6079598,126.257491 C25.1376081,127.247693 25.4041407,128.425277 25.4041407,129.79712 C25.4041407,131.586704 25.0419297,133.099513 24.3243417,134.335547 C23.6067539,135.575019 22.6687639,136.573816 21.513789,137.333659 C20.3622311,138.09694 19.0654473,138.647052 17.6268543,138.990873 C16.1899698,139.332974 14.7530854,139.504884 13.3144925,139.504884 C11.0062513,139.504884 8.74584925,139.133558 6.53328643,138.390907 C4.31901508,137.648255 2.47549749,136.554907 0.999316583,135.107423 L6.22062311,129.568479 C7.05268342,130.483041 8.07439197,131.244603 9.28574875,131.853165 C10.495397,132.461727 11.7819297,132.766008 13.1436382,132.766008 C13.9005226,132.766008 14.6488643,132.585502 15.3869548,132.224491 C16.1233367,131.86176 16.4923819,131.223974 16.4923819,130.311131 C16.4923819,129.436109 16.0379096,128.788008 15.1306734,128.368547 C14.2217286,127.950805 12.8036382,127.512434 10.8746935,127.055154 C9.89057286,126.826513 8.90645226,126.523951 7.92404019,126.142311 C6.9399196,125.76239 6.0600201,125.248378 5.28434172,124.600277 C4.50866332,123.953895 3.87479398,123.154513 3.38273367,122.202131 C2.89067336,121.251468 2.64464322,120.108266 2.64464322,118.775963 C2.64464322,117.063738 3.00514573,115.607659 3.72444222,114.407727 C4.44203015,113.209513 5.36976884,112.229626 6.5042412,111.468064 C7.63871357,110.706502 8.89790956,110.144356 10.2784121,109.783345 C11.6589146,109.420614 13.0308744,109.240109 14.3925829,109.240109 C16.5111759,109.240109 18.5819297,109.573614 20.6065527,110.240626 C22.6311759,110.905918 24.3431357,111.904715 25.7424322,113.237019 L20.6355981,118.547322 Z" id="Fill-1"></path>
                <path d="M30.9080402,138.59187 L40.2161809,138.59187 L40.2161809,110.154499 L30.9080402,110.154499 L30.9080402,138.59187 Z M40.8961809,101.074207 C40.8961809,101.797948 40.7526633,102.473555 40.4690452,103.102746 C40.1854272,103.728499 39.8061307,104.271735 39.3345728,104.729016 C38.8613066,105.184578 38.2940703,105.549027 37.6311558,105.813769 C36.9699498,106.080229 36.27799,106.214319 35.5604019,106.214319 C34.0466332,106.214319 32.7788944,105.708903 31.7571859,104.70151 C30.7371859,103.692398 30.2263317,102.482151 30.2263317,101.074207 C30.2263317,100.390004 30.3578894,99.7315887 30.6227135,99.1041168 C30.8875377,98.4766449 31.2651257,97.9334089 31.7571859,97.4778472 C32.2492462,97.0205662 32.8164824,96.6492405 33.4606031,96.3621506 C34.1030151,96.0784988 34.8018091,95.9358135 35.5604019,95.9358135 C36.27799,95.9358135 36.9699498,96.0681842 37.6311558,96.3346449 C38.2940703,96.6011057 38.8613066,96.963836 39.3345728,97.4193978 C39.8061307,97.8766787 40.1854272,98.4199146 40.4690452,99.0473864 C40.7526633,99.6748585 40.8961809,100.352184 40.8961809,101.074207 L40.8961809,101.074207 Z" id="Fill-4"></path>
                <path d="M83.6854372,138.590666 L83.6854372,123.058588 C83.6854372,122.259206 83.6273467,121.489048 83.5145828,120.746397 C83.4001106,120.003745 83.1933768,119.367678 82.8909649,118.833037 C82.5868442,118.300116 82.180211,117.87206 81.6693568,117.548869 C81.160211,117.225678 80.4887538,117.064082 79.6566934,117.064082 C78.8605125,117.064082 78.1702614,117.234273 77.5842311,117.576374 C76.9964925,117.918475 76.5061407,118.375756 76.1080502,118.946498 C75.7116683,119.518958 75.417799,120.175655 75.2298593,120.916588 C75.0385025,121.660958 74.9445326,122.431116 74.9445326,123.230498 L74.9445326,138.590666 L65.6381006,138.590666 L65.6381006,122.372666 C65.6381006,120.737801 65.3151859,119.441599 64.6727739,118.490936 C64.0286533,117.540273 63.0086533,117.064082 61.6076483,117.064082 C60.1331759,117.064082 58.9884523,117.653734 58.1751859,118.833037 C57.3619197,120.01406 56.9552865,121.459824 56.9552865,123.173767 L56.9552865,138.590666 L47.5907639,138.590666 L47.5907639,110.153296 L56.6152865,110.153296 L56.6152865,114.093475 L56.7280502,114.093475 C57.0680502,113.484914 57.4934774,112.895262 58.0060402,112.322801 C58.5151859,111.75206 59.1302614,111.248363 59.8495577,110.809992 C60.5671457,110.37334 61.3718693,110.020925 62.2620201,109.754464 C63.1504623,109.488003 64.1243317,109.353914 65.1836282,109.353914 C67.2270452,109.353914 68.957799,109.773374 70.3758894,110.610576 C71.7956884,111.447779 72.9028241,112.647711 73.6972965,114.208655 C74.6421206,112.723352 75.8534774,111.544048 77.3279498,110.667307 C78.8041307,109.792284 80.6015176,109.353914 82.7201106,109.353914 C84.6490552,109.353914 86.2670452,109.706329 87.5723718,110.409442 C88.8776985,111.114273 89.9284523,112.028835 90.721216,113.151408 C91.5173969,114.2757 92.0931759,115.530644 92.4536784,116.919678 C92.8124724,118.31043 92.9935778,119.670239 92.9935778,121.002543 L92.9935778,138.590666 L83.6854372,138.590666 Z" id="Fill-6"></path>
                <path d="M121.935608,124.258176 C121.935608,123.345334 121.792091,122.451401 121.508472,121.57466 C121.226563,120.699637 120.80797,119.927761 120.261236,119.260749 C119.711086,118.595457 119.020834,118.05394 118.190482,117.63448 C117.356714,117.215019 116.393096,117.005289 115.296211,117.005289 C114.235206,117.005289 113.288673,117.215019 112.458322,117.63448 C111.624553,118.05394 110.915508,118.605772 110.329477,119.289974 C109.741739,119.975896 109.287266,120.756367 108.967769,121.63139 C108.644854,122.508131 108.484251,123.402064 108.484251,124.314907 C108.484251,125.227749 108.644854,126.123401 108.967769,126.998424 C109.287266,127.875165 109.741739,128.655637 110.329477,129.339839 C110.915508,130.025761 111.624553,130.577592 112.458322,130.995334 C113.288673,131.416514 114.235206,131.624525 115.296211,131.624525 C116.393096,131.624525 117.356714,131.416514 118.190482,130.995334 C119.020834,130.577592 119.711086,130.025761 120.261236,129.339839 C120.80797,128.655637 121.226563,127.864851 121.508472,126.969199 C121.792091,126.075266 121.935608,125.171019 121.935608,124.258176 M130.958422,124.258176 C130.958422,126.238581 130.65601,128.139907 130.051186,129.967311 C129.446362,131.796435 128.564754,133.403794 127.411487,134.792828 C126.256513,136.183581 124.848673,137.297558 123.182844,138.134761 C121.518724,138.970244 119.625658,139.391424 117.508774,139.391424 C115.767769,139.391424 114.122442,139.039008 112.571086,138.332457 C111.019729,137.629345 109.808372,136.668367 108.938724,135.449525 L108.82596,135.449525 L108.82596,152.294997 L99.5178191,152.294997 L99.5178191,110.154671 L108.371487,110.154671 L108.371487,113.635851 L108.540633,113.635851 C109.41199,112.494367 110.613096,111.49557 112.145658,110.637738 C113.678221,109.783345 115.484151,109.35357 117.565156,109.35357 C119.608573,109.35357 121.462342,109.75412 123.126462,110.553502 C124.792291,111.352884 126.200131,112.437637 127.355106,113.807761 C128.508372,115.177884 129.398523,116.769772 130.022141,118.576547 C130.645759,120.385042 130.958422,122.279491 130.958422,124.258176" id="Fill-7"></path>
                <polygon id="Fill-8" points="135.839899 138.590151 145.317186 138.590151 145.317186 95.4218022 135.839899 95.4218022"></polygon>
                <path d="M170.684603,121.117722 C170.684603,119.632419 170.219879,118.356846 169.293849,117.292722 C168.366111,116.22688 166.975357,115.692239 165.123297,115.692239 C164.214352,115.692239 163.382292,115.836644 162.625407,116.120296 C161.868523,116.405666 161.207317,116.797621 160.64008,117.292722 C160.071136,117.787824 159.618372,118.367161 159.276663,119.032453 C158.936663,119.699464 158.747015,120.393981 158.709427,121.117722 L170.684603,121.117722 Z M179.252944,124.715801 L179.252944,125.857284 C179.252944,126.238925 179.234151,126.598217 179.196564,126.942037 L158.709427,126.942037 C158.784603,127.741419 159.022091,128.465161 159.420181,129.111543 C159.816563,129.759644 160.327417,130.320071 160.951035,130.796262 C161.574653,131.274172 162.275156,131.643779 163.050834,131.910239 C163.826513,132.1767 164.631236,132.309071 165.463297,132.309071 C166.939477,132.309071 168.188422,132.034015 169.208422,131.482183 C170.230131,130.930352 171.062191,130.215206 171.704602,129.340183 L178.176564,133.452273 C176.850734,135.393138 175.101185,136.887037 172.926211,137.93397 C170.749528,138.980902 168.224302,139.503509 165.350533,139.503509 C163.230231,139.503509 161.224402,139.170003 159.334754,138.504711 C157.441688,137.839419 155.786111,136.869846 154.36802,135.592554 C152.948221,134.316981 151.832543,132.747442 151.020985,130.880498 C150.20601,129.016992 149.799377,126.885307 149.799377,124.487161 C149.799377,122.164655 150.197467,120.062194 150.99194,118.17634 C151.786412,116.292206 152.864503,114.693442 154.226211,113.380048 C155.58792,112.066655 157.195658,111.048947 159.049427,110.325206 C160.903196,109.603183 162.909025,109.240453 165.066914,109.240453 C167.146211,109.240453 169.05807,109.592869 170.797367,110.295981 C172.536664,111.000812 174.033347,112.020239 175.282292,113.350824 C176.529527,114.684846 177.503398,116.30252 178.2039,118.205565 C178.902693,120.10861 179.252944,122.279835 179.252944,124.715801 L179.252944,124.715801 Z" id="Fill-9"></path>
                <path d="M208.639708,124.201446 C208.639708,123.249064 208.479106,122.336221 208.1579,121.45948 C207.834985,120.584457 207.371969,119.812581 206.767145,119.147289 C206.160614,118.481997 205.443025,117.95939 204.610965,117.577749 C203.777197,117.196109 202.830664,117.005289 201.773075,117.005289 C200.713778,117.005289 199.777498,117.196109 198.964232,117.577749 C198.150965,117.95939 197.460714,118.471682 196.891768,119.119783 C196.324533,119.766165 195.888855,120.527727 195.586442,121.402749 C195.284031,122.279491 195.131969,123.211244 195.131969,124.201446 C195.131969,125.153828 195.284031,126.066671 195.586442,126.941693 C195.888855,127.818435 196.324533,128.588592 196.891768,129.255603 C197.460714,129.920896 198.150965,130.453817 198.964232,130.852648 C199.777498,131.253199 200.713778,131.452615 201.773075,131.452615 C202.830664,131.452615 203.787448,131.253199 204.64001,130.852648 C205.490865,130.453817 206.208452,129.93121 206.794483,129.283109 C207.382222,128.635008 207.834985,127.875165 208.1579,126.998424 C208.479106,126.123401 208.639708,125.191648 208.639708,124.201446 L208.639708,124.201446 Z M217.493377,135.906806 C217.493377,138.686592 217.095286,141.103648 216.302523,143.157974 C215.506342,145.215738 214.390664,146.917648 212.953778,148.270581 C211.513477,149.620075 209.765639,150.630907 207.703427,151.296199 C205.641216,151.961491 203.362019,152.294997 200.864131,152.294997 C198.36795,152.294997 195.805135,151.915075 193.175689,151.153514 C190.544533,150.391952 188.265336,149.288289 186.336392,147.840806 L190.990462,141.160379 C192.352172,142.377502 193.855689,143.281749 195.502724,143.87312 C197.14805,144.462772 198.766041,144.758457 200.354985,144.758457 C203.078402,144.758457 205.092774,144.032997 206.3981,142.587233 C207.703427,141.141469 208.356091,139.219514 208.356091,136.819648 L208.356091,135.107424 L208.185236,135.107424 C207.31388,136.250626 206.143527,137.163469 204.667347,137.84939 C203.192875,138.533592 201.508251,138.875693 199.616894,138.875693 C197.460714,138.875693 195.548855,138.487176 193.884734,137.706704 C192.218905,136.926233 190.811066,135.870704 189.656091,134.536682 C188.501116,133.204379 187.622925,131.65203 187.0181,129.883075 C186.411568,128.112401 186.109156,126.238581 186.109156,124.258176 C186.109156,122.279491 186.411568,120.393637 187.0181,118.605772 C187.622925,116.816188 188.501116,115.234615 189.656091,113.864491 C190.811066,112.494367 192.218905,111.401019 193.884734,110.581008 C195.548855,109.762716 197.440211,109.35357 199.558803,109.35357 C201.337398,109.35357 203.040815,109.7163 204.667347,110.440042 C206.29388,111.162064 207.599206,112.286356 208.583326,113.807761 L208.696091,113.807761 L208.696091,110.154671 L217.493377,110.154671 L217.493377,135.906806 Z" id="Fill-10"></path>
                <path d="M242.350452,117.862261 C241.933568,117.7488 241.526934,117.67144 241.130552,117.63362 C240.732462,117.597519 240.344624,117.57689 239.967035,117.57689 C238.718091,117.57689 237.667336,117.80553 236.816483,118.261092 C235.965628,118.716654 235.283919,119.266766 234.773066,119.913148 C234.263919,120.557811 233.894875,121.260924 233.667639,122.019047 C233.440402,122.77889 233.32593,123.442463 233.32593,124.011485 L233.32593,138.591182 L224.019498,138.591182 L224.019498,110.186474 L232.98593,110.186474 L232.98593,114.298564 L233.098693,114.298564 C233.81799,112.842485 234.839699,111.654586 236.163819,110.734867 C237.48794,109.815148 239.020502,109.354429 240.761508,109.354429 C241.137386,109.354429 241.508141,109.373339 241.866934,109.41116 C242.227436,109.44898 242.519598,109.507429 242.746834,109.58307 L242.350452,117.862261 Z" id="Fill-11"></path>
                <path d="M264.93807,121.117722 C264.93807,119.632419 264.473347,118.356846 263.547317,117.292722 C262.619577,116.22688 261.228824,115.692239 259.376764,115.692239 C258.467819,115.692239 257.635759,115.836644 256.878875,116.120296 C256.12199,116.405666 255.460784,116.797621 254.893548,117.292722 C254.324602,117.787824 253.87184,118.367161 253.530131,119.032453 C253.190131,119.699464 253.000483,120.393981 252.962894,121.117722 L264.93807,121.117722 Z M273.506411,124.715801 L273.506411,125.857284 C273.506411,126.238925 273.487618,126.598217 273.450031,126.942037 L252.962894,126.942037 C253.03807,127.741419 253.275558,128.465161 253.673649,129.111543 C254.070031,129.759644 254.580884,130.320071 255.204502,130.796262 C255.82812,131.274172 256.528624,131.643779 257.304301,131.910239 C258.079981,132.1767 258.884703,132.309071 259.716764,132.309071 C261.192944,132.309071 262.44189,132.034015 263.46189,131.482183 C264.483598,130.930352 265.315658,130.215206 265.95807,129.340183 L272.430031,133.452273 C271.104201,135.393138 269.354653,136.887037 267.179678,137.93397 C265.002994,138.980902 262.477768,139.503509 259.604,139.503509 C257.483699,139.503509 255.477869,139.170003 253.588222,138.504711 C251.695156,137.839419 250.039577,136.869846 248.621487,135.592554 C247.201689,134.316981 246.08601,132.747442 245.274452,130.880498 C244.459477,129.016992 244.052844,126.885307 244.052844,124.487161 C244.052844,122.164655 244.450934,120.062194 245.245407,118.17634 C246.03988,116.292206 247.117969,114.693442 248.479678,113.380048 C249.841386,112.066655 251.449126,111.048947 253.302894,110.325206 C255.156664,109.603183 257.162492,109.240453 259.320382,109.240453 C261.399678,109.240453 263.311539,109.592869 265.050834,110.295981 C266.790131,111.000812 268.286815,112.020239 269.535759,113.350824 C270.782994,114.684846 271.756865,116.30252 272.457367,118.205565 C273.15616,120.10861 273.506411,122.279835 273.506411,124.715801 L273.506411,124.715801 Z" id="Fill-12"></path>
                <path d="M298.761577,121.117722 C298.761577,119.632419 298.296855,118.356846 297.370824,117.292722 C296.443085,116.22688 295.052332,115.692239 293.200272,115.692239 C292.291326,115.692239 291.459266,115.836644 290.702382,116.120296 C289.945498,116.405666 289.284292,116.797621 288.717056,117.292722 C288.14811,117.787824 287.695347,118.367161 287.353639,119.032453 C287.013639,119.699464 286.82399,120.393981 286.786402,121.117722 L298.761577,121.117722 Z M307.329919,124.715801 L307.329919,125.857284 C307.329919,126.238925 307.311126,126.598217 307.273539,126.942037 L286.786402,126.942037 C286.861577,127.741419 287.099066,128.465161 287.497156,129.111543 C287.893539,129.759644 288.404392,130.320071 289.02801,130.796262 C289.651628,131.274172 290.352131,131.643779 291.127809,131.910239 C291.903487,132.1767 292.708211,132.309071 293.540272,132.309071 C295.016452,132.309071 296.265398,132.034015 297.285398,131.482183 C298.307106,130.930352 299.139166,130.215206 299.781577,129.340183 L306.253539,133.452273 C304.927709,135.393138 303.17816,136.887037 301.003185,137.93397 C298.826502,138.980902 296.301276,139.503509 293.427508,139.503509 C291.307207,139.503509 289.301377,139.170003 287.411728,138.504711 C285.518664,137.839419 283.863085,136.869846 282.444994,135.592554 C281.025197,134.316981 279.909517,132.747442 279.09796,130.880498 C278.282985,129.016992 277.876351,126.885307 277.876351,124.487161 C277.876351,122.164655 278.274442,120.062194 279.068915,118.17634 C279.863386,116.292206 280.941477,114.693442 282.303185,113.380048 C283.664894,112.066655 285.272633,111.048947 287.126402,110.325206 C288.980172,109.603183 290.986,109.240453 293.14389,109.240453 C295.223185,109.240453 297.135045,109.592869 298.874342,110.295981 C300.613639,111.000812 302.110322,112.020239 303.359266,113.350824 C304.606502,114.684846 305.580373,116.30252 306.280875,118.205565 C306.979668,120.10861 307.329919,122.279835 307.329919,124.715801 L307.329919,124.715801 Z" id="Fill-13"></path>
                <path d="M331.223377,138.590666 L331.223377,123.058588 C331.223377,122.259206 331.156743,121.497644 331.023477,120.773902 C330.891919,120.05188 330.673226,119.414093 330.372523,118.862262 C330.068402,118.31043 329.642975,117.87206 329.094533,117.548869 C328.546091,117.225678 327.85584,117.064082 327.023778,117.064082 C326.19001,117.064082 325.462172,117.225678 324.838552,117.548869 C324.214934,117.87206 323.693828,118.319026 323.278653,118.889767 C322.86006,119.460509 322.549106,120.118925 322.340664,120.859857 C322.132222,121.602509 322.028,122.372666 322.028,123.173767 L322.028,138.590666 L312.665185,138.590666 L312.665185,110.153296 L321.689709,110.153296 L321.689709,114.093475 L321.802473,114.093475 C322.142473,113.484914 322.586693,112.884947 323.136844,112.295296 C323.683577,111.705644 324.327699,111.200228 325.064081,110.780767 C325.80388,110.363026 326.606894,110.020925 327.478251,109.754464 C328.3479,109.488003 329.27393,109.353914 330.25805,109.353914 C332.149407,109.353914 333.757145,109.697734 335.081266,110.381936 C336.405386,111.067857 337.474934,111.951475 338.288201,113.037947 C339.101467,114.1227 339.689207,115.369048 340.048,116.776992 C340.406794,118.186655 340.5879,119.596318 340.5879,121.002543 L340.5879,138.590666 L331.223377,138.590666 Z" id="Fill-14"></path>
                <path d="M181.858985,0 C166.543608,0 152.728332,12.2210899 151.932151,29.530719 C150.457678,61.5764832 181.858985,88.2070787 181.858985,88.2070787 C181.858985,88.2070787 213.258583,61.5764832 211.785819,29.530719 C210.989639,12.2210899 197.174361,0 181.858985,0 M181.858985,8.11071911 C193.562502,8.11071911 203.171347,17.6843933 203.733457,29.9054832 C204.659487,50.032719 189.962602,68.4064719 181.847025,76.957281 C173.722905,68.4305393 159.055065,50.1255506 159.984513,29.9072022 C160.546623,17.6843933 170.155467,8.11071911 181.858985,8.11071911" id="Fill-15"></path>
                <path d="M220.485377,64.9746304 C218.811006,64.9746304 217.090502,65.2067089 215.358041,65.6983719 C197.286784,70.8333269 188.342564,93.4429449 188.342564,93.4429449 C188.342564,93.4429449 201.185678,101.349091 215.211106,101.349091 C218.963066,101.349091 222.797035,100.783507 226.496031,99.3497763 C235.959649,95.6812146 240.176332,85.6399449 237.326483,77.0289674 C234.982361,69.9479899 228.237035,64.9746304 220.485377,64.9746304 M220.485377,73.0853494 C224.695226,73.0853494 228.390803,75.7001022 229.679045,79.5921472 C231.095427,83.8761472 229.209197,89.6059113 223.598342,91.7805741 C221.105577,92.7484281 218.283066,93.2383719 215.211106,93.2383719 C209.321759,93.2383719 203.536633,91.4866079 199.285778,89.772664 C202.829297,83.9002146 209.022764,75.9270237 217.548392,73.5048101 C218.527386,73.2263158 219.514925,73.0853494 220.485377,73.0853494" id="Fill-16"></path>
            </g>
        </g>
    </g>
</svg>
