<?xml version="1.0" encoding="UTF-8"?>
<svg width="200px" height="90px" viewBox="0 0 200 90" version="1.1" xmlns="http://www.w3.org/2000/svg" xmlns:xlink="http://www.w3.org/1999/xlink">
    <defs>
        <polygon id="path-1" points="8.17237818e-20 0.965831461 8.17237818e-20 18.7686404 14.5543719 18.7686404 14.5543719 0.965831461 0 0.965831461"></polygon>
        <polygon id="path-3" points="0 89.585191 199.756784 89.585191 199.756784 -0.000202247191 0 -0.000202247191"></polygon>
    </defs>
    <g id="main-site" stroke="none" stroke-width="1" fill="none" fill-rule="evenodd">
        <g id="Page-1">
            <g id="Group-3" transform="translate(0.000000, 63.293056)">
                <mask id="mask-2" fill="white">
                    <use xlink:href="#path-1"></use>
                </mask>
                <g id="Clip-2"></g>
                <path d="M11.5503518,6.44066292 C11.1051256,6.01594382 10.5825126,5.65695506 9.98150754,5.3657191 C9.38050251,5.07549438 8.74633166,4.9298764 8.07798995,4.9298764 C7.56643216,4.9298764 7.09306533,5.02998876 6.6598995,5.23122472 C6.22572864,5.43347191 6.00864322,5.78032584 6.00864322,6.27279775 C6.00864322,6.74302247 6.2478392,7.07875281 6.72723618,7.281 C7.20462312,7.48223596 7.97849246,7.70673034 9.04683417,7.95246067 C9.66994975,8.08695506 10.2980905,8.27706742 10.9332663,8.52380899 C11.5674372,8.77055056 12.1403015,9.09414607 12.6518593,9.49762921 C13.1644221,9.90111236 13.5754774,10.3935843 13.8870352,10.9760562 C14.198593,11.5585281 14.3553769,12.2512247 14.3553769,13.058191 C14.3553769,14.1108876 14.1423116,15.0007753 13.720201,15.7278539 C13.2980905,16.4569551 12.7463317,17.0444831 12.0669347,17.4914494 C11.3895477,17.9404382 10.6267337,18.2640337 9.78050251,18.4662809 C8.93527638,18.6675169 8.09005025,18.7686404 7.2438191,18.7686404 C5.88603015,18.7686404 4.55638191,18.5502135 3.25487437,18.1133596 C1.95236181,17.6765056 0.867939698,17.0333596 -0.00040201005,16.1818989 L3.07095477,12.9236966 C3.56040201,13.4616742 4.16140704,13.9096517 4.87396985,14.2676292 C5.58552764,14.6256067 6.34231156,14.8045955 7.14331658,14.8045955 C7.58854271,14.8045955 8.02874372,14.6984157 8.46291457,14.4860562 C8.8960804,14.2726854 9.11316583,13.8975169 9.11316583,13.3605506 C9.11316583,12.8458315 8.84582915,12.4645955 8.3121608,12.2178539 C7.77748744,11.9721236 6.94331658,11.7142584 5.80864322,11.4452697 C5.22974874,11.3107753 4.65085427,11.1327978 4.07296482,10.9083034 C3.49407035,10.6848202 2.97648241,10.3824607 2.52020101,10.0012247 C2.0639196,9.621 1.69105528,9.15077528 1.40160804,8.59055056 C1.1121608,8.03133708 0.967437186,7.35886517 0.967437186,6.5751573 C0.967437186,5.56796629 1.17949749,4.71144944 1.60261307,4.00560674 C2.02472362,3.30077528 2.57045226,2.72437079 3.23778894,2.27639326 C3.90512563,1.82841573 4.64582915,1.49774157 5.45788945,1.28538202 C6.26994975,1.07201124 7.07698492,0.965831461 7.87798995,0.965831461 C9.12422111,0.965831461 10.3423116,1.16201124 11.5332663,1.55437079 C12.7242211,1.9457191 13.7312563,2.53324719 14.5543719,3.31695506 L11.5503518,6.44066292 Z" id="Fill-1" fill="#7E7E7E" mask="url(#mask-2)"></path>
            </g>
            <mask id="mask-4" fill="white">
                <use xlink:href="#path-3"></use>
            </mask>
            <g id="Clip-5"></g>
            <path d="M17.5929648,81.5246292 L23.0683417,81.5246292 L23.0683417,64.796764 L17.5929648,64.796764 L17.5929648,81.5246292 Z M23.4683417,59.4554157 C23.4683417,59.8811461 23.3839196,60.2785618 23.2170854,60.6486742 C23.0502513,61.016764 22.8271357,61.3363146 22.5497487,61.6053034 C22.2713568,61.8732809 21.9376884,62.0876629 21.5477387,62.2433933 C21.158794,62.4001348 20.7517588,62.4790112 20.3296482,62.4790112 C19.439196,62.4790112 18.6934673,62.1817079 18.0924623,61.5891236 C17.4924623,60.9955281 17.1919598,60.283618 17.1919598,59.4554157 C17.1919598,59.0529438 17.2693467,58.6656404 17.4251256,58.2965393 C17.5809045,57.9274382 17.8030151,57.6078876 18.0924623,57.3399101 C18.3819095,57.0709213 18.7155779,56.8524944 19.0944724,56.683618 C19.4723618,56.516764 19.8834171,56.4328315 20.3296482,56.4328315 C20.7517588,56.4328315 21.158794,56.5106966 21.5477387,56.6674382 C21.9376884,56.8241798 22.2713568,57.0375506 22.5497487,57.3055281 C22.8271357,57.5745169 23.0502513,57.8940674 23.2170854,58.2631685 C23.3839196,58.6322697 23.4683417,59.0306966 23.4683417,59.4554157 L23.4683417,59.4554157 Z" id="Fill-4" fill="#7E7E7E" mask="url(#mask-4)"></path>
            <path d="M48.6384925,81.5239213 L48.6384925,72.3874045 C48.6384925,71.9171798 48.6043216,71.4641461 48.5379899,71.0272921 C48.4706533,70.5904382 48.3490452,70.2162809 48.1711558,69.9017865 C47.9922613,69.5883034 47.7530653,69.3365056 47.4525628,69.1463933 C47.1530653,68.9562809 46.7580905,68.8612247 46.2686432,68.8612247 C45.8003015,68.8612247 45.3942714,68.9613371 45.0495477,69.162573 C44.7038191,69.363809 44.4153769,69.6327978 44.181206,69.9685281 C43.9480402,70.3052697 43.7751759,70.6915618 43.6646231,71.1274045 C43.5520603,71.5652697 43.4967839,72.0183034 43.4967839,72.4885281 L43.4967839,81.5239213 L38.0224121,81.5239213 L38.0224121,71.9839213 C38.0224121,71.022236 37.8324623,70.259764 37.4545729,69.7005506 C37.0756784,69.1413371 36.4756784,68.8612247 35.6515578,68.8612247 C34.7842211,68.8612247 34.1108543,69.2080787 33.6324623,69.9017865 C33.1540704,70.5965056 32.9148744,71.4469551 32.9148744,72.4551573 L32.9148744,81.5239213 L27.4063317,81.5239213 L27.4063317,64.7960562 L32.7148744,64.7960562 L32.7148744,67.113809 L32.781206,67.113809 C32.981206,66.7558315 33.2314573,66.4089775 33.5329648,66.072236 C33.8324623,65.7365056 34.1942714,65.4402135 34.6173869,65.1823483 C35.0394975,64.9254944 35.5128643,64.718191 36.0364824,64.5614494 C36.5590955,64.4047079 37.1319598,64.3258315 37.7550754,64.3258315 C38.9570854,64.3258315 39.9751759,64.572573 40.8093467,65.0650449 C41.6445226,65.5575169 42.2957789,66.2633596 42.7631156,67.1815618 C43.3188945,66.3078539 44.0314573,65.6141461 44.898794,65.0984157 C45.7671357,64.5836966 46.8244221,64.3258315 48.0706533,64.3258315 C49.2053266,64.3258315 50.1570854,64.5331348 50.9249246,64.9467303 C51.6927638,65.3613371 52.3108543,65.8993146 52.7771859,66.5596517 C53.2455276,67.221 53.5842211,67.9592022 53.7962814,68.7762809 C54.0073367,69.5943708 54.1138693,70.3942584 54.1138693,71.1779663 L54.1138693,81.5239213 L48.6384925,81.5239213 Z" id="Fill-6" fill="#7E7E7E" mask="url(#mask-4)"></path>
            <path d="M71.138593,73.0930449 C71.138593,72.5560787 71.0541709,72.030236 70.8873367,71.5145056 C70.7215075,70.9997865 70.4752764,70.5457416 70.1536683,70.153382 C69.8300503,69.7620337 69.4240201,69.4434944 68.9355779,69.1967528 C68.4451256,68.9500112 67.8782915,68.8266404 67.2330653,68.8266404 C66.6089447,68.8266404 66.0521608,68.9500112 65.5637186,69.1967528 C65.0732663,69.4434944 64.6561809,69.7681011 64.3114573,70.170573 C63.9657286,70.5740562 63.698392,71.0331573 63.5104523,71.5478764 C63.3205025,72.0636067 63.2260302,72.5894494 63.2260302,73.1264157 C63.2260302,73.663382 63.3205025,74.190236 63.5104523,74.7049551 C63.698392,75.2206854 63.9657286,75.6797865 64.3114573,76.0822584 C64.6561809,76.4857416 65.0732663,76.8103483 65.5637186,77.0560787 C66.0521608,77.3038315 66.6089447,77.426191 67.2330653,77.426191 C67.8782915,77.426191 68.4451256,77.3038315 68.9355779,77.0560787 C69.4240201,76.8103483 69.8300503,76.4857416 70.1536683,76.0822584 C70.4752764,75.6797865 70.7215075,75.214618 70.8873367,74.687764 C71.0541709,74.1619213 71.138593,73.6300112 71.138593,73.0930449 M76.4461307,73.0930449 C76.4461307,74.2579888 76.2682412,75.3764157 75.9124623,76.4513596 C75.5566834,77.5273146 75.0380905,78.4728202 74.3596985,79.2898989 C73.6803015,80.1079888 72.8521608,80.7632697 71.8722613,81.2557416 C70.8933668,81.7472022 69.779799,81.9949551 68.5345729,81.9949551 C67.5104523,81.9949551 66.5426131,81.7876517 65.6300503,81.3720337 C64.7174874,80.9584382 64.0049246,80.3931573 63.4933668,79.676191 L63.4270352,79.676191 L63.4270352,89.5852921 L57.9516583,89.5852921 L57.9516583,64.7968652 L63.1596985,64.7968652 L63.1596985,66.844618 L63.259196,66.844618 C63.7717588,66.1731573 64.4782915,65.5856292 65.379799,65.0810225 C66.2813065,64.5784382 67.3436181,64.3256292 68.5677387,64.3256292 C69.7697487,64.3256292 70.860201,64.5612472 71.8390955,65.0314719 C72.818995,65.5016966 73.6471357,66.1397865 74.3265327,66.9457416 C75.0049246,67.7516966 75.5285427,68.6881011 75.8953769,69.7509101 C76.2622111,70.8147303 76.4461307,71.9291124 76.4461307,73.0930449" id="Fill-7" fill="#7E7E7E" mask="url(#mask-4)"></path>
            <polygon id="Fill-8" fill="#7E7E7E" mask="url(#mask-4)" points="79.3175879 81.523618 84.8924623 81.523618 84.8924623 56.1304719 79.3175879 56.1304719"></polygon>
            <path d="M99.8144724,71.2457191 C99.8144724,70.3720112 99.5411055,69.6216742 98.9963819,68.9957191 C98.4506533,68.3687528 97.6325628,68.0542584 96.5431156,68.0542584 C96.0084422,68.0542584 95.518995,68.1392022 95.0737688,68.3060562 C94.6285427,68.4739213 94.239598,68.7044831 93.9059296,68.9957191 C93.5712563,69.2869551 93.3049246,69.6277416 93.1039196,70.0190899 C92.9039196,70.4114494 92.7923618,70.8199888 92.7702513,71.2457191 L99.8144724,71.2457191 Z M104.854673,73.362236 L104.854673,74.0336966 C104.854673,74.258191 104.843618,74.4695393 104.821508,74.6717865 L92.7702513,74.6717865 C92.8144724,75.1420112 92.9541709,75.5677416 93.1883417,75.9479663 C93.4215075,76.3292022 93.7220101,76.6588652 94.0888442,76.9389775 C94.4556784,77.2201011 94.8677387,77.4375169 95.3240201,77.5942584 C95.7803015,77.751 96.2536683,77.8288652 96.7431156,77.8288652 C97.6114573,77.8288652 98.3461307,77.6670674 98.9461307,77.3424607 C99.5471357,77.0178539 100.036583,76.5971798 100.414472,76.0824607 L104.221508,78.5013371 C103.441608,79.6430225 102.412462,80.5217865 101.133065,81.1376292 C99.8526633,81.7534719 98.3672362,82.0608876 96.6767839,82.0608876 C95.4295477,82.0608876 94.2496482,81.8647079 93.1380905,81.4733596 C92.0245226,81.0820112 91.0506533,80.5116742 90.2164824,79.7603258 C89.3813065,79.0099888 88.7250251,78.0867303 88.2476382,76.9885281 C87.7682412,75.8923483 87.5290452,74.6384157 87.5290452,73.2277416 C87.5290452,71.8615618 87.7632161,70.6248202 88.2305528,69.5154944 C88.6978894,68.4071798 89.3320603,67.4667303 90.1330653,66.6941461 C90.9340704,65.9215618 91.879799,65.3229101 92.9702513,64.8971798 C94.0607035,64.4724607 95.240603,64.2590899 96.5099497,64.2590899 C97.7330653,64.2590899 98.8576884,64.4663933 99.880804,64.8799888 C100.90392,65.2945955 101.784322,65.8942584 102.518995,66.6769551 C103.252663,67.4616742 103.825528,68.4132472 104.237588,69.5326854 C104.648643,70.6521236 104.854673,71.9293146 104.854673,73.362236 L104.854673,73.362236 Z" id="Fill-9" fill="#7E7E7E" mask="url(#mask-4)"></path>
            <path d="M122.141005,73.0596742 C122.141005,72.4994494 122.046533,71.9624831 121.857588,71.4467528 C121.667638,70.9320337 121.395276,70.4779888 121.039497,70.0866404 C120.682714,69.6952921 120.260603,69.3878764 119.771156,69.163382 C119.280704,68.9388876 118.72392,68.8266404 118.101809,68.8266404 C117.478693,68.8266404 116.92794,68.9388876 116.449548,69.163382 C115.971156,69.3878764 115.565126,69.6892247 115.230452,70.0704607 C114.896784,70.4506854 114.640503,70.8986629 114.462613,71.413382 C114.284724,71.9291124 114.195276,72.4772022 114.195276,73.0596742 C114.195276,73.6198989 114.284724,74.1568652 114.462613,74.6715843 C114.640503,75.1873146 114.896784,75.6403483 115.230452,76.0327079 C115.565126,76.4240562 115.971156,76.7375393 116.449548,76.9721461 C116.92794,77.207764 117.478693,77.3250674 118.101809,77.3250674 C118.72392,77.3250674 119.286734,77.207764 119.788241,76.9721461 C120.288744,76.7375393 120.710854,76.4301236 121.055578,76.0488876 C121.401307,75.6676517 121.667638,75.2206854 121.857588,74.7049551 C122.046533,74.190236 122.141005,73.6421461 122.141005,73.0596742 L122.141005,73.0596742 Z M127.349045,79.9451798 C127.349045,81.5803483 127.114874,83.0021461 126.648543,84.210573 C126.180201,85.4210225 125.52392,86.4221461 124.678693,87.2179888 C123.831457,88.011809 122.803317,88.6064157 121.590251,88.997764 C120.377186,89.3891124 119.036482,89.5852921 117.567136,89.5852921 C116.098794,89.5852921 114.591256,89.361809 113.044523,88.9138315 C111.496784,88.4658539 110.15608,87.8166404 109.021407,86.9651798 L111.759095,83.0355169 C112.560101,83.7514719 113.444523,84.283382 114.413367,84.6312472 C115.381206,84.9781011 116.332965,85.1520337 117.267638,85.1520337 C118.869648,85.1520337 120.054573,84.7252921 120.822412,83.8748427 C121.590251,83.0243933 121.974171,81.8938315 121.974171,80.4821461 L121.974171,79.4749551 L121.873668,79.4749551 C121.361106,80.147427 120.672663,80.6843933 119.804322,81.0878764 C118.936985,81.4903483 117.94603,81.6915843 116.833467,81.6915843 C115.565126,81.6915843 114.440503,81.4630449 113.461608,81.0039438 C112.481709,80.5448427 111.653568,79.9239438 110.974171,79.1392247 C110.294774,78.3555169 109.778191,77.4423708 109.422412,76.401809 C109.065628,75.360236 108.887739,74.2579888 108.887739,73.0930449 C108.887739,71.9291124 109.065628,70.8197865 109.422412,69.7681011 C109.778191,68.7154045 110.294774,67.7850674 110.974171,66.9791124 C111.653568,66.1731573 112.481709,65.5300112 113.461608,65.0476517 C114.440503,64.5663034 115.553065,64.3256292 116.799296,64.3256292 C117.845528,64.3256292 118.847538,64.539 119.804322,64.9647303 C120.761106,65.3894494 121.528945,66.0507978 122.107839,66.9457416 L122.174171,66.9457416 L122.174171,64.7968652 L127.349045,64.7968652 L127.349045,79.9451798 Z" id="Fill-10" fill="#7E7E7E" mask="url(#mask-4)"></path>
            <path d="M141.970854,69.3307416 C141.725628,69.264 141.486432,69.2184944 141.253266,69.1962472 C141.019095,69.1750112 140.790955,69.1628764 140.568844,69.1628764 C139.834171,69.1628764 139.21608,69.2973708 138.715578,69.5653483 C138.215075,69.8333258 137.81407,70.1569213 137.513568,70.5371461 C137.21407,70.9163596 136.996985,71.3299551 136.863317,71.7759101 C136.729648,72.2228764 136.662312,72.6132135 136.662312,72.9479326 L136.662312,81.5242247 L131.18794,81.5242247 L131.18794,64.815573 L136.462312,64.815573 L136.462312,67.2344494 L136.528643,67.2344494 C136.951759,66.3779326 137.552764,65.6791685 138.331658,65.1381573 C139.110553,64.5971461 140.01206,64.3261348 141.036181,64.3261348 C141.257286,64.3261348 141.475377,64.3372584 141.686432,64.3595056 C141.898492,64.3817528 142.070352,64.4161348 142.20402,64.4606292 L141.970854,69.3307416 Z" id="Fill-11" fill="#7E7E7E" mask="url(#mask-4)"></path>
            <path d="M155.257688,71.2457191 C155.257688,70.3720112 154.984322,69.6216742 154.439598,68.9957191 C153.893869,68.3687528 153.075779,68.0542584 151.986332,68.0542584 C151.451658,68.0542584 150.962211,68.1392022 150.516985,68.3060562 C150.071759,68.4739213 149.682814,68.7044831 149.349146,68.9957191 C149.014472,69.2869551 148.748141,69.6277416 148.547136,70.0190899 C148.347136,70.4114494 148.235578,70.8199888 148.213467,71.2457191 L155.257688,71.2457191 Z M160.297889,73.362236 L160.297889,74.0336966 C160.297889,74.258191 160.286834,74.4695393 160.264724,74.6717865 L148.213467,74.6717865 C148.257688,75.1420112 148.397387,75.5677416 148.631558,75.9479663 C148.864724,76.3292022 149.165226,76.6588652 149.53206,76.9389775 C149.898894,77.2201011 150.310955,77.4375169 150.767236,77.5942584 C151.223518,77.751 151.696884,77.8288652 152.186332,77.8288652 C153.054673,77.8288652 153.789347,77.6670674 154.389347,77.3424607 C154.990352,77.0178539 155.479799,76.5971798 155.857688,76.0824607 L159.664724,78.5013371 C158.884824,79.6430225 157.855678,80.5217865 156.576281,81.1376292 C155.295879,81.7534719 153.810452,82.0608876 152.12,82.0608876 C150.872764,82.0608876 149.692864,81.8647079 148.581307,81.4733596 C147.467739,81.0820112 146.493869,80.5116742 145.659698,79.7603258 C144.824523,79.0099888 144.168241,78.0867303 143.690854,76.9885281 C143.211457,75.8923483 142.972261,74.6384157 142.972261,73.2277416 C142.972261,71.8615618 143.206432,70.6248202 143.673769,69.5154944 C144.141106,68.4071798 144.775276,67.4667303 145.576281,66.6941461 C146.377286,65.9215618 147.323015,65.3229101 148.413467,64.8971798 C149.50392,64.4724607 150.683819,64.2590899 151.953166,64.2590899 C153.176281,64.2590899 154.300905,64.4663933 155.32402,64.8799888 C156.347136,65.2945955 157.227538,65.8942584 157.962211,66.6769551 C158.695879,67.4616742 159.268744,68.4132472 159.680804,69.5326854 C160.091859,70.6521236 160.297889,71.9293146 160.297889,73.362236 L160.297889,73.362236 Z" id="Fill-12" fill="#7E7E7E" mask="url(#mask-4)"></path>
            <path d="M175.153869,71.2457191 C175.153869,70.3720112 174.880503,69.6216742 174.335779,68.9957191 C173.79005,68.3687528 172.97196,68.0542584 171.882513,68.0542584 C171.347839,68.0542584 170.858392,68.1392022 170.413166,68.3060562 C169.96794,68.4739213 169.578995,68.7044831 169.245327,68.9957191 C168.910653,69.2869551 168.644322,69.6277416 168.443317,70.0190899 C168.243317,70.4114494 168.131759,70.8199888 168.109648,71.2457191 L175.153869,71.2457191 Z M180.19407,73.362236 L180.19407,74.0336966 C180.19407,74.258191 180.183015,74.4695393 180.160905,74.6717865 L168.109648,74.6717865 C168.153869,75.1420112 168.293568,75.5677416 168.527739,75.9479663 C168.760905,76.3292022 169.061407,76.6588652 169.428241,76.9389775 C169.795075,77.2201011 170.207136,77.4375169 170.663417,77.5942584 C171.119698,77.751 171.593065,77.8288652 172.082513,77.8288652 C172.950854,77.8288652 173.685528,77.6670674 174.285528,77.3424607 C174.886533,77.0178539 175.37598,76.5971798 175.753869,76.0824607 L179.560905,78.5013371 C178.781005,79.6430225 177.751859,80.5217865 176.472462,81.1376292 C175.19206,81.7534719 173.706633,82.0608876 172.016181,82.0608876 C170.768945,82.0608876 169.589045,81.8647079 168.477487,81.4733596 C167.36392,81.0820112 166.39005,80.5116742 165.555879,79.7603258 C164.720704,79.0099888 164.064422,78.0867303 163.587035,76.9885281 C163.107638,75.8923483 162.868442,74.6384157 162.868442,73.2277416 C162.868442,71.8615618 163.102613,70.6248202 163.56995,69.5154944 C164.037286,68.4071798 164.671457,67.4667303 165.472462,66.6941461 C166.273467,65.9215618 167.219196,65.3229101 168.309648,64.8971798 C169.400101,64.4724607 170.58,64.2590899 171.849347,64.2590899 C173.072462,64.2590899 174.197085,64.4663933 175.220201,64.8799888 C176.243317,65.2945955 177.123719,65.8942584 177.858392,66.6769551 C178.59206,67.4616742 179.164925,68.4132472 179.576985,69.5326854 C179.98804,70.6521236 180.19407,71.9293146 180.19407,73.362236 L180.19407,73.362236 Z" id="Fill-13" fill="#7E7E7E" mask="url(#mask-4)"></path>
            <path d="M194.249045,81.5239213 L194.249045,72.3874045 C194.249045,71.9171798 194.209849,71.4692022 194.131457,71.0434719 C194.05407,70.6187528 193.925427,70.2435843 193.748543,69.9189775 C193.569648,69.5943708 193.319397,69.3365056 192.996784,69.1463933 C192.674171,68.9562809 192.268141,68.8612247 191.778693,68.8612247 C191.288241,68.8612247 190.860101,68.9562809 190.493266,69.1463933 C190.126432,69.3365056 189.819899,69.599427 189.575678,69.9351573 C189.329447,70.2708876 189.146533,70.658191 189.02392,71.0940337 C188.901307,71.5308876 188.84,71.9839213 188.84,72.4551573 L188.84,81.5239213 L183.332462,81.5239213 L183.332462,64.7960562 L188.641005,64.7960562 L188.641005,67.113809 L188.707337,67.113809 C188.907337,66.7558315 189.168643,66.4029101 189.492261,66.0560562 C189.813869,65.7092022 190.192764,65.4118989 190.62593,65.1651573 C191.061106,64.919427 191.533467,64.718191 192.04603,64.5614494 C192.557588,64.4047079 193.102312,64.3258315 193.681206,64.3258315 C194.793769,64.3258315 195.739497,64.5280787 196.518392,64.9305506 C197.297286,65.3340337 197.926432,65.853809 198.404824,66.4929101 C198.883216,67.131 199.228945,67.8641461 199.44,68.6923483 C199.651055,69.5215618 199.757588,70.3507753 199.757588,71.1779663 L199.757588,81.5239213 L194.249045,81.5239213 Z" id="Fill-14" fill="#7E7E7E" mask="url(#mask-4)"></path>
            <path d="M106.387638,-1.42108547e-14 C97.378593,-1.42108547e-14 89.2519598,7.1888764 88.7836181,17.3710112 C87.9162814,36.2214607 106.387638,51.8865169 106.387638,51.8865169 C106.387638,51.8865169 124.85799,36.2214607 123.991658,17.3710112 C123.523317,7.1888764 115.396683,-1.42108547e-14 106.387638,-1.42108547e-14 M106.387638,4.77101124 C113.27206,4.77101124 118.924322,10.4025843 119.254975,17.5914607 C119.799698,29.4310112 111.154472,40.2391011 106.380603,45.2689888 C101.601709,40.2532584 92.9735678,29.485618 93.5203015,17.5924719 C93.8509548,10.4025843 99.5032161,4.77101124 106.387638,4.77101124" id="Fill-15" fill="#7E7E7E" mask="url(#mask-4)"></path>
            <path d="M129.109045,38.2203708 C128.124121,38.2203708 127.11206,38.3568876 126.092965,38.6461011 C115.462814,41.6666629 110.201508,54.9664382 110.201508,54.9664382 C110.201508,54.9664382 117.756281,59.6171124 126.006533,59.6171124 C128.213568,59.6171124 130.468844,59.2844157 132.644724,58.4410449 C138.211558,56.2830674 140.69196,50.3764382 139.015578,45.3111573 C137.636683,41.1458764 133.668844,38.2203708 129.109045,38.2203708 M129.109045,42.991382 C131.585427,42.991382 133.759296,44.5294719 134.517085,46.8189101 C135.350251,49.3389101 134.240704,52.7093596 130.940201,53.988573 C129.473869,54.5578989 127.813568,54.8461011 126.006533,54.8461011 C122.542211,54.8461011 119.139196,53.8156517 116.638693,52.8074494 C118.723116,49.3530674 122.366332,44.6629551 127.381407,43.2381236 C127.957286,43.0743034 128.538191,42.991382 129.109045,42.991382" id="Fill-16" fill="#7E7E7E" mask="url(#mask-4)"></path>
        </g>
    </g>
</svg>
